<?xml version="1.0" encoding="utf-8"?>
<!-- Generator: Adobe Illustrator 24.3.0, SVG Export Plug-In . SVG Version: 6.00 Build 0)  -->
<svg version="1.1" xmlns="http://www.w3.org/2000/svg" xmlns:xlink="http://www.w3.org/1999/xlink" x="0px" y="0px"
	 viewBox="0 0 500 500" style="enable-background:new 0 0 500 500;" xml:space="preserve">
<style type="text/css">
	.st0{fill:#D3E1EF;}
	.st1{fill:#03004C;}
	.st2{fill:#FFCC45;}
	.st3{fill:#E8B138;}
	.st4{fill:#18187C;}
	.st5{fill:#F8A382;}
	.st6{fill:#DD7F66;}
	.st7{fill:#2E92C3;}
	.st8{fill:#2483A0;}
	.st9{fill:#EF9275;}
	.st10{fill:#CC331F;}
	.st11{fill:#B55E4D;}
	.st12{fill:#E5483C;}
	.st13{fill:#FF5B40;}
	.st14{fill:#EA4934;}
	.st15{fill:#7860DC;}
	.st16{fill:#5E4DC1;}
	.st17{fill:#FFA42F;}
	.st18{fill:#EF922E;}
</style>
<g id="BACKGROUND">
</g>
<g id="OBJECTS">
	<g>
		<g>
			<ellipse class="st0" cx="375.97" cy="461.81" rx="82.8" ry="16.26"/>
			<g>
				<g>
					<path class="st1" d="M418.11,445.82c0.14,5.45-6.61,13.68-3.93,16.02c2.33,1.14,8.15-2.54,11.04-4.33
						c3.18-1.97,10.52-7.76,13.02-15.01c1.03-2.97-5.69-6.34-7.92-8.55c-2.23-2.21-4.8-4.18-6.37-6.91
						c-3.14,2.64-9.8,4.63-13.45,6.46C413.28,436.89,417.99,440.91,418.11,445.82z"/>
					<path class="st1" d="M334.4,453.54c-2.58,2.33-7.7,3.93-10.67,5.73c-0.51,0.31-1.06,0.69-1.18,1.27
						c-0.17,0.83,0.62,1.53,1.37,1.93c4.2,2.25,12.91,2.34,17.59,1.44c4.57-0.88,10.75-1.73,14-4.16
						c1.21-7.27-2.34-14.39-6.43-20.52c-0.24-0.36-0.5-0.73-0.88-0.93c-0.48-0.26-1.06-0.21-1.6-0.15
						c-5.11,0.53-11.56-0.97-10.67,5.14c0.19,1.32,2.23,2.07,2.35,3.62C338.47,449.45,336.16,451.95,334.4,453.54z"/>
					<path class="st2" d="M306.83,359.66c-2.27,6.11,26.43,80.9,29.22,85.19c0.67,1.03,13.85,0.72,17.77-0.44
						c1.02-3.79-16.81-80.52-16.81-80.52c16.09-14.78,28.91-25.22,37.99-42.23c-9.08,17-13.82,35.59-13.82,47.12
						c0,11.55,38.05,54.22,51.24,70.86c0.72,0.9,15.76-8.96,15.78-10.53c0.01-1.25-35.99-63.29-34.95-65.42
						c14.16-28.98,37.08-47.11,29.08-75.36c-0.2-0.69-63.28,2.55-66,5.44C326.9,325,311.03,348.35,306.83,359.66z"/>
					<g>
						<path class="st3" d="M375.51,320.64c0.91-2.92,1.81-5.84,2.72-8.76c0.19-0.62-0.77-0.88-0.96-0.27
							c-0.91,2.92-1.81,5.84-2.72,8.76C374.36,320.99,375.32,321.26,375.51,320.64L375.51,320.64z"/>
					</g>
					<g>
						<path class="st3" d="M368.9,307.35c2.26,2.58,4.65,5.02,7.18,7.33c0.47,0.43,1.18-0.27,0.71-0.71
							c-2.53-2.31-4.92-4.75-7.18-7.33C369.19,306.16,368.48,306.86,368.9,307.35L368.9,307.35z"/>
					</g>
					<g>
						<path class="st3" d="M364.25,311.44c3.08,1.68,6.15,3.36,9.23,5.04c0.56,0.31,1.07-0.55,0.5-0.86
							c-3.08-1.68-6.15-3.36-9.23-5.04C364.19,310.26,363.68,311.13,364.25,311.44L364.25,311.44z"/>
					</g>
					<g>
						<path class="st3" d="M380.05,314.3c2.2-2.11,4.74-3.71,7.6-4.79c0.6-0.22,0.34-1.19-0.27-0.96c-3.02,1.14-5.71,2.82-8.04,5.04
							C378.87,314.03,379.58,314.74,380.05,314.3L380.05,314.3z"/>
					</g>
					<g>
						<path class="st3" d="M378.24,307.5c-0.15-1.84-0.29-3.67-0.44-5.51c-0.05-0.64-1.05-0.64-1,0c0.15,1.83,0.29,3.67,0.44,5.51
							C377.29,308.14,378.29,308.14,378.24,307.5L378.24,307.5z"/>
					</g>
					<g>
						<path class="st3" d="M381.13,364.97c2.68-0.65,5.37-0.88,8.12-0.72c0.64,0.04,0.64-0.96,0-1c-2.84-0.17-5.62,0.09-8.39,0.75
							C380.24,364.16,380.5,365.12,381.13,364.97L381.13,364.97z"/>
					</g>
					<g>
						<path class="st3" d="M384.74,369.16c1.74-0.93,3.49-1.86,5.23-2.78c0.57-0.3,0.06-1.17-0.5-0.86
							c-1.74,0.93-3.49,1.86-5.23,2.78C383.67,368.6,384.17,369.46,384.74,369.16L384.74,369.16z"/>
					</g>
					<g>
						<path class="st3" d="M325.5,361.44c2.86,0.07,5.6,0.66,8.23,1.79c0.59,0.25,1.1-0.61,0.5-0.86c-2.8-1.2-5.69-1.85-8.73-1.92
							C324.86,360.42,324.86,361.42,325.5,361.44L325.5,361.44z"/>
					</g>
					<g>
						<path class="st3" d="M327.25,365.48c2.33,0.17,4.67,0.33,7,0.5c0.64,0.05,0.64-0.95,0-1c-2.33-0.17-4.67-0.33-7-0.5
							C326.61,364.44,326.61,365.44,327.25,365.48L327.25,365.48z"/>
					</g>
					<g>
						<path class="st4" d="M331.88,457.6c1.44,0.32,2.84,0.76,4.2,1.35c0.58,0.25,1.09-0.61,0.5-0.86
							c-1.44-0.62-2.91-1.11-4.44-1.45C331.52,456.49,331.25,457.46,331.88,457.6L331.88,457.6z"/>
					</g>
					<g>
						<path class="st4" d="M335.67,456.32c1.31,0.06,2.56,0.37,3.74,0.96c0.57,0.28,1.08-0.58,0.5-0.86
							c-1.34-0.66-2.75-1.03-4.25-1.09C335.02,455.29,335.02,456.29,335.67,456.32L335.67,456.32z"/>
					</g>
					<g>
						<path class="st4" d="M337.71,452.8c1.5,0.56,3,1.11,4.5,1.67c0.6,0.22,0.87-0.74,0.27-0.96c-1.5-0.56-3-1.11-4.5-1.67
							C337.37,451.61,337.11,452.58,337.71,452.8L337.71,452.8z"/>
					</g>
					<g>
						<path class="st4" d="M418.14,453.16c1.26-0.42,2.54-0.71,3.86-0.85c0.63-0.07,0.64-1.07,0-1c-1.41,0.15-2.78,0.44-4.13,0.89
							C417.26,452.4,417.52,453.36,418.14,453.16L418.14,453.16z"/>
					</g>
					<g>
						<path class="st4" d="M420.12,449.12c0.93-0.34,1.89-0.55,2.88-0.6c0.64-0.04,0.64-1.04,0-1c-1.08,0.06-2.13,0.27-3.15,0.64
							C419.26,448.37,419.51,449.34,420.12,449.12L420.12,449.12z"/>
					</g>
					<g>
						<path class="st4" d="M420.63,445.49c1.22-0.28,2.44-0.55,3.67-0.83c0.63-0.14,0.36-1.11-0.27-0.96
							c-1.22,0.28-2.44,0.55-3.67,0.83C419.74,444.66,420.01,445.63,420.63,445.49L420.63,445.49z"/>
					</g>
				</g>
				<g>
					<g>
						<path class="st5" d="M298.88,220.62c0.2-0.86,0.31-4.17-0.36-4.74c-0.46-0.4-0.56-0.19-1.13-0.4
							c-1.45-0.52-1.41-0.48-1.13-1.99c0.28-1.51,0.3-2.46-2.55-4.62c-2.07-0.87-3.82,1.12-3.82,1.12c-2.12-0.63-4.12,1.5-4.12,1.5
							c-1.8-0.35-3.34,0.98-3.43,2.11c-0.14,1.68-3.22,0.07-3.07,3.02c0.06,1.14,0.49,4.82,1.88,7.5c1.28,2.49,3.51,4.01,3.83,4.3
							c3.38,3.05,7.2,16.02,8.67,20.33c0.14,0.41,14.41-4.42,13.88-5.75c-2-5-9.22-12-9.12-17.5
							C298.4,223.91,298.54,222.04,298.88,220.62z"/>
						<g>
							<path class="st6" d="M294.91,214.27c-0.85,0.66-1.76,1.22-2.78,1.58c-0.54,0.19-1.18,0.24-1.7,0.5
								c-0.71,0.35-1.03,0.96-0.84,1.75c0.48,1.98,4,2.49,5.59,1.96c-0.21-0.21-0.41-0.41-0.62-0.62c-0.26,1.27-0.38,2.51-0.34,3.82
								c0.02,0.64,1.02,0.64,1,0c-0.04-1.21,0.05-2.36,0.3-3.55c0.07-0.35-0.23-0.75-0.62-0.62c-0.79,0.27-2.26,0.32-2.99-0.25
								c-1.08-1.16-1.11-1.78-0.08-1.85c0.28-0.08,0.55-0.17,0.82-0.28c1.09-0.42,2.04-1.02,2.95-1.74
								C296.12,214.58,295.41,213.88,294.91,214.27L294.91,214.27z"/>
						</g>
						<g>
							<path class="st6" d="M290.63,212c0.96,0.85,1.67,1.89,2.08,3.11c0.2,0.61,1.17,0.35,0.96-0.27
								c-0.46-1.38-1.25-2.59-2.34-3.55C290.85,210.87,290.14,211.57,290.63,212L290.63,212z"/>
						</g>
						<g>
							<path class="st6" d="M286.77,213.29c0.9,1.2,1.91,2.29,3.04,3.27c0.48,0.42,1.19-0.29,0.71-0.71
								c-1.07-0.92-2.04-1.94-2.88-3.07C287.25,212.28,286.38,212.78,286.77,213.29L286.77,213.29z"/>
						</g>
						<g>
							<path class="st6" d="M283.33,215.85c2.21,1.15,3.73,6.17,7,4.14c0.55-0.34,0.04-1.2-0.5-0.86c-1.66,1.03-2.96-0.89-3.79-2.05
								c-0.61-0.85-1.26-1.6-2.2-2.09C283.26,214.69,282.75,215.55,283.33,215.85L283.33,215.85z"/>
						</g>
						<g>
							<path class="st6" d="M280.98,219.11c1.56,0.8,1.85,3.2,3.81,3.46c1.7,0.23,2.48-1.5,2.87-2.83c0.18-0.62-0.78-0.88-0.96-0.27
								c-0.18,0.63-0.35,1.27-0.86,1.71c-1.04,0.92-1.91-0.12-2.46-0.93c-0.54-0.8-1.01-1.55-1.89-2.01
								C280.91,217.95,280.41,218.81,280.98,219.11L280.98,219.11z"/>
						</g>
					</g>
					<path class="st7" d="M316.71,221.4c0,13.18,0,24.14,0,30.6c-5.46-10.19-7.06-10.62-12.59-19.75c-0.38-0.63-2.34-0.53-2.75-1.25
						c-0.27-0.48-0.5-2.28-0.71-2.94c-1.05-1.88-14.62,1.8-14.62,3.04c0.26,0.84,0.88,2.49,1.15,3.32c0.25,0.77-0.64,2.95-0.37,3.71
						c4.66,13.56,10.56,23.83,17.43,31.89c8.82,10.35,20.56,10.81,23.31,8.85c3.5-2.5,11.69-11.02,14.44-28.36
						c1.83-11.57-3.89-20.35-5.74-29.1c-1.49-7.06-0.42-26.74-8.35-22.65C318.48,203.61,316.71,212.58,316.71,221.4z"/>
					<g>
						<path class="st8" d="M289.24,234.4c1.34-0.07,2.35-0.83,3.61-1.22c1.65-0.5,3.42-0.48,5.12-0.47c0.64,0,0.64-1,0-1
							c-1.42,0-2.85,0-4.25,0.24c-1.52,0.27-2.97,1.37-4.48,1.44C288.6,233.43,288.6,234.43,289.24,234.4L289.24,234.4z"/>
					</g>
					<g>
						<path class="st8" d="M317.55,254.32c1.82,2.33,1.55,5.48,2.35,8.19c0.18,0.62,1.15,0.35,0.96-0.27
							c-0.87-2.94-0.64-6.12-2.61-8.64C317.87,253.1,317.16,253.82,317.55,254.32L317.55,254.32z"/>
					</g>
					<g>
						<path class="st8" d="M318.73,252.96c2.77,1.9,4.88,4.47,6.25,7.53c0.26,0.59,1.12,0.08,0.86-0.5
							c-1.44-3.23-3.69-5.9-6.61-7.89C318.7,251.73,318.2,252.59,318.73,252.96L318.73,252.96z"/>
					</g>
				</g>
				<g>
					<path class="st7" d="M322.35,225.43c3.43,6.23,8.03,11.78,11.18,18.16c5.79,11.73,22.78,37.11,22.8,50.19
						c0,4.09,66.03-4.15,66-5.44c-0.71-27.65-9.7-70.41-25.67-93c-2.83-4-5.58-6.69-10.04-8.71c-6.43-2.9-18.6-1.55-20.9-1.07
						c-12.34,2.56-24.71,6.04-35.51,11.7C319.34,202.96,317.68,216.3,322.35,225.43z"/>
					<g>
						<g>
							<path class="st8" d="M349,203.38c6.63,0.27,13.12-6.51,16.14-11.76c0.32-0.56-0.54-1.06-0.86-0.5
								c-1.55,2.69-3.5,5.09-5.92,7.05c-2.5,2.04-6.02,4.35-9.36,4.21C348.36,202.35,348.36,203.35,349,203.38L349,203.38z"/>
						</g>
						<g>
							<path class="st8" d="M332.25,199.88c1.34,1.15,2.8,2.12,4.39,2.88c0.58,0.28,1.09-0.59,0.5-0.86
								c-1.52-0.73-2.92-1.63-4.19-2.73C332.47,198.75,331.76,199.46,332.25,199.88L332.25,199.88z"/>
						</g>
						<g>
							<path class="st8" d="M324.93,226.33c1.87,5.13,4.06,9.78,7.05,14.35c3.1,4.75,5.63,9.78,8.1,14.87
								c0.28,0.58,1.14,0.07,0.86-0.5c-2.33-4.82-4.69-9.62-7.61-14.12c-3.1-4.79-5.48-9.5-7.44-14.87
								C325.68,225.46,324.71,225.72,324.93,226.33L324.93,226.33z"/>
						</g>
						<g>
							<path class="st8" d="M359.54,272.08c5.3,2.43,10.63,4.69,16.55,4.82c6.31,0.14,12.47-1.61,18.48-3.32
								c0.62-0.18,0.36-1.14-0.27-0.96c-5.63,1.61-11.37,3.25-17.27,3.29c-6.12,0.05-11.53-2.18-17-4.69
								C359.47,270.95,358.96,271.82,359.54,272.08L359.54,272.08z"/>
						</g>
						<g>
							<path class="st8" d="M372,285.28c6.08,0.62,12-0.46,17.5-3.12c0.58-0.28,0.07-1.14-0.5-0.86c-5.33,2.58-11.1,3.58-16.99,2.98
								C371.36,284.22,371.36,285.22,372,285.28L372,285.28z"/>
						</g>
						<g>
							<path class="st8" d="M402.84,236.35c0.5-2.04,1.39-3.88,2.66-5.54c0.39-0.51-0.48-1.01-0.86-0.5
								c-1.32,1.73-2.24,3.67-2.76,5.78C401.72,236.71,402.68,236.98,402.84,236.35L402.84,236.35z"/>
						</g>
						<g>
							<path class="st8" d="M403.35,240.1c1.16-1.36,2.19-2.81,3.08-4.35c0.32-0.56-0.54-1.06-0.86-0.5
								c-0.85,1.47-1.82,2.86-2.92,4.15C402.23,239.88,402.93,240.59,403.35,240.1L403.35,240.1z"/>
						</g>
					</g>
				</g>
				<g>
					<path class="st9" d="M347.44,200.06c-7.28,2.33-14.2-4.01-13.94-4.39c0,0,3.36-1.61,3.5-3.33c0.19-2.35-4.7-7.17-4.89-9.53
						c-0.43-5.39,12.71-23.33,16.35-18.88c2.94,3.59,12.87,19.47,16.55,21.49C367.33,185.88,357,197,347.44,200.06z"/>
					<path class="st5" d="M324.04,185.95c3.24,3.54,7.25,6.9,12.04,7.23c2.67,0.18,4.75,0.31,6.92-1.19
						c3.16-2.18,4.45-7.11,5.72-10.79c2.75-7.95,0.5-12.86-2.47-18.71c-2.08-4.1-4.63-7.96-7.57-11.49
						c-0.74-0.89-1.53-1.78-2.52-2.37c-1.18-0.71-2.58-0.96-3.96-1.04c-5.6-0.32-11.29,2.21-14.8,6.58
						C309.01,164.6,316.38,177.59,324.04,185.95z"/>
					<path class="st10" d="M315.33,161.5c0.42-4.9,5.64-3.97,6.67-2.5c1.31-2.22,6.31-7.16,11-1.66c4.55,5.34,6.64,7.5,13.25,5.16
						c0.38,1.13,3.37,0.61,3.75,1.74c2.07-2.86,2.58-8.54,0.31-11.24c1.91-1.29,1.17-2.5,1.17-2.5c-1.98-8-12.73-13.6-17.29-13.36
						c-7.03,0.36-12.52,2.86-14.19,8.03c-9.02-3.83-15.35,7.07-14.17,15.33c0.62,4.37,2.78,12.67,7.17,12.67
						C318.05,173.17,314.9,166.56,315.33,161.5z"/>
					<path class="st5" d="M352.07,161.54c-0.48-1.34-1.21-2.65-2.38-3.47c-1.17-0.82-2.83-1.03-4.01-0.23
						c-1.75,1.2-1.6,3.79-1.26,5.88c0,0,3.27,7.08,5.12,7.38c1.85,0.3,3.1,0.02,3.24-3.48
						C353.01,165.59,352.76,163.49,352.07,161.54z"/>
					<g>
						<path class="st6" d="M326.47,172.37c1.59,2.34,1.21,5.1,1.28,7.78c0.01,0.33,0.31,0.56,0.63,0.48
							c1.02-0.24,1.89-0.91,2.91-1.15c0.63-0.15,0.36-1.11-0.27-0.96c-1.02,0.24-1.89,0.91-2.91,1.15c0.21,0.16,0.42,0.32,0.63,0.48
							c-0.07-2.87,0.28-5.79-1.42-8.28C326.97,171.34,326.1,171.84,326.47,172.37L326.47,172.37z"/>
					</g>
					<g>
						<path class="st11" d="M328.59,182.91c0.08,0.42,0.17,0.84,0.25,1.25c0,0.4,0.42,0.6,0.75,0.43c3.59-1.75,6.32-4.62,7.88-8.3
							c-0.23,0.06-0.46,0.12-0.68,0.18c4.02,3.04,3.11,8.82-1.44,10.75c-0.59,0.25-0.08,1.11,0.5,0.86
							c5.33-2.26,5.98-9.04,1.44-12.48c-0.2-0.15-0.59-0.05-0.68,0.18c-1.51,3.55-4.06,6.25-7.53,7.94c0.25,0.14,0.5,0.29,0.75,0.43
							c-0.01-0.91,0.04-0.68-0.29-1.52C329.32,182.06,328.35,182.32,328.59,182.91L328.59,182.91z"/>
					</g>
					<g>
						<path class="st11" d="M321.27,175.2c-0.19-1.5,1.77-1.47,2.77-1.41c0.64,0.04,0.64-0.96,0-1c-0.93-0.06-1.94-0.09-2.75,0.43
							c-0.66,0.43-1.11,1.17-1.01,1.97C320.35,175.83,321.35,175.84,321.27,175.2L321.27,175.2z"/>
					</g>
					<g>
						<path class="st11" d="M330.62,170.96c0.26-1.85,2.05-3.25,3.92-2.87c0.63,0.13,0.9-0.84,0.27-0.96
							c-2.36-0.48-4.82,1.14-5.15,3.57C329.57,171.33,330.54,171.6,330.62,170.96L330.62,170.96z"/>
					</g>
					<g>
						<path class="st10" d="M317.19,170.46c0.13-0.8,1.51-0.92,2.13-1.02c0.89-0.15,1.78-0.16,2.68-0.1c0.64,0.04,0.64-0.96,0-1
							c-1.5-0.1-5.43-0.22-5.77,1.85C316.12,170.83,317.09,171.1,317.19,170.46L317.19,170.46z"/>
					</g>
					<g>
						<path class="st10" d="M328.05,166.62c0.32-2.16,1.71-3.98,3.77-4.76c0.6-0.23,0.34-1.19-0.27-0.96
							c-2.37,0.89-4.09,2.94-4.47,5.46C326.99,166.98,327.95,167.26,328.05,166.62L328.05,166.62z"/>
					</g>
					<path class="st11" d="M332.11,182.81c0,0,4.66,1.78,5.61,3.57c0,0,6.23-5.1-0.68-10.33
						C337.04,176.05,335.56,179.95,332.11,182.81z"/>
					<g>
						<path class="st6" d="M347.05,163c-0.02-0.25-0.28-1.44-0.09-1.65c1.07-1.18,1.86,1.65,2,2c0.64,1.63,1.76,4.2,0.14,5.56
							c-0.49,0.41,0.22,1.12,0.71,0.71c1.13-0.94,1.3-2.26,1.02-3.65c-0.35-1.75-1.05-4.05-2.13-5.51
							c-0.47-0.63-1.16-1.11-1.93-0.71c-1.11,0.58-0.78,2.29-0.71,3.27C346.09,163.64,347.09,163.64,347.05,163L347.05,163z"/>
					</g>
					<g>
						<path class="st12" d="M322.46,154.38c1.31-2.79,4.88-4.2,7.76-3.97c1.7,0.14,3.19,0.19,4.65,1.26
							c1.03,0.75,1.93,1.87,2.8,2.78c0.45,0.46,1.15-0.24,0.71-0.71c-1.27-1.32-2.79-3.43-4.57-4.08c-1.28-0.47-3.07-0.26-4.42-0.33
							c-2.94-0.14-6.52,1.84-7.79,4.54C321.33,154.46,322.19,154.97,322.46,154.38L322.46,154.38z"/>
					</g>
					<g>
						<path class="st12" d="M322.77,148.32c4.12-5.32,11.31-4.59,15.96-0.41c0.48,0.43,1.19-0.28,0.71-0.71
							c-5.02-4.51-12.9-5.37-17.37,0.41C321.67,148.11,322.38,148.83,322.77,148.32L322.77,148.32z"/>
					</g>
					<g>
						<path class="st12" d="M326.76,142.06c5.01-2.33,10.54-1.28,14.37,2.68c0.45,0.46,1.15-0.24,0.71-0.71
							c-4.15-4.3-10.18-5.35-15.58-2.84C325.67,141.47,326.18,142.33,326.76,142.06L326.76,142.06z"/>
					</g>
					<g>
						<path class="st12" d="M311.64,164.73c-1.27-3.58,0.37-9.42,4.86-9.7c0.64-0.04,0.64-1.04,0-1c-5.11,0.31-7.33,6.7-5.82,10.96
							C310.89,165.6,311.86,165.34,311.64,164.73L311.64,164.73z"/>
					</g>
					<g>
						<path class="st12" d="M309.36,154.96c1.58-2.48,4.52-3.64,7.37-2.91c0.62,0.16,0.89-0.8,0.27-0.96
							c-3.28-0.84-6.68,0.51-8.5,3.37C308.15,155,309.01,155.5,309.36,154.96L309.36,154.96z"/>
					</g>
					<g>
						<path class="st12" d="M313.14,148.88c1.59-0.58,3.24-0.51,4.75,0.27c0.57,0.29,1.08-0.57,0.5-0.86
							c-1.74-0.9-3.68-1.05-5.52-0.37C312.28,148.13,312.53,149.1,313.14,148.88L313.14,148.88z"/>
					</g>
				</g>
				<g>
					<g>
						<path class="st5" d="M348.03,212.34c-0.34-1.49-0.84-5.32-1.88-6.44c-1.04-1.12-2.98-1.57-4.09-0.52
							c-0.32,0.3-1.44-3.06-3.97-2.24c-1.88,0.62-1.19,1.94-1.88,2.49c0,0-3.79-1.25-3.79,1.62c0,0-3.67-0.38-3.38,2.38
							c0,0-2.17,0.38-2.13,2.75c0.05,2.79,1.75,5.64,3.24,8c0.59,0.93,5.9,3.25,7.2,4.24c2.59,1.98,4.73,5.44,6.97,8.98
							c0.19,0.31,0.41,0.63,0.75,0.76c0.44,0.17,0.93-0.06,1.34-0.28c2.38-1.27,4.77-2.55,7.15-3.82c0.4-0.22,0.84-0.47,1-0.9
							c0.21-0.58-0.18-1.19-0.55-1.69C350.54,223.03,348.03,218.31,348.03,212.34z"/>
						<g>
							<path class="st6" d="M328.64,211.01c0.16,1.31,0.51,2.54,1.07,3.73c0.27,0.58,1.14,0.07,0.86-0.5
								c-0.48-1.02-0.8-2.1-0.94-3.22C329.57,210.38,328.56,210.37,328.64,211.01L328.64,211.01z"/>
						</g>
						<g>
							<path class="st6" d="M332.06,208.75c0.48,1.13,0.84,2.3,1.09,3.5c0.13,0.63,1.1,0.36,0.96-0.27
								c-0.27-1.29-0.67-2.53-1.19-3.74C332.68,207.66,331.82,208.17,332.06,208.75L332.06,208.75z"/>
						</g>
						<g>
							<path class="st6" d="M336.43,206.74c0.4,1.13,0.79,2.26,1.19,3.4c0.21,0.6,1.18,0.34,0.96-0.27c-0.4-1.13-0.79-2.26-1.19-3.4
								C337.18,205.88,336.22,206.13,336.43,206.74L336.43,206.74z"/>
						</g>
						<g>
							<path class="st6" d="M341.81,207.01c0.36,0.78,1.09,1.34,1.93,1.48c0.63,0.1,0.9-0.86,0.27-0.96
								c-0.62-0.1-1.07-0.44-1.34-1.02C342.4,205.92,341.54,206.42,341.81,207.01L341.81,207.01z"/>
						</g>
					</g>
					<path class="st7" d="M373.75,242.5c-5.43-4.26-20.68-21.01-22.33-21.94c-3.59-2.02-12.83,4.4-13.28,5.36
						c-0.97,2.06,12.08,29.46,22.2,37.58c5.7,4.57,14.36,11.05,19.17,9.75c12-3.25,17.36-25.25,19.25-32.85
						c3.56-14.29,5.85-32.66-2.08-45.07c-5.9-9.23-19.85-15.09-24.67-2.12C366.82,207.17,374.75,228.31,373.75,242.5z"/>
					<g>
						<path class="st8" d="M349.72,220.81c0.95,0.57,1.99,1.85,3.01,2.18c0.51,0.16,1.18,0.01,1.72,0.07
							c3.19,0.37,5.81,4.83,7.64,7.18c2.03,2.61,3.98,5.29,6.06,7.86c1.29,1.6,3.18,4.75,5.42,4.92c0.2,0.01,0.45-0.16,0.48-0.37
							c0.54-3.61-0.14-7.17-0.43-10.77c-0.3-3.79-0.39-7.6-0.71-11.39c-0.54-6.32-1.49-12.66-0.66-19c0.08-0.64-0.92-0.63-1,0
							c-0.83,6.34,0.12,12.68,0.66,19c0.31,3.64,0.4,7.29,0.67,10.93c0.14,1.87,0.39,3.73,0.56,5.6c0.07,0.81,0.35,1.95,0.16,2.76
							c0.24,0.83-0.09,1.33-0.99,1.51c-0.23-0.23-0.46-0.46-0.68-0.69c-2.46-2.01-4.39-5.23-6.29-7.73
							c-1.77-2.33-3.52-4.67-5.42-6.89c-1.37-1.61-2.63-3.47-4.82-3.83c-0.61-0.1-1.6,0.08-2.16-0.14c-0.85-0.33-1.9-1.57-2.73-2.06
							C349.67,219.62,349.16,220.48,349.72,220.81L349.72,220.81z"/>
					</g>
					<g>
						<path class="st8" d="M337.62,226.65c0.44,1.25,1.13,2.54,1.12,3.82c-0.01,1.1-0.37,2.05-0.05,3.16
							c1.27,4.41,4.72,8.66,7.45,12.25c5.25,6.9,10.34,14.12,17.24,19.49c3.36,2.62,7.09,4.86,11.09,6.35
							c4.19,1.56,6.85,0.57,10.09-2.28c7.33-6.45,11.2-14.72,13.72-24.03c2.94-10.84,3.77-22.12,4.23-33.29c0.03-0.64-0.97-0.64-1,0
							c-0.37,9.03-0.99,18.09-2.78,26.97c-1.74,8.67-4.38,17.96-10.17,24.85c-2.93,3.48-7.21,8.61-12.22,7.37
							c-3.99-0.99-7.91-3.43-11.2-5.84c-6.69-4.89-11.41-11.47-16.46-17.91c-2.98-3.8-5.89-7.7-8.04-12.04
							c-0.57-1.15-1.12-2.3-1.11-3.6c0-0.59,0.33-1.23,0.3-1.81c-0.07-1.22-0.84-2.57-1.25-3.72
							C338.37,225.78,337.41,226.04,337.62,226.65L337.62,226.65z"/>
					</g>
					<g>
						<path class="st8" d="M342.02,229.11c1.73-2.33,4.92-3.77,7.56-4.75c0.6-0.22,0.34-1.19-0.27-0.96
							c-2.95,1.09-6.23,2.62-8.16,5.21C340.78,229.12,341.64,229.62,342.02,229.11L342.02,229.11z"/>
					</g>
					<g>
						<path class="st8" d="M373.93,244.67c3.55,3.09,5.02,7.38,6.1,11.83c0.15,0.63,1.12,0.36,0.96-0.27
							c-1.12-4.6-2.69-9.08-6.36-12.27C374.16,243.54,373.45,244.25,373.93,244.67L373.93,244.67z"/>
					</g>
					<g>
						<path class="st8" d="M375.97,243.73c2.97,1.52,5.28,3.88,6.73,6.89c0.28,0.58,1.14,0.07,0.86-0.5
							c-1.52-3.14-3.98-5.66-7.09-7.25C375.91,242.58,375.4,243.44,375.97,243.73L375.97,243.73z"/>
					</g>
					<g>
						<path class="st8" d="M365.42,206.91c1.28,4.77,2.65,9.51,4.11,14.22c0.19,0.61,1.16,0.35,0.96-0.27
							c-1.46-4.71-2.83-9.45-4.11-14.22C366.22,206.02,365.26,206.28,365.42,206.91L365.42,206.91z"/>
					</g>
				</g>
			</g>
		</g>
		<g>
			<ellipse class="st0" cx="149.43" cy="464.08" rx="63.68" ry="16.26"/>
			<g>
				<g>
					<path class="st13" d="M124.25,357c-3.53,13.06-5.26,67.61-5.96,93.07c1.73,4.12,8.1,4.15,11.37,1.1
						c3.27-3.05,5.02-5.53,5.84-9.92c5.82-31.27,11.46-44.07,17-80.25c1.65-10.8,3.67-45.55,5.16-67.63
						c4.55,17.69,19.53,59.74,17.34,65.67c-1.67,4.51-5,39.95-6.5,75.45c-0.13,2.98,0.5,8.17,1.52,10.97
						c1.03,2.8,4.55,4.89,7.07,3.3c1-0.63,1.63-1.68,2.22-2.7c13.69-23.87,23.43-69.85,23.43-91.07c0-17.11-6.28-64.81-14.72-91
						c-1.65-5.12-23.19-12.06-38.03-11c-9.6,0.69-35.11,6.38-35.05,16.33C115.11,295.5,126.75,347.75,124.25,357z"/>
					<path class="st10" d="M140.26,469.78c1.62-0.16,3.59-0.8,3.83-2.41c0.17-1.14-0.69-2.19-1.65-2.84
						c-1.53-1.02-5.38-2.4-7.08-3.12c-5.56-2.35,3.85-25.39,3.63-31.1c-1.96-5.16-22.06-6.21-21.67-1.97
						c1,10.67,1.61,27.5,0.79,31.49c-1.32,6.41-1.27,6.18,5.07,7.88C128.76,469.2,134.47,470.35,140.26,469.78z"/>
					<path class="st10" d="M165.49,456.35c-0.19,0.49-0.38,1.02-0.26,1.54c0.1,0.45,0.43,0.81,0.75,1.14
						c4.8,4.91,12.61,7.78,19.48,7.79c0.64,0,1.33-0.04,1.85-0.4c0.92-0.65,0.95-2.07,0.41-3.05c-0.54-0.99-6.76-6.3-7.62-7.03
						c-4.27-3.63,8.24-23.28,8.63-28.87c-0.71-1.75-15.05-6.94-20.79-3.65C166.6,429.97,167.14,452.02,165.49,456.35z"/>
					<g>
						<path class="st14" d="M159.14,291.14c3.6-3.59,6.99-7.36,10.16-11.32c0.4-0.5-0.3-1.21-0.71-0.71
							c-3.18,3.96-6.56,7.74-10.16,11.32C157.97,290.88,158.68,291.59,159.14,291.14L159.14,291.14z"/>
					</g>
					<g>
						<path class="st14" d="M147.25,290.22c3.27,0.38,6.35,1.38,9.24,2.97c0.56,0.31,1.07-0.55,0.5-0.86
							c-3.04-1.68-6.29-2.7-9.74-3.11C146.61,289.15,146.62,290.15,147.25,290.22L147.25,290.22z"/>
					</g>
					<g>
						<path class="st14" d="M148.75,294.96c2.08-0.24,4.16-0.31,6.25-0.2c0.64,0.03,0.64-0.97,0-1c-2.09-0.11-4.17-0.05-6.25,0.2
							C148.11,294.04,148.11,295.04,148.75,294.96L148.75,294.96z"/>
					</g>
					<g>
						<path class="st14" d="M161.25,292.73c1.08-0.09,2.17-0.17,3.25-0.26c0.64-0.05,0.64-1.05,0-1c-1.08,0.09-2.17,0.17-3.25,0.26
							C160.61,291.78,160.61,292.78,161.25,292.73L161.25,292.73z"/>
					</g>
					<g>
						<path class="st14" d="M127.25,356.68c1.48,0.71,3.01,1.24,4.62,1.56c0.63,0.13,0.9-0.84,0.27-0.96
							c-1.52-0.3-2.98-0.78-4.38-1.46C127.18,355.54,126.67,356.4,127.25,356.68L127.25,356.68z"/>
					</g>
					<g>
						<path class="st14" d="M127.87,360.98c1.5,0.58,3,1.17,4.5,1.75c0.6,0.23,0.86-0.73,0.27-0.96c-1.5-0.58-3-1.17-4.5-1.75
							C127.53,359.78,127.27,360.75,127.87,360.98L127.87,360.98z"/>
					</g>
					<g>
						<path class="st14" d="M178.75,357c1.25,0,2.5,0,3.75,0c0.64,0,0.64-1,0-1c-1.25,0-2.5,0-3.75,0
							C178.11,356,178.11,357,178.75,357L178.75,357z"/>
					</g>
					<g>
						<path class="st14" d="M180.12,359.96c1.25,0.17,2.5,0.34,3.75,0.51c0.63,0.09,0.9-0.88,0.27-0.96
							c-1.25-0.17-2.5-0.34-3.75-0.51C179.76,358.91,179.48,359.88,180.12,359.96L180.12,359.96z"/>
					</g>
					<g>
						<path class="st12" d="M126.63,461.48c1.26-0.42,2.55-0.69,3.87-0.81c0.64-0.06,0.64-1.06,0-1c-1.41,0.13-2.79,0.4-4.13,0.85
							C125.76,460.72,126.02,461.68,126.63,461.48L126.63,461.48z"/>
					</g>
					<g>
						<path class="st12" d="M128.95,464.29c0.98-0.4,1.99-0.6,3.05-0.6c0.64,0,0.64-1,0-1c-1.14,0-2.25,0.21-3.31,0.64
							C128.1,463.56,128.36,464.53,128.95,464.29L128.95,464.29z"/>
					</g>
					<g>
						<path class="st12" d="M127,457.14c1.22,0.12,2.44,0.25,3.66,0.37c0.64,0.07,0.64-0.94,0-1c-1.22-0.12-2.44-0.25-3.66-0.37
							C126.36,456.07,126.37,457.07,127,457.14L127,457.14z"/>
					</g>
					<g>
						<path class="st12" d="M173.12,453.55c0.81-0.12,1.63-0.11,2.43,0.01c0.63,0.1,0.9-0.87,0.27-0.96c-1-0.15-1.96-0.16-2.96-0.01
							C172.22,452.68,172.49,453.64,173.12,453.55L173.12,453.55z"/>
					</g>
					<g>
						<path class="st12" d="M174.33,456.67c1,0,2,0,3,0c0.64,0,0.64-1,0-1c-1,0-2,0-3,0C173.69,455.67,173.69,456.67,174.33,456.67
							L174.33,456.67z"/>
					</g>
					<g>
						<path class="st12" d="M176.96,459.3c0.78-0.17,1.56-0.33,2.33-0.5c0.63-0.14,0.36-1.1-0.27-0.96
							c-0.78,0.17-1.56,0.33-2.33,0.5C176.07,458.47,176.33,459.43,176.96,459.3L176.96,459.3z"/>
					</g>
				</g>
				<g>
					<path class="st1" d="M108.68,133.37c-6.13,3.68-11.74,8.56-15.13,14.86s-4.29,14.18-1.24,20.65c1.31,2.78,3.34,5.54,2.9,8.57
						c-0.6,4.07-5.12,6.04-8.36,8.56c-9.12,7.09-9.16,21.36-4.05,31.72c3.86,7.83,11.13,14.91,19.86,14.95
						c7.31,0.04,15.12-4.72,21.46-1.09c1.92,1.1,3.38,2.85,5.16,4.17c5.52,4.1,13.72,3.35,19.24-0.74
						c5.52-4.1,8.56-10.92,9.32-17.76c0.69-6.25-0.25-12.96,2.75-18.49c1.65-3.05,4.36-5.43,5.89-8.54
						c4.64-9.48-3.37-21.16-0.02-31.17c0.79-2.35,2.19-4.57,2.18-7.05c-0.02-4.74-5.06-7.97-6.26-12.55
						c-1.34-5.15,2.45-10.2,2.93-15.5c0.61-6.81-1.96-18.3-13.94-18.47c0,0-4.14-3.97-6.89-4.6c-12.45-2.83-25.81,9.23-27.79,12.26
						c-1.7,2.62-3.64,6.48-3.84,9.67C112.37,130.18,110.67,132.17,108.68,133.37z"/>
					<g>
						<path class="st4" d="M96.88,182.24c-0.63,3.94-4.88,6.81-7.04,10.04c-1.99,2.97-3.67,6.39-4.32,9.93
							c-1.42,7.77,3.52,14.21,8.17,19.85c0.41,0.5,1.11-0.21,0.71-0.71c-5.31-6.42-10.17-13.45-7.03-22.08
							c1.29-3.53,3.3-6.82,5.77-9.65c1.93-2.2,4.21-4.08,4.7-7.12C97.95,181.88,96.99,181.61,96.88,182.24L96.88,182.24z"/>
					</g>
					<g>
						<path class="st4" d="M103.4,221.36c-3.54-3.66-7.14-7.58-7.77-12.86c-0.65-5.43,1.49-10.59,3.76-15.39
							c0.27-0.58-0.59-1.09-0.86-0.5c-2.36,5-4.58,10.38-3.9,16.03c0.66,5.49,4.38,9.62,8.07,13.43
							C103.14,222.53,103.85,221.82,103.4,221.36L103.4,221.36z"/>
					</g>
					<g>
						<path class="st4" d="M110.87,220.5c-5.06-4.9-6.8-12.27-4.51-18.91c0.21-0.61-0.76-0.87-0.96-0.27
							c-2.41,6.97-0.53,14.76,4.77,19.89C110.63,221.66,111.33,220.95,110.87,220.5L110.87,220.5z"/>
					</g>
					<g>
						<path class="st4" d="M111.37,208.13c0.15,4.02,1.53,7.69,4.05,10.84c0.4,0.5,1.11-0.21,0.71-0.71
							c-2.34-2.93-3.61-6.38-3.76-10.13C112.34,207.48,111.34,207.48,111.37,208.13L111.37,208.13z"/>
					</g>
				</g>
				<g>
					<path class="st15" d="M109.83,185.86c0.37,4.54,4.56,11.55,8.8,19.77c3.96,7.68,6.43,18.63,6.79,22.87
						c0.47,5.5-9.68,22.05-10.48,40.83c22.88-2.23,72-3.54,73.08-5.34c0.74-1.24-11.26-37.45-11.99-40.73
						c-1.27-5.77-2.21-19.77-2.21-19.77c2.67-1.05,6.98-5.71,6.5-11.84c-0.6-7.61-9.67-15.55-8.76-30.17
						c0.13-2.01-8.04-2.43-10.4-1.74c-3.09,0.91-11.79,3.16-18.43,3.24c-7.46,0.1-22.34-2.45-22.34-2.45
						C108.87,163.55,108.49,169.22,109.83,185.86z"/>
					<g>
						<path class="st16" d="M127.16,203.59c6.19,6.29,22.88,7,23.71-4.34c0.05-0.64-0.95-0.64-1,0c-0.77,10.41-16.5,9.23-22.01,3.64
							C127.41,202.43,126.7,203.13,127.16,203.59L127.16,203.59z"/>
					</g>
					<g>
						<path class="st16" d="M158.51,200.41c3.61,2.13,7.51,3.32,11.7,3.15c0.64-0.03,0.64-1.03,0-1c-4.02,0.16-7.72-0.97-11.2-3.01
							C158.46,199.22,157.95,200.09,158.51,200.41L158.51,200.41z"/>
					</g>
					<g>
						<path class="st16" d="M139.25,225.58c6.76-0.07,13.27-1.76,19.2-4.98c0.57-0.31,0.06-1.17-0.5-0.86
							c-5.79,3.14-12.11,4.78-18.7,4.85C138.61,224.58,138.61,225.58,139.25,225.58L139.25,225.58z"/>
					</g>
					<g>
						<path class="st16" d="M142.42,236.33c4.99-2.01,9.67-4.56,14.05-7.69c0.52-0.37,0.02-1.24-0.5-0.86
							c-4.3,3.08-8.9,5.62-13.81,7.59C141.57,235.6,141.82,236.57,142.42,236.33L142.42,236.33z"/>
					</g>
					<g>
						<path class="st16" d="M148.1,246.1c3.09-2.66,6.01-5.49,8.75-8.5c0.43-0.47-0.27-1.18-0.71-0.71
							c-2.74,3.01-5.66,5.84-8.75,8.5C146.91,245.82,147.62,246.52,148.1,246.1L148.1,246.1z"/>
					</g>
				</g>
				<g>
					<path class="st9" d="M128.33,158.82c-1.08,1.54-4.39,1.9-7.92,1.73c7.41,10.66,22.96,14.68,34.61,8.94
						c3.15-1.55,6.52-6.26,6.16-9.73c0,0-5.85-0.09-9.01-0.94c-3.24-1.48-2.58-8.57-3.61-12.46c-0.09-0.35-0.2-0.72-0.48-0.96
						c-0.34-0.3-0.85-0.31-1.31-0.31c-5.4,0.07-13.24-4.43-18.61-4.07C129.19,146.67,129.91,156.55,128.33,158.82z"/>
					<path class="st5" d="M128.17,141.02c1.35,3.67,3.73,7.3,6.45,10.11c2.72,2.81,8.57,5.51,12.42,4.81
						c3.84-0.7,5.05-4.68,6.66-8.23c1.61-3.56,2-7.53,2.22-11.43c0.28-4.99,0.33-9.98,0.16-14.97c-0.07-1.96-0.19-3.97-0.93-5.78
						c-0.71-1.72-1.95-3.17-3.37-4.37c-4.51-3.83-11.11-5.16-16.65-3.07C121.53,113.21,124.31,130.5,128.17,141.02z"/>
					<path class="st1" d="M149.26,114.83c-0.12,5.53,1.29,9.83,4.81,14.39c1.05,1.35,4.51,3.47,5.81,2.35
						c0.36-4.59,3.1-7.58,0.04-14.7c-3.75-8.75-9.09-10.35-10.47-11.15c-3.85-2.22-16.61-0.51-24.36,5.94
						c-5.64,4.69-10.62,24.09-1.09,22.33c3.43-0.63,8.42-10.81,12.12-12.06C140.12,120.58,148.83,120.85,149.26,114.83z"/>
					<path class="st5" d="M129.43,139.36l-0.26-1.79c-1.21-2.66-0.3-4.29-2.87-5.68c-2.3-1.25-4.3,0.21-4.51,0.42
						c-2.29,2.44-0.69,7.85,2.38,9.99c1.22,0.85,2.85,1.33,4.21,0.73C129.75,142.43,130.45,140.44,129.43,139.36z"/>
					<g>
						<path class="st6" d="M143.86,132.15c-0.35,1.46-0.13,2.93,0.81,4.13c0.28,0.35,0.65,0.63,0.92,0.98
							c0.37,0.34,0.54,0.79,0.51,1.37c-0.16,0.1-0.32,0.18-0.49,0.24c-0.47,0.34-1.18,0.41-1.69,0.72c-0.55,0.33-0.05,1.2,0.5,0.86
							c0.89-0.53,2.63-0.64,2.83-1.9c0.11-0.7-0.39-1.35-0.81-1.84c-1.15-1.34-2.09-2.39-1.63-4.3
							C144.97,131.79,144.01,131.52,143.86,132.15L143.86,132.15z"/>
					</g>
					<g>
						<path class="st11" d="M136.54,134.18c0.77-1.25,2.59-1.64,3.77-0.73c0.5,0.39,1.21-0.31,0.71-0.71
							c-1.69-1.31-4.21-0.92-5.34,0.93C135.34,134.22,136.21,134.72,136.54,134.18L136.54,134.18z"/>
					</g>
					<g>
						<path class="st11" d="M149.28,132.54c0.7-0.77,1.91-0.69,2.54,0.12c0.4,0.51,1.1-0.21,0.71-0.71
							c-0.95-1.22-2.92-1.25-3.95-0.12C148.14,132.31,148.85,133.02,149.28,132.54L149.28,132.54z"/>
					</g>
					<g>
						<path class="st1" d="M133.92,129.25c1.03-2.04,4.33-2.48,6.28-1.77c0.6,0.22,0.87-0.74,0.27-0.96
							c-2.35-0.87-6.19-0.2-7.41,2.23C132.77,129.32,133.63,129.82,133.92,129.25L133.92,129.25z"/>
					</g>
					<g>
						<path class="st1" d="M148.53,126.73c1.61-0.73,4.39-0.05,5.46,1.36c0.39,0.5,1.25,0.01,0.86-0.5
							c-1.44-1.89-4.66-2.7-6.83-1.72C147.44,126.13,147.94,126.99,148.53,126.73L148.53,126.73z"/>
					</g>
					<g>
						<path class="st11" d="M148.04,141.53c0.13,0.73,0.37,1.2,0.79,1.79c0.1-0.24,0.2-0.49,0.3-0.73
							c-2.78,0.66-5.56,0.86-8.41,0.62c-0.27-0.02-0.49,0.25-0.5,0.5c-0.11,3.97,3.07,7.01,7.04,6.68c0.64-0.05,0.64-1.05,0-1
							c-3.44,0.29-6.13-2.21-6.04-5.68c-0.17,0.17-0.33,0.33-0.5,0.5c2.93,0.25,5.81,0.02,8.67-0.66c0.29-0.07,0.49-0.47,0.3-0.73
							c-0.36-0.51-0.58-0.94-0.69-1.55C148.89,140.63,147.92,140.9,148.04,141.53L148.04,141.53z"/>
					</g>
					<path class="st11" d="M147.03,143.52c0,0-1.06,3.39-0.27,6.31c0,0-6.18-0.58-6.04-6.12
						C140.72,143.71,144.8,143.97,147.03,143.52z"/>
					<g>
						<path class="st6" d="M125.27,133.73c-2.01-1.04-2.82,1.79-2.46,3.26c0.44,1.8,2.14,4.42,4.3,3.78
							c0.62-0.18,0.35-1.15-0.27-0.96c-1.23,0.36-2.14-1.03-2.62-1.94c-0.24-0.46-0.43-0.93-0.5-1.45
							c-0.05-0.39-0.02-2.37,1.04-1.82C125.34,134.89,125.85,134.03,125.27,133.73L125.27,133.73z"/>
					</g>
					<g>
						<path class="st6" d="M133,165.64c3.5-0.34,7.25-0.63,10.11,1.83c0.49,0.42,1.2-0.29,0.71-0.71c-3.08-2.66-6.98-2.5-10.81-2.12
							C132.36,164.7,132.35,165.7,133,165.64L133,165.64z"/>
					</g>
					<g>
						<path class="st6" d="M147.74,166.76c-0.1-1.24,2.42-1.92,3.25-2.29c1.17-0.52,2.33-1.05,3.5-1.57
							c0.59-0.26,0.08-1.12-0.5-0.86c-1.83,0.82-3.71,1.57-5.5,2.46c-0.94,0.47-1.84,1.1-1.75,2.26
							C146.79,167.4,147.79,167.41,147.74,166.76L147.74,166.76z"/>
					</g>
					<g>
						<path class="st4" d="M125.94,127.83c1.59-3.86,3.53-8.24,8.02-9.28c3.78-0.87,6.82-1.35,10.01-3.76
							c0.51-0.38,0.01-1.25-0.5-0.86c-2.03,1.53-4.27,2.66-6.77,3.18c-2.06,0.43-3.99,0.47-5.8,1.65c-3.09,2.02-4.56,5.51-5.91,8.8
							C124.73,128.16,125.7,128.42,125.94,127.83L125.94,127.83z"/>
					</g>
					<g>
						<path class="st4" d="M122.07,125.04c1.95-5.14,4.2-9.24,9.56-11.28c3.48-1.32,7.08-2.06,10-4.5c0.49-0.41-0.22-1.12-0.71-0.71
							c-3.74,3.13-8.85,3.29-12.91,5.83c-3.73,2.34-5.41,6.45-6.91,10.39C120.88,125.38,121.84,125.64,122.07,125.04L122.07,125.04z
							"/>
					</g>
					<g>
						<path class="st4" d="M119.5,121.75c0.62-5.06,3.53-9.64,7.85-12.37c1.9-1.2,3.95-1.76,6.09-2.35
							c1.59-0.44,2.88-1.04,3.83-2.42c0.36-0.53-0.5-1.03-0.86-0.5c-1.49,2.18-4.78,2.18-7.04,3.11c-2.01,0.83-3.85,2.07-5.42,3.57
							c-3.06,2.93-4.93,6.78-5.44,10.96C118.43,122.39,119.43,122.38,119.5,121.75L119.5,121.75z"/>
					</g>
					<g>
						<path class="st4" d="M151.9,116.12c0.58,4.43,3.08,8.21,6.98,10.43c0.56,0.32,1.06-0.55,0.5-0.86
							c-3.56-2.02-5.95-5.5-6.48-9.57C152.82,115.49,151.82,115.49,151.9,116.12L151.9,116.12z"/>
					</g>
					<g>
						<path class="st4" d="M153.86,113.23c1.82,3.33,3.72,6.66,6.76,9.04c0.5,0.39,1.21-0.31,0.71-0.71
							c-2.98-2.32-4.82-5.57-6.61-8.84C154.41,112.16,153.55,112.66,153.86,113.23L153.86,113.23z"/>
					</g>
					<g>
						<path class="st4" d="M154.89,110.4c2.67,1.88,4.68,4.45,5.86,7.49c0.23,0.59,1.2,0.34,0.96-0.27
							c-1.28-3.3-3.42-6.05-6.32-8.09C154.87,109.17,154.37,110.03,154.89,110.4L154.89,110.4z"/>
					</g>
					<g>
						<path class="st4" d="M115.35,129.15c-1.52,3.84-3.73,7.26-6.57,10.25c-0.44,0.47,0.26,1.17,0.71,0.71
							c2.97-3.12,5.24-6.69,6.83-10.69C116.55,128.82,115.58,128.56,115.35,129.15L115.35,129.15z"/>
					</g>
					<g>
						<path class="st4" d="M112.88,143.38c1.02-0.05,1.61-0.79,2.19-1.56c0.74-0.99,1.31-2.06,1.78-3.19
							c0.25-0.59-0.72-0.85-0.96-0.27c-0.32,0.78-0.71,1.53-1.17,2.23c-0.39,0.6-1.01,1.75-1.83,1.79
							C112.24,142.42,112.23,143.42,112.88,143.38L112.88,143.38z"/>
					</g>
					<g>
						<path class="st4" d="M117.55,149.76c1.6-1.13,2.89-2.56,3.81-4.29c0.3-0.57-0.56-1.07-0.86-0.5c-0.84,1.57-2,2.9-3.45,3.93
							C116.53,149.26,117.03,150.13,117.55,149.76L117.55,149.76z"/>
					</g>
					<g>
						<path class="st4" d="M121.63,155.25c0.85-0.98,1.61-2.03,2.28-3.14c0.34-0.55-0.53-1.05-0.86-0.5
							c-0.63,1.04-1.34,2.01-2.13,2.93C120.51,155.03,121.21,155.74,121.63,155.25L121.63,155.25z"/>
					</g>
					<g>
						<path class="st4" d="M158.52,137.37c-0.11,2.42,0.02,4.6,0.93,6.86c0.89,2.24,2.13,4.28,2.68,6.65
							c0.15,0.63,1.11,0.36,0.96-0.27c-0.44-1.89-1.28-3.55-2.08-5.31c-1.21-2.65-1.62-5.03-1.49-7.94
							C159.55,136.73,158.55,136.73,158.52,137.37L158.52,137.37z"/>
					</g>
					<g>
						<path class="st4" d="M156.98,149.73c0.85,1.57,1.22,3.24,1.13,5.02c-0.03,0.64,0.97,0.64,1,0c0.1-1.95-0.33-3.81-1.26-5.52
							C157.54,148.66,156.68,149.16,156.98,149.73L156.98,149.73z"/>
					</g>
					<g>
						<path class="st4" d="M154.12,153.75c0.04,0.71,0.08,1.42,0.12,2.12c0.04,0.64,1.04,0.64,1,0c-0.04-0.71-0.08-1.42-0.12-2.12
							C155.09,153.11,154.09,153.11,154.12,153.75L154.12,153.75z"/>
					</g>
				</g>
				<g>
					<g>
						<path class="st5" d="M77.92,55.99c-1.82-2.66-1.93-2.04-3.58-2.34c-1-1.03-1.36-3.84-5.33-3.84c-2.18,0-3.32,1.94-3.32,1.94
							s-1.67-1.3-4.26,0.02c-1.19,0.61-2.06,2.74-2.06,2.74c-2.89-0.84-3.92,1.99-3.86,4.09c-1.36-1.23-3.06,1.33-2.6,3.11
							c0.46,1.77,0.62,1.94,1.83,3.31c2.35,2.67,3.46,2.2,5.12,1.68c0.53,2.03-1.62,3.03,4.16,6.04c0,0,4.57,17.11,5.71,19.27
							c3.4,0.31,10.55-0.68,13.89-1.38c-0.46-4.89-6.67-17.19-6.04-22.23C77.73,67.23,79.39,58.13,77.92,55.99z"/>
						<g>
							<path class="st6" d="M72.54,54.3c-1.86,1.8-3.71,3.62-5.56,5.42c-0.93,0.9-1.69,1.35-1.14,2.7c1.28,3.14,6.03,0.01,7.34-1.52
								c-0.28-0.16-0.56-0.32-0.84-0.49c-0.58,2.02-0.85,4-0.84,6.09c0,0.64,1,0.64,1,0c0-2,0.26-3.91,0.81-5.83
								c0.13-0.46-0.5-0.87-0.84-0.49c-0.95,1.09-2.18,2.13-3.67,2.32c-2.82,0.36-2.06-1.18-0.9-2.31c1.78-1.73,3.56-3.47,5.34-5.2
								C73.71,54.56,73.01,53.85,72.54,54.3L72.54,54.3z"/>
						</g>
						<g>
							<path class="st6" d="M57.03,61.12c0.94,1.42,2.18,2.58,3.68,3.4c0.56,0.31,1.07-0.55,0.5-0.86
								c-1.35-0.74-2.47-1.76-3.32-3.04C57.54,60.08,56.67,60.58,57.03,61.12L57.03,61.12z"/>
						</g>
						<g>
							<path class="st6" d="M59.78,57.13c0.57,1.7,1.94,3.12,3.34,4.17c0.68,0.52,2.35,1.72,3.04,0.58c0.33-0.55-0.53-1.06-0.86-0.5
								c-0.15,0.24-2.14-1.32-2.36-1.52c-0.9-0.83-1.8-1.82-2.2-3C60.54,56.26,59.57,56.52,59.78,57.13L59.78,57.13z"/>
						</g>
						<g>
							<path class="st6" d="M60.76,64.66c2.46,1.11,4.59-0.63,5.46-2.9c0.23-0.6-0.74-0.86-0.96-0.27c-0.61,1.6-2.17,3.12-3.99,2.3
								C60.68,63.54,60.17,64.4,60.76,64.66L60.76,64.66z"/>
						</g>
						<g>
							<path class="st6" d="M64.26,54.63c0.6,1.99,1.73,3.71,3.33,5.04c0.49,0.41,1.2-0.3,0.71-0.71c-1.47-1.22-2.52-2.77-3.07-4.59
								C65.04,53.75,64.08,54.02,64.26,54.63L64.26,54.63z"/>
						</g>
						<g>
							<path class="st6" d="M68.71,52.9c0.44,1.37,1.04,2.67,1.8,3.89c0.34,0.54,1.21,0.04,0.86-0.5c-0.72-1.15-1.29-2.36-1.7-3.65
								C69.48,52.02,68.51,52.28,68.71,52.9L68.71,52.9z"/>
						</g>
						<g>
							<path class="st6" d="M53.78,63.33c0.55,1.91,1.82,3.29,3.83,3.63c1.67,0.28,3.62-0.16,4.19-1.92
								c0.2-0.61-0.77-0.88-0.96-0.27c-0.48,1.46-2.52,1.45-3.72,1.05c-1.31-0.44-2-1.48-2.37-2.75
								C54.57,62.44,53.6,62.71,53.78,63.33L53.78,63.33z"/>
						</g>
					</g>
					<path class="st15" d="M98.5,123.25c-5.44-13.83-9.41-30.28-13.88-44.62c-0.41-1.32-3.26-1.82-3.71-3.15
						c-0.45-1.33-0.93-2.66-1.43-4c-6.74,0-12.99,2.52-16.04,4.46c0.34,1.22,0.66,2.38,0.96,3.5c0.27,1-1.21,4-0.96,4.93
						c6.59,24.69,2.98,24.48,13.31,52.83c3.41,9.37,21.18,41.71,35.24,55.46c1.22,1.19,3.42-4.75,4.35-6.32
						c6.48-10.92,10.14-17.63,4.07-25.79C115.25,153.62,104.5,138.5,98.5,123.25z"/>
					<g>
						<path class="st16" d="M67.52,80.23c3.58-1.54,7.29-2.57,11.14-3.1c0.63-0.09,0.36-1.05-0.27-0.96
							c-3.95,0.53-7.72,1.62-11.38,3.2C66.42,79.62,66.93,80.48,67.52,80.23L67.52,80.23z"/>
					</g>
					<g>
						<path class="st16" d="M96.55,128c-0.03,2.44-0.96,4.64-2.68,6.36c-0.45,0.46,0.25,1.16,0.71,0.71
							c1.9-1.91,2.94-4.38,2.97-7.07C97.55,127.36,96.55,127.36,96.55,128L96.55,128z"/>
					</g>
					<g>
						<path class="st16" d="M97.53,131c0.1,2.33-0.5,4.49-1.79,6.44c-0.36,0.54,0.51,1.04,0.86,0.5c1.38-2.08,2.03-4.45,1.93-6.95
							C98.5,130.36,97.5,130.35,97.53,131L97.53,131z"/>
					</g>
					<g>
						<path class="st16" d="M112.04,188.75c-0.05-1.86-0.1-3.72-0.15-5.57c-0.01-0.47,0.11-5.62-0.15-5.72
							c0.61,0.22,0.87-0.75,0.27-0.96c-0.09-0.03-0.17-0.06-0.26-0.09c-0.16-0.06-0.37,0.01-0.49,0.13c-1,1.08-0.48,2.99-0.44,4.32
							c0.07,2.63,0.14,5.26,0.22,7.9C111.06,189.39,112.06,189.39,112.04,188.75L112.04,188.75z"/>
					</g>
					<g>
						<path class="st16" d="M115.23,190.5c0.13-4.02,1.03-7.84,2.74-11.48c0.27-0.58-0.59-1.09-0.86-0.5
							c-1.78,3.79-2.75,7.79-2.88,11.98C114.21,191.14,115.21,191.14,115.23,190.5L115.23,190.5z"/>
					</g>
					<g>
						<path class="st16" d="M116.94,190.5c0.5-1.15,1.28-2.12,2.31-2.83c0.53-0.36,0.03-1.23-0.5-0.86
							c-1.17,0.81-2.09,1.88-2.67,3.19C115.81,190.58,116.68,191.09,116.94,190.5L116.94,190.5z"/>
					</g>
				</g>
				<g>
					<g>
						<path class="st9" d="M223.13,80.38c0.24-0.45,1.18-6.76,1.67-8.47c0.83-2.84,2.84-4.33,6.71-5.09c1.7-0.33,3.43-0.16,5.29-0.6
							c3.15-0.76,1.94-0.46,3.72,0.45c1.88,0.96,1.37,1.63,2.38,5.29c1.12,4.03,4.65,5.56,3.05,8.49c-1.55,2.84-5.54,6.03-8.78,6.03
							c-5.48,0-5.73,3.2-8.53,7.91c-0.93,1.57-2.13,5.43-3.88,5.93c-1.19,0.34-9.02-4.5-11.65-5.84
							C217.28,87.3,219.27,87.74,223.13,80.38z"/>
						<g>
							<path class="st17" d="M292.9,103.64L292.9,103.64c-14.42,3.22-28.72-5.85-31.94-20.27l-8.02-35.86l52.21-11.68l8.02,35.86
								C316.39,86.12,307.32,100.42,292.9,103.64z"/>
							<path class="st17" d="M302.55,116.52L302.55,116.52c-1.44,0.32-3.34-2.7-3.71-4.35l-4.4-19.68l-7.69,1.72l4.4,19.68
								c0.37,1.64-0.06,5.19-1.5,5.51l0,0c-9.64,2.16-16.34,8.94-13.87,19.96l47.82-10.7C321.14,117.65,312.19,114.36,302.55,116.52
								z"/>
							<g>
								<path class="st17" d="M260.22,57.12c-3.02-6.42-13.64-6.67-19.16-4.16c-9.41,4.27-11.42,17.83-6.7,26.25
									c4.1,7.32,14.83,12.05,22.44,7.07c5.86-3.83,7.35-13.44,1.6-18.08c-9.64-7.76-14.84,13.17-4.32,10.31
									c2.48-0.67,1.43-4.53-1.06-3.86c-1.1,0.3-1.22-0.86-1.07-1.69c0.54-3.03,4-1.42,5.13-0.17c0.72,0.79,0.97,2.08,1.02,3.11
									c0.11,2.31-1.1,5.05-2.83,6.5c-5.57,4.66-14.39,0.29-17.45-5.22c-3.63-6.54-2.27-17.78,5.38-20.82
									c3.71-1.48,11.53-1.56,13.57,2.77C257.86,61.47,261.31,59.44,260.22,57.12L260.22,57.12z"/>
							</g>
							<g>
								<path class="st17" d="M306.44,47.85c0.07-4.88,7.67-8.09,11.65-8.13c7.84-0.07,13.56,9.05,13.2,16.26
									c-0.3,6.05-5.37,12.96-12,12.72c-2.6-0.09-5.24-1.86-6.47-4.17c-1.02-1.9-4.12-6.3,1.29-7.13c1.72-0.26,4.49,2.81,2.68,3.03
									c-2.52,0.31-2.55,4.31,0,4c7.37-0.9,4.69-10.76-1.69-11.08c-4.93-0.25-8,4.46-7.31,9c0.5,3.28,2.67,6.37,5.36,8.27
									c7.64,5.38,17.4-0.7,20.69-8.25c4.08-9.36-1.3-22.95-11.37-26.01c-7.27-2.21-19.89,2.62-20.01,11.49
									C302.41,50.42,306.41,50.43,306.44,47.85L306.44,47.85z"/>
							</g>
							<path class="st18" d="M303.84,27.16l-53.43,11.95c-1.95,0.44-3.18,2.38-2.75,4.33l0.33,1.46c0.44,1.95,2.38,3.18,4.33,2.75
								l53.43-11.95c1.95-0.44,3.18-2.38,2.75-4.33l-0.33-1.46C307.73,27.95,305.79,26.72,303.84,27.16z"/>
							
								<rect x="270.1" y="56.55" transform="matrix(0.9759 -0.2183 0.2183 0.9759 -6.7067 63.4034)" class="st2" width="27" height="11"/>
							<path class="st2" d="M300.69,40.16c0,0,7.71,30.04,7.69,34.4c-0.01,4.36-1.63,18.3-12.96,22.37c0,0,11.55-10.49,9.09-22.64
								c-2.46-12.15-7.45-33.32-7.45-33.32L300.69,40.16z"/>
							<g>
								<path class="st18" d="M265.87,85.94c2.42,8.74,14.41,15.02,23.11,13.5c1.9-0.33,1.09-3.22-0.8-2.89
									c-7.09,1.24-17.48-4.38-19.42-11.41C268.25,83.28,265.36,84.07,265.87,85.94L265.87,85.94z"/>
							</g>
							<g>
								<path class="st18" d="M266.54,79.75c-0.51-2.28-1.02-4.55-1.53-6.83c-0.42-1.88-3.31-1.09-2.89,0.8
									c0.51,2.28,1.02,4.55,1.53,6.83C264.07,82.43,266.97,81.63,266.54,79.75L266.54,79.75z"/>
							</g>
							<g>
								<path class="st18" d="M263.73,66.03c-0.05-0.24-0.11-0.49-0.16-0.73c-0.18-0.79-1.09-1.25-1.85-1.05
									c-0.81,0.22-1.23,1.05-1.05,1.85c0.05,0.24,0.11,0.49,0.16,0.73c0.18,0.79,1.09,1.25,1.85,1.05
									C263.5,67.65,263.91,66.82,263.73,66.03L263.73,66.03z"/>
							</g>
							<g>
								<path class="st18" d="M283.19,132.78c-0.1-2.47,1.18-4.6,3.39-5.7c1.73-0.86,0.21-3.45-1.51-2.59
									c-3.1,1.54-5.02,4.84-4.88,8.29C280.27,134.71,283.27,134.72,283.19,132.78L283.19,132.78z"/>
							</g>
						</g>
						<path class="st5" d="M231.07,72.99c0.6,0.7,3.28,0.02,4.61-0.3c-1.91,0.44-4.91,2.58-3.65,4.76c0.24,0.42,3.89-0.13,6.92-1.14
							c-2.24,1.11-6.8,3.01-4.99,5.13c2.68,0.51,4.54,0.14,6.8-1.38c-1.59,1.39-4.34,2.39-3.76,3.88c0.39,1,1.43,2.24,6.9-0.82
							c0.81-0.45,2.59-1.37,2.94-3.06c0.32-1.56,0.15-2.21-0.6-2.53c0.99-1.07,0.74-4.09-1.04-3.8c0,0,1.56-3.8-2.01-3.65
							c1.48-1.14,1.27-3.44-0.37-4.34C240.25,64.32,227.79,69.19,231.07,72.99z"/>
						<path class="st9" d="M232.11,66.66c1.89,0,1.56,4.07,6.1,6.03c0.47,0.97-1.11,2.3-2.25,2.32c-2.44,0.06-4.3-1.96-4.68-3.1
							c-1.02,4.2-2.89,5.39-4.91,4.85c-1.33-0.36-1.75-3.22-1.58-4.85C225.11,68.97,228.53,67.57,232.11,66.66z"/>
						<g>
							<path class="st6" d="M237.76,72.8c1.38-0.27,2.59-1.09,3.97-1.36c0.63-0.12,0.36-1.09-0.27-0.96
								c-1.38,0.27-2.59,1.09-3.97,1.36C236.87,71.96,237.13,72.92,237.76,72.8L237.76,72.8z"/>
						</g>
						<g>
							<path class="st6" d="M232.52,73.78c-2,1.6-1.27,4.81,1.5,4.59c1.44-0.12,2.97-0.75,4.32-1.18c1.4-0.45,2.89-0.9,4.14-1.7
								c0.54-0.34,0.04-1.21-0.5-0.86c-1.45,0.92-3.22,1.4-4.85,1.89c-0.66,0.2-1.36,0.47-2.04,0.58c-0.19,0.03-0.55,0.22-0.75,0.2
								c-0.66-0.36-1.32-0.71-1.98-1.07c-0.01-0.75,0.28-1.34,0.87-1.75C233.73,74.08,233.02,73.38,232.52,73.78L232.52,73.78z"/>
						</g>
						<g>
							<path class="st6" d="M235.71,76.96c-2.16,0.55-4.01,5.24-0.85,5.4c3.27,0.16,7.06-1.88,9.53-3.81
								c0.51-0.4-0.21-1.1-0.71-0.71c-1.59,1.24-3.57,2.3-5.49,2.91c-0.58,0.18-1.12,0.23-1.71,0.33c-0.86,0.14-2.97,1.01-2.05-1.81
								c0.21-0.62,0.94-1.2,1.54-1.35C236.59,77.76,236.33,76.8,235.71,76.96L235.71,76.96z"/>
						</g>
						<g>
							<path class="st6" d="M238.38,81.08c-2.3,0.65-2.75,3.5-0.16,4.06c2.92,0.63,6.23-1.33,7.74-3.76
								c0.34-0.55-0.52-1.05-0.86-0.5c-0.88,1.41-2.33,2.46-3.88,3.02c-0.7,0.25-1.42,0.38-2.17,0.34c-1.53-0.09-2.05-1.73-0.39-2.2
								C239.26,81.87,239,80.91,238.38,81.08L238.38,81.08z"/>
						</g>
						<g>
							<path class="st6" d="M229.16,78.63c2.01-1.51,3.26-4.36,2.61-6.85c-0.3,0.13-0.61,0.26-0.91,0.39
								c1.22,1.6,2.57,3.11,4.71,3.29c1.78,0.15,2.88-0.91,3.13-2.63c0.09-0.63-0.87-0.9-0.96-0.27c-0.22,1.46-1.07,2.12-2.5,1.84
								c-1.59-0.31-2.58-1.51-3.51-2.73c-0.32-0.43-1.07-0.2-0.91,0.39c0.53,2.01-0.51,4.49-2.15,5.72
								C228.15,78.15,228.65,79.01,229.16,78.63L229.16,78.63z"/>
						</g>
						<g>
							<path class="st6" d="M232.94,68.46c1.29,1.85,3.17,3.2,4.92,4.59c0.5,0.4,1.21-0.31,0.71-0.71
								c-1.67-1.33-3.52-2.62-4.76-4.39C233.44,67.43,232.57,67.93,232.94,68.46L232.94,68.46z"/>
						</g>
					</g>
					<path class="st15" d="M190.75,129.29c3.77-6.08,16.29-32.62,23.12-43.75c0.7-1.15,4.95-2.57,5.53-3.44
						c0.53-0.79,1.01-1.45,1.41-1.96c2.22-2.75,12.25,3.06,14.18,9.23c-0.59,1.07-1.14,2.11-1.67,3.12
						c-0.57,1.09,0.46,4.62,0.04,5.69c-7.5,19.32-10.38,27.61-24.62,48.49c-10.4,15.25-26.58,33.48-42.3,43.16
						c-2.26,1.39-5.27-30.08-5.27-30.08C176,146.67,189.56,131.2,190.75,129.29z"/>
					<g>
						<path class="st16" d="M175.38,179.62c-2.84-3.6-4.89-7.6-6.17-12c-0.18-0.62-1.15-0.35-0.96,0.27
							c1.33,4.56,3.48,8.71,6.43,12.44C175.07,180.83,175.78,180.12,175.38,179.62L175.38,179.62z"/>
					</g>
					<g>
						<path class="st16" d="M176.9,179.14c-0.72-2.84-1.44-5.68-2.16-8.52c-0.16-0.62-1.12-0.36-0.96,0.27
							c0.72,2.84,1.44,5.68,2.16,8.52C176.1,180.03,177.06,179.76,176.9,179.14L176.9,179.14z"/>
					</g>
					<g>
						<path class="st16" d="M191.48,133.89c0.86,3.77,2.9,7.04,5.92,9.46c0.5,0.4,1.21-0.3,0.71-0.71c-2.89-2.32-4.84-5.4-5.67-9.01
							C192.3,133,191.34,133.26,191.48,133.89L191.48,133.89z"/>
					</g>
					<g>
						<path class="st16" d="M193.33,133.75c1.79,2.83,4.21,5.11,7.15,6.71c0.57,0.31,1.07-0.56,0.5-0.86
							c-2.8-1.52-5.1-3.66-6.8-6.35C193.85,132.7,192.98,133.2,193.33,133.75L193.33,133.75z"/>
					</g>
					<g>
						<path class="st16" d="M220.08,84.24c3.75,1.7,7.08,4.02,9.97,6.95c0.45,0.46,1.16-0.25,0.71-0.71
							c-2.95-2.99-6.35-5.38-10.17-7.11C220,83.12,219.49,83.98,220.08,84.24L220.08,84.24z"/>
					</g>
				</g>
			</g>
		</g>
		<g>
			<polygon class="st13" points="72.9,251.25 75.16,255.84 80.24,256.58 76.57,260.16 77.43,265.21 72.9,262.82 68.36,265.21 
				69.23,260.16 65.56,256.58 70.63,255.84 			"/>
			<polygon class="st15" points="381.31,45.46 385.22,48.78 390.17,47.44 388.22,52.18 391.02,56.47 385.91,56.09 382.69,60.07 
				381.48,55.09 376.69,53.27 381.06,50.58 			"/>
			<polygon class="st17" points="262.63,355.79 264.45,360.59 269.43,361.81 265.43,365.01 265.81,370.12 261.52,367.32 
				256.78,369.25 258.13,364.31 254.82,360.4 259.94,360.15 			"/>
			<polygon class="st7" points="229.4,264.95 230.56,268.01 233.74,268.79 231.18,270.84 231.43,274.1 228.69,272.3 225.66,273.54 
				226.52,270.39 224.41,267.89 227.68,267.73 			"/>
			<polygon class="st13" points="385.46,151.48 386.62,154.54 389.8,155.32 387.24,157.36 387.49,160.63 384.75,158.83 
				381.72,160.07 382.58,156.91 380.47,154.42 383.74,154.26 			"/>
			<polygon class="st17" points="278.41,177.8 279.57,180.86 282.74,181.64 280.19,183.69 280.43,186.95 277.7,185.15 
				274.67,186.39 275.53,183.24 273.42,180.74 276.69,180.58 			"/>
			<polygon class="st15" points="203.08,40.15 204.24,43.21 207.41,43.99 204.86,46.04 205.1,49.3 202.37,47.5 199.34,48.74 
				200.2,45.58 198.09,43.09 201.35,42.93 			"/>
			<polygon class="st17" points="27.93,63.63 29.09,66.69 32.27,67.47 29.71,69.51 29.96,72.78 27.22,70.98 24.19,72.22 
				25.05,69.06 22.94,66.57 26.21,66.41 			"/>
			<polygon class="st13" points="65.07,363.22 66.23,366.28 69.41,367.06 66.86,369.11 67.1,372.37 64.36,370.58 61.34,371.81 
				62.2,368.66 60.08,366.16 63.35,366 			"/>
			<polygon class="st17" points="451.46,194.07 453.95,196.18 457.11,195.33 455.87,198.35 457.66,201.09 454.4,200.85 
				452.35,203.4 451.57,200.22 448.52,199.06 451.3,197.34 			"/>
			<polygon class="st7" points="439.45,81.56 441.95,83.67 445.1,82.81 443.87,85.84 445.66,88.58 442.39,88.33 440.35,90.88 
				439.57,87.71 436.51,86.54 439.29,84.82 			"/>
			<polygon class="st13" points="446.89,333.5 449.38,335.62 452.54,334.76 451.3,337.79 453.09,340.52 449.83,340.28 
				447.78,342.83 447,339.65 443.95,338.49 446.73,336.77 			"/>
			<polygon class="st7" points="164.38,52.26 166.19,57.05 171.17,58.27 167.17,61.48 167.55,66.59 163.26,63.78 158.52,65.72 
				159.87,60.77 156.56,56.86 161.68,56.62 			"/>
			<path class="st17" d="M215.73,218.72l-2.62,8.6c0,0,12.82-0.23,18.41,8.14l6.09-6.67C237.62,228.8,230.35,219.09,215.73,218.72z"
				/>
			<path class="st15" d="M438.88,41.85l-2.62,8.6c0,0,12.82-0.23,18.41,8.14l6.09-6.67C460.77,51.93,453.5,42.23,438.88,41.85z"/>
			<path class="st17" d="M442.97,386.1l-2.62,8.6c0,0,12.82-0.23,18.41,8.14l6.09-6.67C464.86,396.18,457.59,386.48,442.97,386.1z"
				/>
			<path class="st7" d="M35.58,196.15l-2.62,8.6c0,0,12.82-0.23,18.41,8.14l6.09-6.67C57.46,206.23,50.19,196.53,35.58,196.15z"/>
			<path class="st13" d="M262.91,292.96c0,0-10.18,0.96-8.27,10.66c1.9,9.7-2.84,12.77-7.26,9.11l1.94,8.67
				c0,0,18.01,0.21,13.66-13.44c-4.35-13.64,5.22-8.32,5.22-8.32L262.91,292.96z"/>
			<path class="st13" d="M48.68,125.33c0,0,1-10.17-8.88-10.16c-9.89,0.02-11.99-5.23-7.56-8.86l-8.88,0.25
				c0,0-3.64,17.64,10.58,15.97c14.22-1.66,7.17,6.71,7.17,6.71L48.68,125.33z"/>
			<path class="st17" d="M375.19,89.92c0,0-5.92,8.34,2.67,13.23c8.59,4.89,7.82,10.49,2.17,11.44l7.83,4.19
				c0,0,11.91-13.51-1.26-19.12c-13.17-5.61-2.9-9.38-2.9-9.38L375.19,89.92z"/>
			<path class="st7" d="M241.22,410.9c0,0,0.05,10.22,9.88,9.19c9.83-1.03,12.47,3.97,8.43,8.04l8.81-1.16
				c0,0,1.81-17.92-12.17-14.8c-13.98,3.12-7.82-5.94-7.82-5.94L241.22,410.9z"/>
			<path class="st15" d="M76.42,409.71c0,0-8.16-6.16-13.3,2.29c-5.14,8.44-10.71,7.51-11.5,1.83l-4.42,7.71
				c0,0,13.15,12.3,19.15-0.7c6-13,9.47-2.62,9.47-2.62L76.42,409.71z"/>
			<path class="st7" d="M468.52,273.42c0,0,2.81-9.83-6.92-11.58c-9.73-1.75-10.86-7.29-5.85-10.07l-8.78-1.35
				c0,0-6.74,16.7,7.55,17.61c14.29,0.91,5.85,7.89,5.85,7.89L468.52,273.42z"/>
			<path class="st7" d="M230.75,151.68c0,0,6.26,5.41,3.26,11.15c-3,5.74,2.1,12.24,4.05,12.24l7.79-1.75c0,0-4.09-5.91-2.21-10.58
				c1.88-4.67-5.33-13.1-5.33-13.1L230.75,151.68z"/>
			<path class="st17" d="M46.25,300.92c0,0,6.26,5.41,3.26,11.15s2.1,12.24,4.05,12.24l7.79-1.75c0,0-4.09-5.91-2.21-10.58
				c1.88-4.67-5.33-13.1-5.33-13.1L46.25,300.92z"/>
			<path class="st17" d="M107.08,39.14c0,0,6.26,5.41,3.26,11.15s2.1,12.24,4.05,12.24l7.79-1.75c0,0-4.09-5.91-2.21-10.58
				c1.88-4.67-5.33-13.1-5.33-13.1L107.08,39.14z"/>
			<path class="st13" d="M456.1,143.54c0,0,0.24,8.27-6.01,9.93c-6.26,1.67-7.6,9.82-6.28,11.26l6.55,4.55c0,0,1.59-7.01,6.3-8.78
				c4.71-1.77,6.05-12.79,6.05-12.79L456.1,143.54z"/>
		</g>
	</g>
</g>
</svg>
