<?xml version="1.0" encoding="utf-8"?>
<!-- Generator: Adobe Illustrator 24.3.0, SVG Export Plug-In . SVG Version: 6.00 Build 0)  -->
<svg version="1.1" id="Capa_1" xmlns="http://www.w3.org/2000/svg" xmlns:xlink="http://www.w3.org/1999/xlink" x="0px" y="0px"
	 viewBox="0 0 2752 1636" style="enable-background:new 0 0 2752 1636;" xml:space="preserve">
<style type="text/css">
	.st0{fill:#E59375;}
	.st1{fill:#4B9EBF;}
	.st2{fill:#3F1901;}
	.st3{fill:#F7A483;}
	.st4{fill:#010814;}
	.st5{fill:#E79675;}
	.st6{fill:#09111C;}
	.st7{fill:#E1876F;}
	.st8{fill:#F8A07D;}
	.st9{fill:#E98B6F;}
	.st10{fill:#3C2415;}
	.st11{fill:#FFFFFF;}
	.st12{fill:#4FA6C9;}
	.st13{fill:#111924;}
	.st14{fill:#222B35;}
	.st15{fill:#4592B1;}
	.st16{fill:#7AD0E2;}
	.st17{fill:#001940;}
	.st18{fill:#00264E;}
	.st19{fill:#602A05;}
	.st20{fill:#95D7E3;}
	.st21{fill:#3EAEC6;}
	.st22{fill:#CFEAE6;}
	.st23{fill:none;stroke:#74CEE2;stroke-width:5.3377;stroke-miterlimit:10;}
	.st24{fill:#471F08;}
	.st25{fill:none;stroke:#BCBEC0;stroke-width:8.7324;stroke-miterlimit:10;}
	.st26{fill:#002952;}
	.st27{fill:#004788;}
	.st28{fill:#0059A5;}
	.st29{fill:#00153B;}
	.st30{fill:#5C1B1B;}
	.st31{fill:#9F4541;}
	.st32{fill:#D45F5A;}
	.st33{fill:#9698BC;}
	.st34{fill:#7081AB;}
	.st35{fill:#CDC5DA;}
	.st36{fill:#A1A3C1;}
	.st37{fill:#121D28;}
	.st38{fill:#101B26;}
	.st39{fill:#1A2530;}
	.st40{fill:#D48A50;}
	.st41{fill:#2A3C45;}
	.st42{fill:#00A8C1;}
	.st43{fill:#00B5C9;}
	.st44{fill:#010C18;}
	.st45{fill:#091420;}
	.st46{fill:#D1D3D4;}
	.st47{fill:#E6E7E8;}
	.st48{fill:none;stroke:#E6E7E8;stroke-width:5.3377;stroke-miterlimit:10;}
	.st49{fill:#1F3038;}
	.st50{fill:#DB4849;}
	.st51{fill:#EC524F;}
</style>
<g>
	<g>
		<g>
			<g>
				<g>
					<g>
						<polygon class="st0" points="264.89,1635.31 264.32,1625.97 254.4,1567.86 220.01,1571.49 210.67,1626.01 208.92,1635.31 
													"/>
					</g>
					<path class="st0" d="M349.4,1202.38c0,0-85.46,296.32-95,365.48c0,0-30.56,34-34.39,3.63c-7.69-60.63,16.2-376.02,32.43-400.53
						C268.66,1146.48,349.4,1202.38,349.4,1202.38z"/>
				</g>
				<path class="st1" d="M240.38,1224.31c0,0-21.86,166.13-24.07,368.73c0,0,36.75,9.54,54.7,1.71c0,0,100.51-274.2,87.03-402.12
					C358.04,1192.64,265.77,1143.12,240.38,1224.31z"/>
			</g>
			<path class="st2" d="M641.11,605.36c-5.06,58.93-24.85,75.25-3.4,135.35c19.8,55.52,68.56,94.53,77.87,155
				c6.62,42.95-0.97,113.8-27.84,150.04c-38.99,52.58-135.14,29.01-189.63,23.01c-61.96-6.82-199.32-4.16-240.27-62.87
				c-31.07-44.52,1.22-128.02,10.61-175.62c11.91-60.4,24.51-120.71,35.26-181.35c9.79-55.11,23.4-144.77,61.91-189.6
				c32.71-38.09,77.83-41.39,131.94-34.36C599.87,438.29,647.44,531.78,641.11,605.36z"/>
			<path class="st0" d="M332.56,838.27c-44.2-1.23-81.04,33.57-82.27,77.78c-1.22,44.19,22.86,158.21,56.53,129.54
				c66.16-56.34,99.17-90.24,100.41-134.43C408.46,866.95,376.75,839.5,332.56,838.27z"/>
			<path class="st0" d="M270.49,900.02l80.01-10.92l48.49,67.29c0,0-60.94,258.28-97.63,308.12c-39.1,53.09-48.5-1.63-54.76-23.05
				C246.59,1241.46,243.93,944.19,270.49,900.02z"/>
			<path class="st3" d="M541.08,1635.31c2.84-12.48,5.76-25.36,8.76-38.7l-218.46-134.11c0,0-28.71,101.11-44.03,172.81H541.08z"/>
			<path class="st4" d="M540.42,1635.31c2.36-15.71,3.44-24.66,3.44-24.66c39.44-177.77-222.88-164.81-222.88-164.81
				c-23.67,43.41-40.44,111.84-52.31,189.46H540.42z"/>
			<path class="st5" d="M420.86,1241.71c-10.13-1.84-51.96,19.75-51.96,19.75s-52.25,167.86-54.47,193.39
				c-2.26,25.5,173.27,157.64,369.38,82.4c0,0-90.79-236.39-96.34-294.6C581.92,1184.44,420.86,1241.71,420.86,1241.71z"/>
			<path class="st6" d="M368.89,1261.46c0,0-50.08,151.38-54.47,193.39c-15.64,148.71,185.61,211.08,381.69,135.85
				c0,0,12.72-204.46-108.65-348.04C587.46,1242.66,555.22,1272.06,368.89,1261.46z"/>
			<path class="st6" d="M695.48,1635.31c0.42-7.81,0.63-12.13,0.63-12.13l-22.09,12.13H695.48z"/>
			<path class="st6" d="M694.41,1635.31c12.96-123.98-54.19-143.43-54.19-143.43c-116.72-52.11-224.16,14.66-208.95,143.43H694.41z"
				/>
			<path class="st3" d="M544.57,829.44H408.1c6.18-19.88,19.05-71.32-0.84-106.33l137.89-90.54
				C545.16,632.57,520.64,784.52,544.57,829.44z"/>
			<path class="st7" d="M417.88,769.77c0.4-15.21-2.12-31.67-10.62-46.66l137.89-90.54c0,0-9.99,61.92-11.01,118.4
				C484.35,766.8,463.86,772.93,417.88,769.77z"/>
			<path class="st3" d="M638.35,841.22c61.43,30.04,27.28,102.23,27.28,102.23l-83.02,302.17c0,0-77.59,31.72-213.72,15.84
				c-18.89-27.06-57.77-140.43-70.77-226.99c-10.73-71.29-44.04-141.53-7.75-181.28c13.9-15.24,119.84-30.45,120.37-32.94h127.51
				L638.35,841.22z"/>
			<g>
				<path class="st3" d="M386.04,735.5l-8.27-20.13l-20.73-59.41c-2.92-9.46-4.74-22.49-1.93-32.01c3.37-11.45,5.5-29.93,0.26-50.21
					c-14.02-54.31,8.88-84.2,8.88-84.2c29.49-52.1,105.09-55.7,105.09-55.7c93.73,0.11,105.96,90.23,105.96,90.23
					c18.06,59.46-27.4,111.88-27.49,111.98c-5.75,6.63-5.89,16.93-8.41,24.9c-2.72,8.53-7.06,16.56-12.57,23.57
					c-12.37,15.75-28.78,31.04-45.96,40.91c-16.27,9.37-48.2,19.73-71.2,20.65C400.15,746.47,390.78,747.05,386.04,735.5z"/>
				<path class="st2" d="M539.13,671.48c-1.69-42.71-2.63-40.04-2.63-40.04c-1.64-12.43-24.73,15.71-25.06-0.56
					c-1.46-74.5-30.3-108.53-41.14-113.71c-29.49-14.06-59.99-17-83.77-11.51c-37.28,8.59-33.3,58.58-33.3,58.58
					c-41.35-181.66,166.05-133.48,166.05-133.48c100.89,21.09,95.38,115.42,95.38,115.42c17.32,100.12-78.92,163.17-78.92,163.17
					L539.13,671.48z"/>
				<g>
					<g>
						<g>
							<g>
								<g>
									<g>
										<path class="st8" d="M531.86,657.29c3.46,2.4,7.83,3.66,13.17,3.28c14.46-0.93,25.81-15.11,25.29-31.59
											c-0.51-16.46-12.6-29.08-27.04-28.13c-6.87,0.46-12.99,3.88-17.51,9.1c-6.6,7.62-6.12,21.05-4.02,30.2
											C523.42,647.47,526.65,653.68,531.86,657.29z"/>
									</g>
								</g>
							</g>
						</g>
					</g>
					<g>
						<g>
							<path class="st9" d="M538.2,616.48c0.42-8.7,18.34-1.32,15.92,3.69c-1.38,2.88-4.35,5.09-6.64,7.18
								c-3.18,2.85-4.66,5.4-4.9,9.73c-0.04,0.48-0.06,2,0.46,2.31c2.34,1.46,9.33-7.36,10.87-9.23c3.02-3.67,3.16-9.66,1.38-13.93
								c-1.85-4.52-4.99-6.54-9.89-5.99c-3.93,0.43-7.92,0.9-7.45,5.78C537.97,616.12,538.17,616.92,538.2,616.48L538.2,616.48z"/>
						</g>
						<g>
							<path class="st9" d="M544.25,625.17c-1.92-1.72-3.58-0.12-5.38,1.31c-1.65,1.36-2.51,3.19-2.86,5.25
								c-0.78,4.55,0.13,10.54,2.91,14.33c2.23,3.05,5.83,4.81,9.63,4.51c5.27-0.41,6.59-5.15,6.56-9.62c0-1.18-0.05-4.02-1.25-4.7
								c-1.3-0.73-2.11,1.29-2.89,2.16c-1.13,1.17-2.83,1.7-4.39,1.91c-2.99,0.4-6.01-0.97-8-3.1c-0.35-0.38-0.7-0.83-0.87-1.32
								c0.14,2.92,0.34,3.55,0.56,1.94c0.2-0.76,0.5-1.46,0.89-2.12c1.11-2.07,3.11-3.55,4.37-5.56
								C544.15,629.26,545.21,626.05,544.25,625.17L544.25,625.17z"/>
						</g>
					</g>
				</g>
				<g>
					<path class="st10" d="M445.71,597.83c-0.26,5.2,2.42,9.56,5.96,9.72c3.5,0.15,6.57-3.93,6.81-9.13
						c0.23-5.21-2.44-9.56-5.96-9.71C448.99,588.55,445.93,592.63,445.71,597.83z"/>
					<path class="st10" d="M373.29,591.79c0.08,5.22,2.99,9.4,6.53,9.35c3.54-0.04,6.34-4.32,6.27-9.53
						c-0.08-5.21-2.99-9.39-6.54-9.33C376.03,582.33,373.21,586.58,373.29,591.79z"/>
					<path class="st2" d="M476.34,589.27c-13.92-18.18-50.48-11.05-50.48-11.05s-2.12-0.01-1.88-6.51c0,0-0.13-5.73,4.48-5.42
						C428.45,566.29,473.27,558.67,476.34,589.27z"/>
					<path class="st2" d="M353.23,564.24c6.39-12.23,40.51-0.53,40.51-0.53c4.6,0.43,3.54,6.08,3.54,6.08
						c-0.82,6.45-2.93,6.1-2.93,6.1s-33.92-13.2-39.72-5.39C353.59,566.21,353.89,566.56,353.23,564.24z"/>
					<g>
						<path class="st11" d="M384.89,660.62l50.57,6.71c2.63,0.38,3.71,2.3,2.29,4.29c0,0-14.38,20.46-30.78,18.22
							c-16.39-2.21-24.74-25.77-24.74-25.77C381.51,662.02,382.72,660.65,384.89,660.62z"/>
					</g>
					<path class="st9" d="M422.18,648.7c-26.94-0.58-28.76-7.54-28.76-7.54l12.63-28.99C406.05,612.17,404.26,640.61,422.18,648.7z"
						/>
				</g>
				<path class="st11" d="M531.31,660.35c0.24,4.89,4.42,8.66,9.32,8.41c4.89-0.24,8.66-4.42,8.39-9.31c-0.25-4.9-4.4-8.66-9.3-8.41
					C534.83,651.28,531.06,655.45,531.31,660.35z"/>
			</g>
			<g>
				<path class="st3" d="M557.15,905.48c-2.75,44.12,20.33,87.45,64.46,90.17c44.12,2.75,158.88-17.43,131.37-52.04
					c-54.05-68.05-86.79-102.21-130.92-104.94C577.9,835.93,559.86,861.34,557.15,905.48z"/>
				<path class="st3" d="M590.8,969.66l28.07-75.72l82.2-11.05c0,0,199.07,175.45,225.75,231.31c28.4,59.53-24.3,42.02-46.14,37.44
					C880.68,1151.64,617.23,1013.9,590.8,969.66z"/>
				<path class="st3" d="M931.34,1152.5c0,0-99.19,139.53-191.56,219.01c0,0-39.81-3.96-27.2-25.68
					c21.46-36.86,109.72-209.54,131.41-246.54C856.21,1078.5,931.34,1152.5,931.34,1152.5z"/>
				<path class="st3" d="M712.58,1345.83l-46.65,11.91l-19.96-26c0.25,28.81-9.12,48.54-9.12,48.54
					c-26.05,27.68-41.72,49.36-41.72,49.36c-10.22,9.42,1.15,14.64,1.15,14.64c19.12-5.69,55.26-33.83,55.26-33.83
					c-18.08,18.68-52.51,45.35-52.51,45.35c-7,9.25,4.65,12.02,4.65,12.02c27.54-0.69,59.35-41.54,59.35-41.54
					c-11.54,15.8-44.32,43.15-44.32,43.15c-1.44,8.24,3.2,7.76,3.2,7.76c21.91,2.79,52.42-36.61,52.42-36.61l-11.8,14.46
					c-17.94,18.35-1.42,20.27-1.42,20.27l10.89-8.14c32.73-25.39,45.18-57.71,45.18-57.71l22.61-37.93L712.58,1345.83z"/>
			</g>
			<path class="st12" d="M935.01,1134.84c0,0,8.07,11.66-20.41,50.51c0,0-106.81,154.11-175.8,191.68c0,0-30.38-12.14-34.26-34.8
				c0,0,91.54-210.73,148.54-246.62c56.98-35.89,0,0,0,0S898.45,1062.3,935.01,1134.84"/>
			<path class="st1" d="M286,851.11c0,0-41.37,10.33-41.37,102.67c0,0-32.94,318.25,24.42,333.76c0,0,71.5,22.71,123.51-308.3
				C392.57,979.23,380.73,849.66,286,851.11z"/>
			<path class="st12" d="M373.29,827.67l-58.89,10.58c0,0-42.93,9.39-44.35,46.14c0,0-2.41,69.61,35.48,195.48
				C305.54,1079.87,368.19,886.72,373.29,827.67z"/>
			<path class="st12" d="M388.32,825.36l-26.54,4.08c0,0-51.5,99.57-63.65,205.04c13,86.56,39.11,217.63,70.77,226.99
				c107.31,31.74,219.33-18.15,219.33-18.15l51.31-204.92c-137.84-53.66-68.17-211.21-68.17-211.21l-28.94-6.93L420.59,943.41
				L388.32,825.36"/>
			<path class="st12" d="M571.37,827.19l68.17,11.28c0,0,32.68,11.57,51.87,34.98c0,0,272.87,203.75,242.75,277.15
				c0,0-8.87,24.77-37.03,17.13L632.9,1043.08C632.9,1043.08,485.55,975.12,571.37,827.19z"/>
			<path class="st12" d="M333.88,893.32c0,0-53.85,74.6-63.24,113.02c-6.17,25.27,37.87,82.15,73.41,92.19
				C363.47,1104.01,363.93,898.35,333.88,893.32z"/>
			<path class="st13" d="M333.88,893.32c0,0-53.85,74.6-63.24,113.02c-6.17,25.27,37.87,82.15,73.41,92.19
				C363.47,1104.01,363.93,898.35,333.88,893.32z"/>
			<g>
				<path class="st13" d="M357.69,829.44c0,0-49.06,100.19-61.21,205.67c13.01,86.55,40.75,217,72.41,226.36
					c107.31,31.74,219.33-18.15,219.33-18.15l51.31-204.92c-137.84-53.66-68.17-211.21-68.17-211.21l-28.94-6.93L413.54,1004.5
					l-25.22-179.13L357.69,829.44z"/>
				<path class="st14" d="M542.44,820.25l-128.9,184.24l0,0l92.7-25.08c0,0,13.46-11.41,4.9-23.87l-12.75-24.88l16.98-5.04
					c0,0,22.29-2.64,25.99-20.8l13.92-81.48L542.44,820.25z"/>
				<path class="st14" d="M388.78,825.63l24.76,178.87l0,0l-50.37-46.78c0,0-20.72-16.84-1.31-25.26l23.99-7.44l-28.15-25.29
					c0,0-5.85-7.74,0-22.3l16.91-50.24L388.78,825.63z"/>
				<path class="st13" d="M592.99,1224.31l82.11,136.08c0,0-72.98,72.03-216.6,84.81c0,0-100.58,2.52-162.03-53.81l51.3-167.08
					H592.99z"/>
			</g>
			<g>
				<polygon class="st15" points="438.92,854.56 440.47,923.67 465.92,898.79 				"/>
				<path class="st16" d="M438.92,853.01c0,0,77.21-31.61,96.36-63.1l36.08,37.27l-93.65,90.85l-38.79-63.48"/>
			</g>
			<path class="st16" d="M370.2,856.52c0,0,7.49-28.94,44.18-53.4l-4.82,99.78C409.56,902.89,389.22,851.86,370.2,856.52z"/>
			<path class="st15" d="M366.88,902.89l3.32-46.37c11.22-2.74,21.22,12.93,29.39,25.79L366.88,902.89z"/>
			<path class="st2" d="M398.32,489c63.49,30.71,99.91,60.07,87.7,136.04c-11.01,68.51-14.04,105.87,26.38,164.44
				c37.96,54.99,42.77,87.25,15.65,149.64c-21.78,50.11-43.25,98.22,19.03,124.5c117.54,49.58,219.56-46.81,170.25-168.82
				c-22.12-54.71-70.89-90.26-95.91-142.65c-25.35-53.07-5.94-100.37-3.9-155.42c3.4-92.07-128.51-218.83-202.85-126
				c-6.23,7.79-11.35,17.41-15.96,26.32L398.32,489z"/>
		</g>
	</g>
	<g>
		<g>
			<g>
				<g>
					<path class="st0" d="M2452.17,907.79l25.59,5.58c0,0,69.98,301.13,43.65,372.62c-26.32,71.49-68.65,0.71-81.88-5.75
						c-13.21-6.47-130.19-337.85-130.19-337.85L2452.17,907.79z"/>
					<path class="st17" d="M2540.36,1248.3l-46.01-349.75c-27.39-92-128.49-58.02-128.49-58.02c-75.85,28.12-63.8,87.8-63.8,87.8
						l103.88,359.33c0,0,19.67,54.57,91.72,47.31C2497.66,1334.98,2550.11,1322.44,2540.36,1248.3z"/>
				</g>
				<path class="st3" d="M2402.43,1367.64l70.23-429.28c0,0,24.21-64.52-24.19-96.77l-184.48-86.71h-130.1l-221.78,131.08
					l145.37,481.69H2402.43z"/>
				<path class="st18" d="M2401.95,1635.31l0.48-267.67h-344.96c0,0-35.7,81.58-47.65,267.67H2401.95z"/>
				<g>
					<path class="st18" d="M2249.96,1635.31c-13.98-54.81-62.48-95.08-119.87-94.65c-56.79,0.42-104.26,40.52-118.02,94.65H2249.96z
						"/>
					<path class="st18" d="M2174.35,1635.31c-21.51-9.13-48.65-11.46-82.46,0H2174.35z"/>
				</g>
				<g>
					<path class="st18" d="M2395.45,1635.31c-14.03-52.94-48.79-89.42-105.32-83.63c-48.86,4.98-87.99,38.87-103.24,83.63H2395.45z"
						/>
				</g>
				<g>
					<path class="st3" d="M1931.49,938.73l-25.29,6.75c0,0-39.44,302.7-9.83,372.88c29.59,70.19,57.41,0.58,70.31-6.49
						c12.9-7.07,109.1-345.16,109.1-345.16L1931.49,938.73z"/>
					<path class="st17" d="M1999.4,1309.14l82.87-356.47c-17.1-96.41-108.88-89.63-108.88-89.63
						c-80.56,7.32-84.51,68.07-84.51,68.07l-5.33,362.57c0,0-5.32,61.98,41.38,58.68
						C1924.93,1352.36,1991.79,1341.91,1999.4,1309.14z"/>
				</g>
				<path class="st3" d="M2133.23,660.06v139.07h147.04c0,0-36.15-55.13-18.07-139.07H2133.23z"/>
				<path class="st7" d="M2207.83,778.15c13.25,8.53,41.42,26.68,57.5,16.06c4.32-2.85,6.31-6.6,6.97-10.78
					c-9.46-22.02-22.47-65.95-10.1-123.37h-128.97v12.62C2149.32,713.37,2169.97,753.74,2207.83,778.15z"/>
				<g>
					<path class="st8" d="M2129.71,662.01c0,0-25.03-10.87-53.37-72.8c0,0-61.51-73.25-17.91-156.41c0,0,25.77-70.32,150.62-50.66
						C2209.06,382.14,2220.28,570.62,2129.71,662.01z"/>
					<path class="st3" d="M2283.48,699.62l8.32-21.79c0,0,22.99-81.13,22.99-81.14c2.87-10.2,3.04-23.86,1.18-34.35
						c-2.01-11.4-3.3-23.32-0.33-35.36c14.5-58.34-15.4-91.46-15.4-91.46c-32.95-55.03-114.06-56.85-114.06-56.85
						c-100.42,2.61-111.11,99.48-111.11,99.48c-17.78,64.17,32.33,119.13,32.42,119.23c4.01,4.39,1.42,25.59,2.49,31.67
						c4.71,25.88,28.99,42.28,50.58,53.71c23.72,12.54,52.46,25.95,79.24,29.04C2249.97,712.96,2278.7,712.12,2283.48,699.62z"/>
				</g>
				<path class="st9" d="M2263.85,577.05l-27.94,8.5c0,0,36.49,4.96,38.68-5.57c0,0-4.03-21.18-8.57-41.31
					C2266.02,538.67,2268,575.79,2263.85,577.05z"/>
				<g>
					<path class="st10" d="M2219.27,534.51c0.17,5.75-2.89,10.49-6.79,10.6c-3.89,0.12-7.2-4.45-7.35-10.21
						c-0.15-5.75,2.88-10.49,6.77-10.61C2215.8,524.19,2219.12,528.77,2219.27,534.51z"/>
					<path class="st10" d="M2298.25,531.31c0.39,5.76-2.47,10.6-6.38,10.85c-3.89,0.27-7.35-4.16-7.73-9.92
						c-0.38-5.75,2.48-10.61,6.37-10.87C2294.41,521.12,2297.89,525.57,2298.25,531.31z"/>
					<path class="st19" d="M2228.09,515.6c2.48,0.73,3.37-2.63,3.37-2.63c1.04-3.25,0.27-6.1,0.27-6.1c-0.87-2.42-2.79-3.3-2.79-3.3
						c-6.47-1.4-19.3-0.7-30.3,1.71c-6.09,1.34-16.08,5.06-17.11,10.5c-0.3,1.63-0.67,4.45,1.16,5.09
						C2182.7,520.87,2203.67,516.03,2228.09,515.6z"/>
					<path class="st19" d="M2317.84,513.24c-7.13-0.4-19.74-0.66-35.28,1.09c-2.39,1.03-3.68-2.19-3.7-2.19
						c-1.45-3.08-1.06-6.02-1.06-6.02c0.53-2.49,2.36-3.61,2.36-3.61c6.23-2.24,15.03-3.13,26.25-2.16
						c3.35,0.28,9.13,1.17,12.92,2.71C2319.34,503.06,2319.94,505.21,2317.84,513.24z"/>
				</g>
				<g>
					<path class="st11" d="M2282.6,608.33c2.22,0.28,3.39,1.98,2.44,4.22c0,0-10.75,25.95-28.01,26.77
						c-17.28,0.82-30.47-23.96-30.47-23.96c-1.29-2.4-0.01-4.48,2.78-4.64C2229.34,610.72,2259.14,608.99,2282.6,608.33z"/>
				</g>
				<path class="st20" d="M2033.59,1355.98c0.29,14.3-21.42,163.92-12.29,165.83c0.05,0.02,248.23,57.21,380.59,0l0.54-154.18
					l70.23-429.28c0,0,24.21-64.52-24.19-96.77l-184.48-86.71l12.45,37.4l-26.66,75.84l-115.89-113.24l-221.78,131.08
					c12.39,41.05,24.71,82.15,37.09,123.23c22.87,75.71,45.13,151.64,68.68,227.13C2017.87,1236.32,2037.36,1318.22,2033.59,1355.98
					z"/>
				<polygon class="st21" points="2233.75,781.87 2232.22,850.99 2206.75,826.09 				"/>
				<g>
					<path class="st22" d="M2266.18,893.32c0,5.45-4.42,9.86-9.87,9.86c-5.45,0-9.87-4.41-9.87-9.86c0-5.44,4.42-9.85,9.87-9.85
						C2261.76,883.47,2266.18,887.88,2266.18,893.32z"/>
				</g>
				<g>
					<path class="st22" d="M2266.18,1072.4c0,5.43-4.42,9.85-9.87,9.85c-5.45,0-9.87-4.41-9.87-9.85c0-5.46,4.42-9.87,9.87-9.87
						C2261.76,1062.54,2266.18,1066.94,2266.18,1072.4z"/>
				</g>
				<g>
					<path class="st22" d="M2266.18,1251.45c0,5.46-4.42,9.87-9.87,9.87c-5.45,0-9.87-4.4-9.87-9.87c0-5.44,4.42-9.85,9.87-9.85
						C2261.76,1241.6,2266.18,1246.02,2266.18,1251.45z"/>
				</g>
				<g>
					<path class="st22" d="M2266.18,1430.53c0,5.44-4.42,9.86-9.87,9.86c-5.45,0-9.87-4.41-9.87-9.86c0-5.45,4.42-9.86,9.87-9.86
						C2261.76,1420.68,2266.18,1425.09,2266.18,1430.53z"/>
				</g>
				<line class="st23" x1="2233.75" y1="858.87" x2="2233.75" y2="1538.47"/>
				<g>
					<path class="st24" d="M2400.36,1535.98c0,0-126.76,59.39-386.18-1.3c-4.26-1.02-2.46-12.08-2.46-12.08l2.46-24.98
						c1.13-8,5.6-7.62,5.6-7.62c0.06,0.01,248.23,57.2,380.58,0c0,0,5.35-0.94,5.58,7.07v31.14
						C2405.94,1528.21,2405.94,1534.42,2400.36,1535.98z"/>
					<g>
						<path class="st25" d="M2271.59,1554.82c0,3.96-3.13,7.17-7,7.17h-50.49c-3.85,0-6.99-3.21-6.99-7.17v-36.36
							c0-3.96,3.13-7.17,6.99-7.17h50.49c3.87,0,7,3.21,7,7.17V1554.82z"/>
						<line class="st25" x1="2207.11" y1="1534.35" x2="2233.83" y2="1534.35"/>
					</g>
				</g>
				<path class="st16" d="M2233.75,780.32c0,0-81.38-31.62-100.52-63.08l-24.06,45.82l85.79,82.28l38.79-63.48"/>
				<path class="st19" d="M2024.29,505.02c32.8,98.9,81.44,134.48,81.44,134.48s-13.38-75.27,26.41-64.97l6.87-0.38
					c0,0-13.69-44.12,14.67-65.9c-13.44-17.29-2.53-51.82,0.2-56.75c13.75-24.85,53.44-14.26,76.66-20.83
					c17.96-5.09,62.61-12.67,72.9,9.04c77.95-2.25,38.58-96.73,38.58-96.73c-2.05,27.96-25.27,34.27-25.27,34.27
					c24.72-29.81-8.44-84.13-8.44-84.13c-33.71,27.03-122.23,32.56-122.23,32.56c-63.65-2.01-79.41,38.78-79.41,38.78
					S1988.25,387.76,2024.29,505.02z"/>
				<g>
					<g>
						<g>
							<g>
								<g>
									<g>
										<path class="st3" d="M2122.55,606.83c-3.56,3.01-8.22,4.88-14.13,5.06c-16.01,0.5-29.98-13.85-31.21-32.04
											c-1.2-18.16,10.75-33.31,26.73-33.83c7.59-0.23,14.72,2.87,20.24,8.14c8.05,7.68,8.99,22.47,7.65,32.78
											C2130.75,595.17,2127.88,602.32,2122.55,606.83z"/>
									</g>
								</g>
							</g>
						</g>
					</g>
					<g>
						<g>
							<path class="st9" d="M2111.18,562.67c-1.38-9.51-20.26,0.51-17.11,5.75c1.85,3.04,5.32,5.13,8.1,7.18
								c3.79,2.83,5.68,5.45,6.42,10.17c0.1,0.54,0.27,2.21-0.27,2.63c-2.42,1.85-11.03-7.12-12.93-8.98
								c-3.71-3.71-4.51-10.31-3.04-15.18c1.58-5.18,4.82-7.75,10.3-7.65c4.34,0.03,8.77,0.14,8.77,5.54
								C2111.42,562.24,2111.25,563.15,2111.18,562.67L2111.18,562.67z"/>
						</g>
						<g>
							<path class="st9" d="M2105.48,572.87c1.91-2.11,3.9-0.53,6.04,0.87c1.98,1.29,3.14,3.23,3.72,5.47
								c1.34,4.91,0.97,11.58-1.68,16.05c-2.12,3.62-5.89,5.93-10.1,6.01c-5.83,0.09-7.8-4.96-8.27-9.89
								c-0.12-1.3-0.37-4.43,0.89-5.3c1.35-0.93,2.45,1.17,3.42,2.05c1.35,1.18,3.28,1.57,5.01,1.64c3.34,0.14,6.51-1.7,8.49-4.26
								c0.34-0.46,0.63-1.01,0.82-1.55c0.13,3.23,0,3.96-0.43,2.21c-0.3-0.82-0.7-1.55-1.21-2.22c-1.43-2.19-3.79-3.61-5.37-5.64
								C2106.01,577.35,2104.51,573.94,2105.48,572.87L2105.48,572.87z"/>
						</g>
					</g>
				</g>
				<polygon class="st17" points="1966.88,1635.31 2183.78,1635.31 2195.68,1123.19 2097.04,776.66 1912.11,885.96 2008.01,1315.03 
									"/>
				<path class="st26" d="M2097.04,776.66l98.64,346.52l-0.42,16.45l-124.24-127.17c0,0-13.05-22.07,4.62-35.13l29.36-28.08
					l-20.94-15.01c0,0-29.35-14.24-25.79-40.93l8.41-100.34L2097.04,776.66z"/>
				<path class="st17" d="M2458.58,1635.31l-16.81-353.33L2478.71,915c13.07-66.23-50.86-83.11-50.86-83.11l-112.35-52.81
					l-15.72,334.75l38.94,521.47H2458.58z"/>
				<path class="st16" d="M2302.48,783.82c0,0-7.5-28.94-44.18-53.39l4.81,99.77C2263.11,830.21,2283.46,779.16,2302.48,783.82z"/>
				<path class="st21" d="M2305.8,830.21l-3.32-46.39c-11.21-2.75-21.22,12.95-29.39,25.81L2305.8,830.21z"/>
				<g>
					<polygon class="st27" points="2225.76,806.85 2222.75,801.25 2202.29,832.65 2219.87,838.92 					"/>
					<path class="st27" d="M2273.09,809.63l5.75-8.79c0,0,21.87,18.36-1.1,38.08C2277.74,838.92,2277.75,822.66,2273.09,809.63z"/>
					<path class="st28" d="M2225.76,806.85c0,0,17.33,15.42,47.33,2.78c6.56,8.34,6.55,18.97,4.65,29.29l-15.54,32.06h-21.71
						l-20.63-32.06C2219.87,838.92,2217.74,831.84,2225.76,806.85z"/>
					<polygon class="st27" points="2240.49,870.98 2222.94,1329.65 2259.57,1400.9 2289.45,1330.02 2262.2,870.98 					"/>
				</g>
				<path class="st26" d="M2315.51,779.09l28.96,13.63l20.92,96.61c0,0,10.48,25.02-4.7,31.55l-27.29,15.92l38.47,24.35
					c0,0,20.25,12.68,7.78,31.37l-77.17,150.67l-2.43-25.76L2315.51,779.09z"/>
				<path class="st3" d="M2119.2,1161.66l-45.11-35.61c0,0-67.89-9.96-101.79-5.68c0,0-11.22,15.59,74.42,17.97
					c0,0-60.06,19.19-79.33,33.47c0,0-3.1,17.75,51.82-8.04l25.01-1.84l-58.12,29.01c0,0,2.27,11.05,55.19-3.33l53.05,5.83
					L2119.2,1161.66z"/>
				<path class="st29" d="M2408,1168.28l-290.63-34.76c-14.52,17.74-28.53,49.97-22.29,83.69l371.23,117.75
					c0,0,98.08,17.4,72.21-100.71C2538.51,1234.25,2497.09,1174.02,2408,1168.28z"/>
				<path class="st3" d="M2408,1168.28c0,0-52.22,28.14-71.8,30.37l-30.39-52.43l41.51-26.93l28.48-6.56c0,0,46.8-12.08,59.15,52.17
					L2408,1168.28z"/>
				<g>
					<path class="st26" d="M1888.41,1269.97c-17.56,106.18,59.67,79.36,59.67,79.36l393.81-141.73
						c-11.11-61.01-36.08-70.56-36.08-70.56l-336.79,64.26C1969.01,1201.3,1905.63,1221.22,1888.41,1269.97z"/>
				</g>
			</g>
		</g>
	</g>
	<g>
		<path class="st0" d="M1765.97,1635.31h271.74c-11.88-77.62-28.65-146.05-52.32-189.46c0,0-262.3-12.96-222.85,164.81
			C1762.54,1610.65,1763.61,1619.59,1765.97,1635.31z"/>
		<path class="st30" d="M1961.63,646.61c5.31,66.02,17.86,130.86,54.03,188.02c10.03,15.86,20.25,32.72,34.19,45.54
			c-53.96,11.46-195.99,11.06-217.66-69.59c-14.15-52.75-17.24-107.95-15.36-162.32c1.7-49.16,2.81-104.08,23.66-149.51
			c18.99-41.32,85.99-40.78,110.87-2.93c12.09,18.37,5.32,40.96,5.99,61.78C1958.31,587.12,1959.24,616.98,1961.63,646.61z"/>
		<path class="st0" d="M1973.83,838.27c44.19-1.23,68.44,38.07,82.25,77.78c14.53,41.76-22.84,158.21-56.5,129.54
			c-66.16-56.34-99.18-90.24-100.42-134.43C1897.93,866.95,1929.63,839.5,1973.83,838.27z"/>
		<path class="st5" d="M1885.53,1241.71c10.14-1.84,51.96,19.75,51.96,19.75s52.23,167.86,54.47,193.39
			c2.25,25.5-173.29,157.64-369.37,82.4c0,0,90.78-236.39,96.34-294.6C1724.47,1184.44,1885.53,1241.71,1885.53,1241.71z"/>
		<path class="st6" d="M1937.49,1261.46c0,0,50.06,151.38,54.47,193.39c15.63,148.71-185.61,211.08-381.7,135.85
			c0,0-12.72-204.46,108.66-348.04C1718.93,1242.66,1751.18,1272.06,1937.49,1261.46z"/>
		<path class="st3" d="M1632.37,1635.31l-22.1-12.13c0,0,0.23,4.32,0.63,12.13H1632.37z"/>
		<path class="st3" d="M1875.11,1635.31c15.21-128.77-92.25-195.54-208.94-143.43c0,0-67.18,19.45-54.2,143.43H1875.11z"/>
		<path class="st3" d="M1761.8,829.44h136.49c-6.21-19.88-19.06-71.32,0.84-106.33l-137.9-90.54
			C1761.23,632.57,1785.75,784.52,1761.8,829.44z"/>
		<path class="st7" d="M1888.51,769.77c-0.4-15.21,2.11-31.67,10.62-46.66l-137.9-90.54c0,0,9.99,61.92,11.01,118.4
			C1822.03,766.8,1842.52,772.93,1888.51,769.77z"/>
		<path class="st3" d="M1670.32,842.3c-63.87,30.55-29.58,101.15-29.58,101.15l83.04,302.17c0,0,77.57,31.72,213.71,15.84
			c18.9-27.06,57.76-140.43,70.78-226.99c10.72-71.29,44.02-141.53,7.75-181.28c-13.91-15.24-119.83-30.45-120.38-32.94
			l-125.06-0.52L1670.32,842.3z"/>
		<g>
			<path class="st3" d="M1920.35,735.5l8.27-20.13l20.71-59.41c2.93-9.46,4.75-22.49,1.95-32.01c-3.38-11.45-5.51-29.93-0.27-50.21
				c14.02-54.31-8.88-84.2-8.88-84.2c-29.48-52.1-105.09-55.7-105.09-55.7c-93.73,0.11-105.94,90.23-105.94,90.23
				c-18.1,59.46,27.39,111.88,27.48,111.98c5.76,6.63,5.89,16.93,8.41,24.9c2.71,8.53,7.04,16.56,12.54,23.57
				c12.39,15.75,28.8,31.04,45.96,40.91c16.28,9.37,48.21,19.73,71.2,20.65C1906.24,746.47,1915.61,747.05,1920.35,735.5z"/>
			<path class="st30" d="M1767.26,671.48c1.69-42.71,2.63-40.04,2.63-40.04c1.63-12.43,24.72,15.71,25.06-0.56
				c1.45-74.5,30.28-108.53,41.14-113.71c29.48-14.06,59.99-17,83.75-11.51c37.29,8.59,33.3,58.58,33.3,58.58
				c41.36-181.66-166.04-133.48-166.04-133.48c-100.88,21.09-95.39,115.42-95.39,115.42c-17.32,100.12,78.92,163.17,78.92,163.17
				L1767.26,671.48z"/>
			<g>
				<g>
					<g>
						<g>
							<g>
								<g>
									<path class="st8" d="M1774.53,657.29c-3.46,2.4-7.83,3.66-13.17,3.28c-14.46-0.93-25.8-15.11-25.3-31.59
										c0.51-16.46,12.61-29.08,27.06-28.13c6.87,0.46,12.99,3.88,17.52,9.1c6.58,7.62,6.12,21.05,4.01,30.2
										C1782.96,647.47,1779.73,653.68,1774.53,657.29z"/>
								</g>
							</g>
						</g>
					</g>
				</g>
				<g>
					<g>
						<path class="st9" d="M1768.19,616.48c-0.41-8.7-18.34-1.32-15.94,3.69c1.4,2.88,4.37,5.09,6.67,7.18
							c3.16,2.85,4.66,5.4,4.9,9.73c0.04,0.48,0.06,2-0.47,2.31c-2.34,1.46-9.34-7.36-10.86-9.23c-3.03-3.67-3.16-9.66-1.4-13.93
							c1.85-4.52,5-6.54,9.91-5.99c3.94,0.43,7.92,0.9,7.45,5.78C1768.42,616.12,1768.21,616.92,1768.19,616.48L1768.19,616.48z"/>
					</g>
					<g>
						<path class="st9" d="M1762.12,625.17c1.92-1.72,3.59-0.12,5.37,1.31c1.68,1.36,2.54,3.19,2.89,5.25
							c0.78,4.55-0.14,10.54-2.91,14.33c-2.25,3.05-5.85,4.81-9.64,4.51c-5.28-0.41-6.59-5.15-6.57-9.62c0-1.18,0.06-4.02,1.24-4.7
							c1.32-0.73,2.11,1.29,2.91,2.16c1.11,1.17,2.82,1.7,4.38,1.91c2.98,0.4,6-0.97,8.01-3.1c0.34-0.38,0.68-0.83,0.87-1.32
							c-0.15,2.92-0.34,3.55-0.56,1.94c-0.19-0.76-0.51-1.46-0.89-2.12c-1.11-2.07-3.1-3.55-4.37-5.56
							C1762.24,629.26,1761.16,626.05,1762.12,625.17L1762.12,625.17z"/>
					</g>
				</g>
			</g>
			<g>
				<path class="st10" d="M1860.69,597.83c0.25,5.2-2.43,9.56-5.97,9.72c-3.52,0.15-6.58-3.93-6.82-9.13
					c-0.23-5.21,2.44-9.56,5.96-9.71C1857.41,588.55,1860.44,592.63,1860.69,597.83z"/>
				<path class="st10" d="M1933.09,591.79c-0.07,5.22-2.99,9.4-6.53,9.35c-3.54-0.04-6.34-4.32-6.27-9.53
					c0.07-5.21,2.99-9.39,6.53-9.33C1930.37,582.33,1933.17,586.58,1933.09,591.79z"/>
				<path class="st30" d="M1830.05,589.27c13.92-18.18,50.48-11.05,50.48-11.05s2.13-0.01,1.89-6.51c0,0,0.13-5.73-4.49-5.42
					C1877.92,566.29,1833.12,558.67,1830.05,589.27z"/>
				<path class="st30" d="M1951.87,571.24c0.08-20.11-38.69-9.4-38.69-9.4c-4.61-0.05-4.16,5.67-4.16,5.67
					c0.14,6.5,2.28,6.38,2.28,6.38s35.12-9.55,40.06-1.17C1952.85,568.56,1950.97,573.47,1951.87,571.24z"/>
				<path class="st9" d="M1884.21,648.7c26.93-0.58,28.76-7.54,28.76-7.54l-12.63-28.99
					C1900.34,612.17,1902.13,640.61,1884.21,648.7z"/>
				<g>
					<path class="st31" d="M1872.18,664l51.56-3.36c2.72-0.14,4.16,1.82,3.18,4.39c0,0-10.02,26.35-26.73,27.39
						c-16.73,1.02-29.92-23.92-29.92-23.92C1869.12,666.34,1870.05,664.51,1872.18,664z"/>
					<path class="st32" d="M1918.82,679.7c-4.55,6.26-10.87,12.23-18.63,12.72c-7.84,0.48-14.86-4.72-20.14-10.41
						C1889.36,670.4,1907.5,669.57,1918.82,679.7z"/>
					<path class="st11" d="M1871.68,664.24c0.17-0.07,0.31-0.18,0.5-0.24l51.56-3.36c0.54-0.02,0.98,0.09,1.41,0.2
						c1.54,2.24,0.06,6.38-4.02,9.13c-7.81,2.02-25.75,5.56-44.75,2.84C1871.68,668.77,1869.78,665.43,1871.68,664.24z"/>
				</g>
			</g>
			<path class="st11" d="M1775.08,660.35c-0.25,4.89-4.42,8.66-9.32,8.41c-4.9-0.24-8.65-4.42-8.4-9.31c0.25-4.9,4.4-8.66,9.29-8.41
				C1771.56,651.28,1775.32,655.45,1775.08,660.35z"/>
		</g>
		<path class="st33" d="M2008.27,845.01c0,0,33.5,0,52.49,84.83c0,0,92.92,282.12,33.32,298.44c0,0-88.99-17.54-172.74-242.2
			C1921.35,986.08,1913.68,850.39,2008.27,845.01z"/>
		<path class="st33" d="M1933.09,827.67l58.89,10.58c0,0,42.92,9.39,44.35,46.14c0,0,2.4,69.61-35.49,195.48
			C2000.85,1079.87,1938.19,886.72,1933.09,827.67z"/>
		<path class="st33" d="M1918.06,825.36l26.55,4.08c0,0,51.5,99.57,63.67,205.04c-13.02,86.56-39.12,217.63-70.78,226.99
			c-107.32,31.74-219.35-18.15-219.35-18.15l-51.31-204.92c137.84-53.66,68.19-211.21,68.19-211.21l28.95-6.93l121.82,123.15
			L1918.06,825.36"/>
		<path class="st12" d="M1972.51,893.32c0,0,53.86,74.6,63.24,113.02c6.18,25.27-37.86,82.15-73.42,92.19
			C1942.92,1104.01,1942.45,898.35,1972.51,893.32z"/>
		<path class="st6" d="M1972.51,893.32c0,0,53.86,74.6,63.24,113.02c6.18,25.27-37.86,82.15-73.42,92.19
			C1942.92,1104.01,1942.45,898.35,1972.51,893.32z"/>
		<g>
			<path class="st6" d="M1948.68,829.44c0,0,49.07,100.19,61.23,205.67c-13.03,86.55-40.76,217-72.42,226.36
				c-107.32,31.74-219.35-18.15-219.35-18.15l-51.31-204.92c137.84-53.66,68.19-211.21,68.19-211.21l28.95-6.93l128.88,184.24
				l25.21-179.13L1948.68,829.44z"/>
			<path class="st14" d="M1763.96,820.25l128.89,184.24l0,0l-92.7-25.08c0,0-13.46-11.41-4.92-23.87l12.76-24.88l-16.99-5.04
				c0,0-22.29-2.64-25.99-20.8l-13.91-81.48L1763.96,820.25z"/>
			<path class="st14" d="M1917.61,825.63l-24.75,178.87l0,0l50.36-46.78c0,0,20.72-16.84,1.32-25.26l-23.98-7.44l28.14-25.29
				c0,0,5.86-7.74,0-22.3l-16.9-50.24L1917.61,825.63z"/>
		</g>
		<g>
			<polygon class="st34" points="1867.46,854.56 1865.92,923.67 1840.46,898.79 			"/>
			<path class="st35" d="M1867.46,853.01c0,0-77.2-31.61-96.35-63.1l-36.08,37.27l93.65,90.85l38.78-63.48"/>
		</g>
		<path class="st35" d="M1936.18,856.52c0,0-7.48-28.94-44.17-53.4l4.79,99.78C1896.8,902.89,1917.16,851.86,1936.18,856.52z"/>
		<path class="st34" d="M1939.51,902.89l-3.34-46.37c-11.2-2.74-21.22,12.93-29.37,25.79L1939.51,902.89z"/>
		<path class="st6" d="M2043.68,1635.31c-14.6-81.58-33.82-156.28-58.96-202.64c0,0-356.65-33-373.28,100.31l-4.34,102.33H2043.68z"
			/>
		<path class="st33" d="M1642.35,863.17c0,0-14.32,14.94-25.87,57.76c0,0-56.51,206.56-14.92,311.53c0,0,13.59,21.32,48.57,30.8
			l111.11-267.28c0,0,47.38-111.91-27.87-169.78l-63.04,16.1C1670.32,842.3,1652.04,849.24,1642.35,863.17z"/>
		<path class="st3" d="M1740.14,1086.45l-39.69-31.34c0,0-59.71-8.76-89.54-4.98c0,0-9.87,13.7,65.46,15.8
			c0,0-52.84,16.87-69.79,29.43c0,0-2.72,15.63,45.6-7.08l21.98-1.62l-51.11,25.52c0,0,1.99,9.72,48.53-2.92l46.67,5.12
			L1740.14,1086.45z"/>
		<path class="st33" d="M1994.15,1092.27l-255.63-30.57c-12.79,15.61-25.11,43.94-19.62,73.62l326.55,103.57
			c0,0,86.27,15.3,63.51-88.59C2108.96,1150.29,2072.53,1097.32,1994.15,1092.27z"/>
		<path class="st3" d="M1994.15,1092.27c0,0-45.91,24.76-63.16,26.72l-26.72-46.12l36.52-23.68l25.04-5.77
			c0,0,41.18-10.63,52.02,45.89L1994.15,1092.27z"/>
		<g>
			<path class="st36" d="M1654.99,1264.68c0,0-70.03,6.41-52.47-69.81c15.15-42.88,70.89-60.39,70.89-60.39l230.86-69.68
				c0,0,21.96,8.4,31.73,62.08C1936,1126.87,1734.11,1266.72,1654.99,1264.68z"/>
		</g>
		<path class="st30" d="M1797.74,644.57c-8.51,65.7-9.68,131.71,13.82,195.15c6.51,17.6,13.01,36.21,23.99,51.65
			c-55.15,0-194.02-29.87-198.46-113.27c-2.9-54.53,5.54-109.17,18.67-161.97c11.87-47.74,24.35-101.23,54.19-141.35
			c27.15-36.48,92.56-22.04,109.06,20.16c8.01,20.48-3.3,41.16-6.96,61.67C1806.85,585.69,1801.56,615.1,1797.74,644.57z"/>
	</g>
	<g>
		<g>
			<g>
				<g>
					<path class="st0" d="M1703.42,1635.31c2.48-106.8-9.32-335.9-22.37-357.05c-15.42-25.01-97.92,28.28-97.92,28.28
						s56.68,223.39,76.76,328.77H1703.42z"/>
				</g>
				<g>
					<path class="st0" d="M1644.68,946.38l24.89,8.12c0,0,39.43,306.62,6.08,375.11c-33.37,68.49-71.76-0.33-84.28-8.09
						c-12.49-7.75-92.28-355.03-92.28-355.03L1644.68,946.38z"/>
					<path class="st37" d="M1698.27,1294.01l-15.92-384.12c-18.03-94.3-114.57-66.22-114.57-66.22
						c-78.28,20.37-74.52,108.11-74.52,108.11l67.32,367.92c0,0,14.1,56.26,86.54,56.26
						C1647.11,1375.97,1700.55,1368.77,1698.27,1294.01z"/>
				</g>
				<path class="st37" d="M1629.91,1635.31h84.06c-0.37-98.46-3.68-292.61-23.19-369.33c0,0-133.14,2.78-123.56,66.66
					C1567.22,1332.64,1592.17,1500.41,1629.91,1635.31z"/>
			</g>
			<path class="st3" d="M1597.47,1374.27l70.24-429.26c0,0,24.21-64.53-24.2-96.79l-184.46-86.7h-130.11l-221.78,131.07
				l145.37,481.68H1597.47z"/>
			<path class="st18" d="M1597.01,1635.31l0.46-261.04h-344.94c0,0-34.85,79.62-47.22,261.04H1597.01z"/>
			<g>
				<path class="st38" d="M1443.14,1635.31c-16.07-51.39-62.94-88.42-118.01-88c-54.42,0.4-100.28,37.28-116.11,88H1443.14z"/>
				<path class="st38" d="M1345.71,1635.31c-9.45-1.39-19.74-1.49-30.89,0H1345.71z"/>
			</g>
			<g>
				<path class="st38" d="M1588.61,1635.31c-15.12-49.3-49.29-82.53-103.44-77c-46.41,4.73-84.06,35.54-100.79,77H1588.61z"/>
			</g>
			<g>
				<path class="st3" d="M1120.3,1635.31c-2.53-56.99-2.7-117.34,15.44-299.28c0,0-79.9-37.03-97.13,3.05
					c-8.05,18.77,7.25,187.97,25.07,296.23H1120.3z"/>
				<path class="st3" d="M1192.03,900.47c-85.63-19.5-114.87,59.64-114.87,59.64s-43,263.43-42.47,376.31
					c0.35,76.17,93.3,14.83,99.41,1.44c13.45-29.55,111.15-346.87,111.15-346.87S1250.32,916.46,1192.03,900.47z"/>
				<path class="st39" d="M1148.56,1342.28l111.05-360.01c-2.49-89.48-90.07-102.84-90.07-102.84
					c-82.35-7.88-100.39,62.98-100.39,62.98l-39.84,360.4c0,0-13.51,81.01,33.29,82.18
					C1062.61,1384.99,1141.15,1393.51,1148.56,1342.28z"/>
				<path class="st39" d="M1139.05,1635.31c6.33-106.1,16.25-314.87,16.25-314.87c-37.78-65.76-125.99-17.62-125.99-17.62
					c-15.73,66.13,10.56,238.41,27.08,332.5H1139.05z"/>
			</g>
			<path class="st3" d="M1328.28,666.7v139.07h147.07c0,0-36.18-55.13-18.08-139.07H1328.28z"/>
			<path class="st7" d="M1402.88,784.8c13.26,8.53,41.42,26.68,57.5,16.05c4.32-2.87,6.32-6.62,6.97-10.79
				c-9.46-22.02-22.46-65.94-10.09-123.36h-128.99v12.61C1344.38,720.02,1365.02,760.39,1402.88,784.8z"/>
			<g>
				<path class="st8" d="M1324.78,668.64c0,0-25.03-10.87-53.36-72.81c0,0-61.53-73.23-17.92-156.39c0,0,25.77-70.33,150.62-50.64
					C1404.11,388.79,1415.34,577.26,1324.78,668.64z"/>
				<path class="st3" d="M1478.53,706.26l8.34-21.79c0,0,22.98-81.14,22.98-81.16c2.88-10.2,3.04-23.84,1.19-34.33
					c-2.01-11.42-3.31-23.33-0.33-35.35c14.49-58.35-15.41-91.47-15.41-91.47c-32.95-55.03-114.05-56.86-114.05-56.86
					c-100.42,2.61-111.11,99.47-111.11,99.47c-17.78,64.19,32.32,119.13,32.43,119.26c4,4.37,1.39,25.57,2.48,31.64
					c4.7,25.89,28.99,42.29,50.58,53.71c23.72,12.54,52.45,25.95,79.24,29.04C1445.03,719.61,1473.76,718.75,1478.53,706.26z"/>
			</g>
			<path class="st9" d="M1458.92,583.71l-27.96,8.48c0,0,36.5,4.96,38.69-5.56c0,0-4.03-21.2-8.58-41.32
				C1461.07,545.31,1463.04,582.43,1458.92,583.71z"/>
			<g>
				<path class="st10" d="M1414.32,541.04c0.27,5.75-2.72,10.53-6.62,10.7c-3.89,0.18-7.28-4.32-7.51-10.08
					c-0.26-5.73,2.71-10.54,6.6-10.71C1410.68,530.76,1414.09,535.3,1414.32,541.04z"/>
				<path class="st10" d="M1493.32,538.08c0.29,5.75-2.68,10.54-6.58,10.73c-3.89,0.19-7.28-4.31-7.56-10.07
					c-0.28-5.75,2.67-10.56,6.57-10.74C1489.66,527.82,1493.06,532.33,1493.32,538.08z"/>
				<path class="st40" d="M1423.14,522.25c2.51,0.71,3.37-2.66,3.37-2.66c1.04-3.23,0.27-6.1,0.27-6.1
					c-0.85-2.42-2.77-3.28-2.77-3.28c-6.49-1.4-19.31-0.71-30.32,1.7c-6.08,1.33-16.06,5.07-17.1,10.5
					c-0.31,1.62-0.67,4.45,1.16,5.09C1377.75,527.5,1398.73,522.66,1423.14,522.25z"/>
				<path class="st40" d="M1513.6,516.99c-7.15-0.41-26.01,2.59-41.56,4.34c-2.39,1.01-3.67-2.19-3.69-2.19
					c-1.45-3.08-1.06-6.03-1.06-6.03c0.53-2.49,2.35-3.61,2.35-3.61c6.23-2.23,23.22-5.9,34.44-4.92c3.35,0.29,8.74,1.95,10.3,5.13
					C1514.39,509.71,1515.68,508.94,1513.6,516.99z"/>
			</g>
			<path class="st20" d="M1228.66,1362.62c0.3,14.31-21.42,163.92-12.3,165.85c0.06,0,248.22,57.19,380.58,0l0.53-154.19
				l70.24-429.26c0,0,24.21-64.53-24.2-96.79l-184.46-86.7l12.44,37.39l-26.67,75.86l-115.88-113.25l-221.78,131.07
				c12.39,41.07,24.71,82.16,37.12,123.23c22.86,75.7,45.11,151.64,68.66,227.15C1212.94,1242.97,1232.42,1324.87,1228.66,1362.62z"
				/>
			<polygon class="st21" points="1428.81,788.51 1427.27,857.62 1401.82,832.74 			"/>
			<g>
				<path class="st22" d="M1461.23,899.96c0,5.43-4.42,9.86-9.87,9.86c-5.44,0-9.86-4.42-9.86-9.86c0-5.45,4.42-9.87,9.86-9.87
					C1456.81,890.1,1461.23,894.52,1461.23,899.96z"/>
			</g>
			<g>
				<path class="st22" d="M1461.23,1079.03c0,5.45-4.42,9.85-9.87,9.85c-5.44,0-9.86-4.4-9.86-9.85c0-5.45,4.42-9.86,9.86-9.86
					C1456.81,1069.17,1461.23,1073.58,1461.23,1079.03z"/>
			</g>
			<g>
				<path class="st22" d="M1461.23,1258.1c0,5.45-4.42,9.86-9.87,9.86c-5.44,0-9.86-4.42-9.86-9.86c0-5.45,4.42-9.87,9.86-9.87
					C1456.81,1248.23,1461.23,1252.65,1461.23,1258.1z"/>
			</g>
			<g>
				<path class="st22" d="M1461.23,1437.17c0,5.45-4.42,9.87-9.87,9.87c-5.44,0-9.86-4.42-9.86-9.87c0-5.43,4.42-9.87,9.86-9.87
					C1456.81,1427.3,1461.23,1431.74,1461.23,1437.17z"/>
			</g>
			<line class="st23" x1="1428.81" y1="865.49" x2="1428.81" y2="1545.1"/>
			<g>
				<path class="st24" d="M1595.42,1542.61c0,0-126.76,59.39-386.18-1.29c-4.25-1.01-2.46-12.09-2.46-12.09l2.46-24.97
					c1.14-7.99,5.61-7.61,5.61-7.61c0.05,0,248.22,57.18,380.58,0c0,0,5.35-0.95,5.56,7.06v31.14
					C1600.98,1534.85,1600.98,1541.06,1595.42,1542.61z"/>
				<g>
					<path class="st25" d="M1466.65,1561.46c0,3.96-3.13,7.17-7,7.17h-50.49c-3.85,0-6.99-3.21-6.99-7.17v-36.37
						c0-3.95,3.14-7.16,6.99-7.16h50.49c3.87,0,7,3.22,7,7.16V1561.46z"/>
					<line class="st25" x1="1402.17" y1="1540.99" x2="1428.9" y2="1540.99"/>
				</g>
			</g>
			<path class="st16" d="M1428.81,786.97c0,0-81.38-31.62-100.54-63.09l-24.04,45.83l85.79,82.28l38.78-63.48"/>
			<path class="st40" d="M1425.59,437.31c15.94-4.52,34.34-7.57,50.82-4.57c16.47,3,25.75,25.07,42.75,13.87
				c6.88-4.54,20.01-14.48,24.32-21.33c6.62-10.53-7.72-30.26-17.5-33.82c-10.96-3.98-9.89-7.59-15.3-18.35
				c-4.59-9.15-5.71-17.61-17.04-20.72c-10.83-2.97-21.23,4.24-31.79,2.67c-18.21-2.69-21.63-22.31-40.74-25.67
				c-21.11-3.71-32.28,31.7-53.16,30.31c-18.09-1.21-29.78-17-49.39-13.23c-20.22,3.89-25.41,25.55-43.7,31.87
				c-18.67,6.43-39.28,3.02-44.87,27.21c-4.54,19.69,4.09,33.11-9.88,49.9c-15.52,18.67-9.89,38.12-1.62,57.77
				c14.87,35.36,29.71,70.33,52.75,101.29c6.42,8.64,13.54,16.97,21.3,24.41c1.32,1.26,7.93,5.48,8.23,7.21
				c0-0.04-13.35-75.26,26.42-64.96l6.87-0.39c0,0-13.68-44.13,14.66-65.91c-13.44-17.29-2.52-51.8,0.21-56.73
				C1362.68,433.3,1402.36,443.9,1425.59,437.31z"/>
			<g>
				<g>
					<g>
						<g>
							<g>
								<g>
									<path class="st3" d="M1317.61,613.48c-3.56,3-8.22,4.86-14.14,5.04c-16,0.52-29.96-13.83-31.19-32.04
										c-1.23-18.16,10.72-33.32,26.7-33.82c7.59-0.23,14.74,2.87,20.25,8.12c8.05,7.68,8.99,22.48,7.66,32.79
										C1325.8,601.81,1322.94,608.96,1317.61,613.48z"/>
								</g>
							</g>
						</g>
					</g>
				</g>
				<g>
					<g>
						<path class="st9" d="M1306.24,569.3c-1.39-9.52-20.27,0.51-17.11,5.77c1.85,3.01,5.34,5.11,8.1,7.16
							c3.77,2.84,5.68,5.45,6.42,10.18c0.1,0.56,0.28,2.21-0.26,2.63c-2.42,1.84-11.04-7.11-12.93-9
							c-3.71-3.69-4.52-10.31-3.04-15.16c1.58-5.19,4.81-7.77,10.28-7.67c4.34,0.05,8.79,0.13,8.77,5.56
							C1306.46,568.89,1306.32,569.8,1306.24,569.3L1306.24,569.3z"/>
					</g>
					<g>
						<path class="st9" d="M1300.53,579.52c1.91-2.13,3.9-0.55,6.04,0.86c1.96,1.29,3.14,3.22,3.72,5.46
							c1.33,4.92,0.96,11.59-1.68,16.06c-2.13,3.61-5.89,5.92-10.11,6.01c-5.82,0.09-7.78-4.96-8.26-9.89
							c-0.11-1.29-0.37-4.43,0.89-5.29c1.34-0.92,2.44,1.18,3.41,2.06c1.35,1.18,3.28,1.55,5,1.62c3.35,0.15,6.51-1.7,8.49-4.26
							c0.34-0.46,0.64-1,0.81-1.54c0.14,3.22,0.01,3.97-0.41,2.19c-0.3-0.8-0.7-1.53-1.21-2.21c-1.44-2.17-3.79-3.6-5.39-5.65
							C1301.07,584,1299.57,580.59,1300.53,579.52L1300.53,579.52z"/>
					</g>
				</g>
			</g>
			<polygon class="st39" points="1162.79,1635.31 1378.98,1635.31 1390.73,1129.82 1292.09,783.31 1107.16,892.59 1203.06,1321.68 
							"/>
			<path class="st41" d="M1292.09,783.31l98.63,346.51l-0.42,16.45l-124.23-127.16c0,0-13.06-22.07,4.62-35.13l29.35-28.09
				l-20.92-15.01c0,0-29.36-14.24-25.79-40.93l8.41-100.35L1292.09,783.31z"/>
			<path class="st39" d="M1653.31,1635.31l-16.5-346.7l36.96-366.96c13.07-66.25-50.87-83.11-50.87-83.11l-112.33-52.8
				l-15.73,334.75l38.45,514.82H1653.31z"/>
			<path class="st16" d="M1497.54,790.47c0,0-7.49-28.95-44.18-53.41l4.8,99.78C1458.16,836.84,1478.53,785.81,1497.54,790.47z"/>
			<path class="st21" d="M1500.87,836.84l-3.33-46.37c-11.21-2.75-21.22,12.93-29.38,25.79L1500.87,836.84z"/>
			<g>
				<polygon class="st42" points="1420.8,813.5 1417.8,807.9 1397.34,839.29 1414.93,845.55 				"/>
				<path class="st42" d="M1468.16,816.26l5.74-8.79c0,0,21.86,18.37-1.11,38.08C1472.79,845.55,1472.81,829.31,1468.16,816.26z"/>
				<path class="st43" d="M1420.8,813.5c0,0,17.35,15.4,47.35,2.76c6.56,8.36,6.54,18.99,4.63,29.3l-15.54,32.06h-21.7l-20.62-32.06
					C1414.93,845.55,1412.81,838.48,1420.8,813.5z"/>
				<polygon class="st42" points="1435.55,877.61 1418.01,1336.3 1454.63,1407.54 1484.52,1336.65 1457.25,877.61 				"/>
			</g>
			<path class="st41" d="M1510.56,785.74l28.96,13.61l20.91,96.63c0,0,10.49,24.99-4.69,31.54l-27.29,15.92l38.46,24.37
				c0,0,20.25,12.68,7.79,31.36l-77.18,150.68l-2.43-25.77L1510.56,785.74z"/>
			<g>
				<path class="st31" d="M1418.78,619.16l61.77-4.02c3.25-0.17,4.98,2.19,3.81,5.25c0,0-12.02,31.57-32.04,32.81
					c-20.04,1.25-35.84-28.64-35.84-28.64C1415.11,621.97,1416.22,619.78,1418.78,619.16z"/>
				<path class="st32" d="M1474.64,637.99c-5.44,7.49-13.01,14.64-22.32,15.21c-9.37,0.58-17.8-5.64-24.13-12.46
					C1439.35,626.82,1461.09,625.83,1474.64,637.99z"/>
				<path class="st11" d="M1418.18,619.45c0.19-0.1,0.36-0.21,0.59-0.29l61.77-4.02c0.65-0.02,1.16,0.12,1.68,0.26
					c-1.59,3.65-3.17,7.31-4.82,10.93c-9.35,2.41-30.82,6.66-53.6,3.41C1422.13,626.2,1420.25,622.77,1418.18,619.45z"/>
			</g>
		</g>
	</g>
	<g>
		<g>
			<g>
				<g>
					<path class="st0" d="M711,1635.31c20.07-105.4,76.75-328.78,76.75-328.78s-82.5-53.28-97.92-28.27
						c-13.05,21.15-24.85,250.25-22.37,357.05H711z"/>
				</g>
				<g>
					<path class="st0" d="M726.2,946.39l-24.91,8.11c0,0-39.43,306.63-6.06,375.12c33.36,68.5,71.76-0.34,84.27-8.1
						c12.49-7.77,92.28-355.03,92.28-355.03L726.2,946.39z"/>
					<path class="st44" d="M672.6,1294.02l15.92-384.13c18.01-94.29,114.57-66.22,114.57-66.22
						c78.28,20.39,74.52,108.11,74.52,108.11l-67.3,367.95c0,0-14.11,56.25-86.55,56.26
						C723.77,1375.98,670.33,1368.77,672.6,1294.02z"/>
				</g>
				<path class="st44" d="M740.96,1635.31c37.74-134.89,62.69-302.66,62.69-302.66c9.59-63.88-123.55-66.67-123.55-66.67
					c-19.52,76.72-22.82,270.87-23.19,369.33H740.96z"/>
			</g>
			<path class="st3" d="M773.39,1374.28l-70.23-429.27c0,0-24.19-64.53,24.21-96.78l184.47-86.71h130.11l221.78,131.08
				l-145.37,481.69H773.39z"/>
			<path class="st18" d="M1165.58,1635.31c-12.37-181.41-47.22-261.03-47.22-261.03H773.39l0.46,261.03H1165.58z"/>
			<g>
				<path class="st38" d="M1161.87,1635.31c-15.82-50.74-61.7-87.61-116.13-88.01c-55.05-0.41-101.93,36.62-118,88.01H1161.87z"/>
				<path class="st38" d="M1056.07,1635.31c-11.16-1.5-21.46-1.39-30.91,0H1056.07z"/>
			</g>
			<g>
				<path class="st38" d="M986.49,1635.31c-16.73-41.45-54.38-72.26-100.8-76.99c-54.13-5.53-88.29,27.69-103.41,76.99H986.49z"/>
			</g>
			<g>
				<path class="st3" d="M1250.59,1635.31h56.6c17.82-108.26,33.12-277.46,25.07-296.23c-17.23-40.08-97.12-3.05-97.12-3.05
					C1253.28,1517.97,1253.12,1578.33,1250.59,1635.31z"/>
				<path class="st3" d="M1178.85,900.47c85.63-19.49,114.88,59.65,114.88,59.65s42.98,263.42,42.46,376.31
					c-0.35,76.17-93.3,14.82-99.41,1.43c-13.46-29.55-111.13-346.84-111.13-346.84S1120.56,916.47,1178.85,900.47z"/>
				<path class="st45" d="M1222.32,1342.29l-111.05-360.02c2.51-89.48,90.07-102.84,90.07-102.84
					c82.35-7.89,100.39,62.98,100.39,62.98l39.84,360.4c0,0,13.51,81.02-33.29,82.18
					C1308.27,1384.99,1229.73,1393.51,1222.32,1342.29z"/>
				<path class="st45" d="M1314.47,1635.31c16.52-94.09,42.82-266.38,27.09-332.5c0,0-88.21-48.13-125.99,17.63
					c0,0,9.93,208.78,16.26,314.87H1314.47z"/>
			</g>
			<path class="st3" d="M1042.61,666.7v139.06H895.54c0,0,36.17-55.12,18.08-139.06H1042.61z"/>
			<path class="st7" d="M967.99,784.8c-13.25,8.52-41.41,26.67-57.5,16.05c-4.3-2.86-6.31-6.61-6.96-10.78
				c9.45-22.02,22.46-65.95,10.09-123.37h128.99v12.62C1026.49,720.02,1005.85,760.38,967.99,784.8z"/>
			<g>
				<path class="st8" d="M1046.11,668.64c0,0,25.03-10.87,53.37-72.81c0,0,61.53-73.25,17.92-156.41c0,0-25.77-70.32-150.62-50.64
					C966.77,388.79,955.54,577.26,1046.11,668.64z"/>
				<path class="st3" d="M892.35,706.26l-8.32-21.8c0,0-22.99-81.13-22.99-81.14c-2.87-10.2-3.05-23.85-1.19-34.34
					c2.01-11.41,3.29-23.32,0.34-35.36c-14.51-58.35,15.39-91.47,15.39-91.47c32.95-55.03,114.05-56.85,114.05-56.85
					c100.41,2.62,111.11,99.47,111.11,99.47c17.77,64.17-32.33,119.13-32.44,119.25c-4.01,4.37-1.4,25.58-2.48,31.65
					c-4.71,25.88-28.99,42.29-50.57,53.71c-23.73,12.53-52.46,25.95-79.25,29.03C925.84,719.61,897.12,718.77,892.35,706.26z"/>
			</g>
			<path class="st9" d="M911.97,583.7l27.95,8.5c0,0-36.5,4.96-38.68-5.57c0,0,4.02-21.18,8.57-41.31
				C909.81,545.31,907.83,582.44,911.97,583.7z"/>
			<g>
				<path class="st10" d="M956.54,541.04c-0.25,5.74,2.73,10.54,6.62,10.7c3.89,0.18,7.28-4.34,7.53-10.08
					c0.25-5.75-2.7-10.54-6.6-10.71C960.2,530.77,956.79,535.29,956.54,541.04z"/>
				<path class="st10" d="M877.55,538.08c-0.28,5.75,2.68,10.54,6.58,10.74c3.91,0.18,7.28-4.31,7.56-10.07
					c0.27-5.75-2.67-10.56-6.56-10.75C881.21,527.83,877.83,532.33,877.55,538.08z"/>
				<path class="st10" d="M947.73,522.25c-2.5,0.73-3.37-2.65-3.37-2.65c-1.05-3.24-0.28-6.1-0.28-6.1c0.86-2.41,2.8-3.28,2.8-3.28
					c6.47-1.4,19.3-0.71,30.29,1.71c6.1,1.34,16.09,5.05,17.12,10.5c0.29,1.63,0.67,4.45-1.17,5.09
					C993.12,527.51,972.15,522.67,947.73,522.25z"/>
				<path class="st10" d="M857.28,516.97c7.15-0.4,26.01,2.6,41.56,4.36c2.39,1.01,3.67-2.2,3.69-2.2c1.44-3.09,1.06-6.01,1.06-6.01
					c-0.54-2.5-2.35-3.63-2.35-3.63c-6.24-2.21-23.22-5.89-34.45-4.91c-3.35,0.3-8.74,1.95-10.3,5.13
					C856.49,509.71,855.2,508.95,857.28,516.97z"/>
			</g>
			<path class="st11" d="M1142.23,1362.62c-0.29,14.3,21.42,163.92,12.29,165.83c-0.05,0.02-248.22,57.21-380.59,0l-0.54-154.17
				l-70.23-429.27c0,0-24.19-64.53,24.21-96.78l184.47-86.71l-12.46,37.4l26.67,75.86l115.89-113.25l221.78,131.08
				c-12.4,41.06-24.72,82.16-37.11,123.23c-22.87,75.71-45.12,151.64-68.65,227.14C1157.96,1242.97,1138.47,1324.86,1142.23,1362.62
				z"/>
			<polygon class="st46" points="942.06,788.51 943.61,857.63 969.06,832.73 			"/>
			<g>
				<g>
					<path class="st47" d="M909.65,899.95c0,5.46,4.41,9.87,9.87,9.87c5.44,0,9.86-4.42,9.86-9.87c0-5.43-4.42-9.84-9.86-9.84
						C914.06,890.11,909.65,894.52,909.65,899.95z"/>
				</g>
				<g>
					<path class="st47" d="M909.65,1079.04c0,5.43,4.41,9.85,9.87,9.85c5.44,0,9.86-4.42,9.86-9.85c0-5.46-4.42-9.87-9.86-9.87
						C914.06,1069.18,909.65,1073.58,909.65,1079.04z"/>
				</g>
				<g>
					<path class="st47" d="M909.65,1258.09c0,5.46,4.41,9.87,9.87,9.87c5.44,0,9.86-4.41,9.86-9.87c0-5.44-4.42-9.85-9.86-9.85
						C914.06,1248.25,909.65,1252.66,909.65,1258.09z"/>
				</g>
				<g>
					<path class="st47" d="M909.65,1437.18c0,5.44,4.41,9.86,9.87,9.86c5.44,0,9.86-4.42,9.86-9.86c0-5.44-4.42-9.87-9.86-9.87
						C914.06,1427.31,909.65,1431.73,909.65,1437.18z"/>
				</g>
			</g>
			<line class="st48" x1="942.06" y1="865.5" x2="942.06" y2="1545.11"/>
			<g>
				<path class="st24" d="M775.45,1542.62c0,0,126.77,59.39,386.19-1.3c4.27-1.02,2.47-12.09,2.47-12.09l-2.47-24.97
					c-1.12-8-5.6-7.63-5.6-7.63c-0.06,0.02-248.22,57.21-380.59,0c0,0-5.34-0.93-5.56,7.08v31.14
					C769.88,1534.85,769.88,1541.06,775.45,1542.62z"/>
				<g>
					<path class="st25" d="M904.23,1561.46c0,3.96,3.13,7.17,7.01,7.17h50.48c3.85,0,7-3.21,7-7.17v-36.36c0-3.95-3.15-7.17-7-7.17
						h-50.48c-3.87,0-7.01,3.22-7.01,7.17V1561.46z"/>
					<line class="st25" x1="968.72" y1="1540.99" x2="941.98" y2="1540.99"/>
				</g>
			</g>
			<path class="st47" d="M942.06,786.96c0,0,81.38-31.61,100.55-63.08l24.04,45.83l-85.79,82.27l-38.8-63.47"/>
			<path class="st10" d="M828.7,366.31c10.68,26.22,34.08,34.09,34.08,34.09c-2.84,8.82-21.45,15.46-21.45,15.46
				c16.51,28.17,53.15,16.88,53.15,16.88c16.47-3.01,34.88,0.05,50.81,4.57c23.21,6.57,62.91-4.01,76.65,20.83
				c2.73,4.94,13.64,39.46,0.21,56.75c28.36,21.79,14.66,65.9,14.66,65.9l6.86,0.38c39.78-10.29,26.42,64.93,26.42,64.96
				c0.31-1.73,6.92-5.94,8.24-7.2c7.77-7.46,24.18-34.21,29.32-43.65c27.99-51.32,25.36-53.94,32.85-84.24
				c5.14-20.68,2.92-76.73-27.19-104.9c0,0,9.35-36.91-48.92-59.25c0,0-124.28-31.2-184.54,9.87
				C879.87,356.76,852.98,370.2,828.7,366.31z"/>
			<path class="st40" d="M1002.93,359.71"/>
			<g>
				<g>
					<g>
						<g>
							<g>
								<g>
									<path class="st3" d="M1053.28,613.48c3.55,3,8.21,4.87,14.13,5.04c16.01,0.5,29.97-13.84,31.21-32.04
										c1.22-18.16-10.73-33.31-26.73-33.82c-7.57-0.24-14.71,2.86-20.23,8.13c-8.05,7.68-8.98,22.48-7.65,32.78
										C1045.08,601.81,1047.95,608.96,1053.28,613.48z"/>
								</g>
							</g>
						</g>
					</g>
				</g>
				<g>
					<g>
						<path class="st9" d="M1064.64,569.31c1.38-9.52,20.27,0.52,17.1,5.75c-1.84,3.04-5.32,5.12-8.08,7.18
							c-3.79,2.83-5.69,5.45-6.42,10.17c-0.11,0.54-0.28,2.2,0.27,2.63c2.41,1.86,11.04-7.12,12.93-8.98
							c3.71-3.7,4.51-10.31,3.03-15.18c-1.58-5.18-4.79-7.74-10.28-7.65c-4.34,0.04-8.78,0.14-8.78,5.54
							C1064.41,568.89,1064.56,569.79,1064.64,569.31L1064.64,569.31z"/>
					</g>
					<g>
						<path class="st9" d="M1070.35,579.5c-1.91-2.1-3.91-0.53-6.05,0.87c-1.96,1.3-3.13,3.24-3.72,5.48
							c-1.34,4.91-0.97,11.58,1.67,16.05c2.13,3.61,5.9,5.93,10.12,6.01c5.82,0.08,7.79-4.97,8.25-9.89c0.13-1.3,0.37-4.43-0.89-5.3
							c-1.34-0.93-2.44,1.17-3.41,2.06c-1.35,1.18-3.29,1.56-5.01,1.63c-3.34,0.14-6.51-1.7-8.49-4.26
							c-0.33-0.46-0.63-1.01-0.8-1.55c-0.14,3.23-0.01,3.97,0.41,2.2c0.3-0.82,0.7-1.54,1.22-2.22c1.43-2.17,3.79-3.6,5.38-5.64
							C1069.82,583.98,1071.3,580.59,1070.35,579.5L1070.35,579.5z"/>
					</g>
				</g>
			</g>
			<polygon class="st45" points="1208.09,1635.31 1167.81,1321.68 1263.73,892.6 1078.8,783.3 980.14,1129.83 991.9,1635.31 			"/>
			<path class="st49" d="M1078.8,783.3l-98.66,346.53l0.43,16.46l124.24-127.17c0,0,13.06-22.07-4.61-35.13l-29.36-28.08
				l20.93-15.01c0,0,29.35-14.24,25.8-40.94l-8.4-100.34L1078.8,783.3z"/>
			<path class="st45" d="M734.05,1288.62l-16.49,346.69H837.6l38.44-514.83l-15.72-334.74l-112.35,52.8c0,0-63.94,16.87-50.86,83.12
				L734.05,1288.62z"/>
			<path class="st47" d="M873.35,790.47c0,0,7.48-28.95,44.18-53.4l-4.8,99.77C912.72,836.85,892.35,785.8,873.35,790.47z"/>
			<path class="st46" d="M870.02,836.85l3.33-46.38c11.21-2.75,21.22,12.94,29.37,25.79L870.02,836.85z"/>
			<path class="st49" d="M860.32,785.74l-28.96,13.62l-20.91,96.61c0,0-10.49,25.01,4.68,31.55l27.29,15.93l-38.46,24.34
				c0,0-20.25,12.69-7.79,31.37l77.18,150.68l2.41-25.76L860.32,785.74z"/>
			<g>
				<path class="st31" d="M952.11,619.17l-61.78-4.03c-3.25-0.17-4.98,2.19-3.81,5.26c0,0,12.01,31.56,32.04,32.81
					c20.04,1.23,35.84-28.64,35.84-28.64C955.77,621.97,954.66,619.78,952.11,619.17z"/>
				<path class="st32" d="M896.23,637.99c5.45,7.49,13.01,14.64,22.32,15.22c9.38,0.58,17.8-5.65,24.12-12.46
					C931.53,626.83,909.8,625.83,896.23,637.99z"/>
				<path class="st11" d="M952.7,619.45c-0.21-0.09-0.37-0.22-0.59-0.29l-61.78-4.03c-0.64-0.02-1.17,0.11-1.68,0.24
					c1.6,3.66,3.17,7.32,4.82,10.95c9.36,2.42,30.83,6.67,53.6,3.4C948.74,626.21,950.64,622.77,952.7,619.45z"/>
			</g>
			<path class="st10" d="M1054.44,628.06l-10.76-46.89l-6.86-0.38c0,0-6.94,31.06-44.11,36.55c0,0-16.06,2.44-22.91,3.34
				c-0.89,0.12-10.79-9.66-12.07-10.49c-10.99-7.16-24.21-9.09-37.03-10.1c-13.11-1-27.12-2.27-39.69,2.5
				c-1.65,0.64-17.72,8.78-18.24,6.49c0,0,16.98,75.13,28.95,96.61c0,0,5.22,16.53,43.83,12.48c0,0,66.29-5.88,117.77-53.86
				C1061.85,657.89,1054.44,628.06,1054.44,628.06z M881.38,624.85c1.53-7.81,1.84-12.74,8.54-13.98
				c13.22-2.43,27.68-0.17,40.83,1.51c10.64,1.34,23.84,2.73,28.18,14.36c3.84,10.22,1.04,25.15-4.35,34.5
				c-9.09,15.77-38.54,23.89-53.47,13.69C888.42,666.22,878.52,639.58,881.38,624.85z"/>
			<g>
				<polygon class="st50" points="950.07,813.5 953.08,807.89 973.53,839.29 955.95,845.56 				"/>
				<path class="st50" d="M902.72,816.26l-5.73-8.79c0,0-21.87,18.37,1.09,38.08C898.08,845.56,898.08,829.31,902.72,816.26z"/>
				<path class="st51" d="M950.07,813.5c0,0-17.34,15.42-47.35,2.77c-6.56,8.35-6.54,18.97-4.64,29.29l15.54,32.06h21.71
					l20.62-32.06C955.95,845.56,958.07,838.49,950.07,813.5z"/>
				<polygon class="st50" points="935.33,877.62 952.87,1336.29 916.26,1407.54 886.38,1336.66 913.62,877.62 				"/>
			</g>
		</g>
	</g>
</g>
</svg>
