<?xml version="1.0" encoding="utf-8"?>
<!-- Generator: Adobe Illustrator 24.3.0, SVG Export Plug-In . SVG Version: 6.00 Build 0)  -->
<svg version="1.1" xmlns="http://www.w3.org/2000/svg" xmlns:xlink="http://www.w3.org/1999/xlink" x="0px" y="0px"
	 viewBox="0 0 500 500" style="enable-background:new 0 0 500 500;" xml:space="preserve">
<style type="text/css">
	.st0{fill:#FFFFFF;}
	.st1{opacity:0.35;}
	.st2{fill:#C3ECFE;}
	.st3{fill:none;stroke:#C3ECFE;stroke-width:1.393;stroke-miterlimit:10;}
	.st4{fill:#599FD2;}
	.st5{fill:#88D2FF;}
	.st6{fill:#9BDFFF;}
	.st7{fill:#C0EDFF;}
	.st8{fill:#FE7D90;}
	.st9{opacity:0.5;}
	.st10{fill:none;stroke:#CCF3FF;stroke-width:1.393;stroke-miterlimit:10;}
	.st11{fill:#CCF3FF;}
	.st12{opacity:0.4;fill:#A1D7E5;}
	.st13{fill:#E8505B;}
	.st14{opacity:0.45;}
	.st15{fill:#B03D44;}
	.st16{fill:#3E89CC;}
	.st17{opacity:0.45;fill:#B03D44;}
	.st18{opacity:0.15;}
	.st19{fill:none;stroke:#0964AF;stroke-width:3.1215;stroke-linecap:round;stroke-linejoin:round;stroke-miterlimit:10;}
	.st20{fill:none;stroke:#2396B5;stroke-width:1.1566;stroke-miterlimit:10;}
	.st21{fill:none;stroke:#FFA829;stroke-width:3.4699;stroke-linecap:round;stroke-linejoin:round;stroke-miterlimit:10;}
	.st22{fill:#FFB392;}
	.st23{fill:#57C6F2;}
	.st24{fill:#E5F8FF;}
	.st25{fill:none;stroke:#A1D2F0;stroke-width:0.5742;stroke-linecap:round;stroke-linejoin:round;stroke-miterlimit:10;}
	.st26{fill:#F2A181;}
	.st27{fill:#FFBE9D;}
	.st28{fill:#1B227A;}
	.st29{fill:#170D54;}
</style>
<g id="BACKGROUND">
	<g id="XMLID_72_">
		<rect id="XMLID_73_" class="st0" width="500" height="500"/>
	</g>
</g>
<g id="OBJECTS">
	<g id="XMLID_71_">
		<g class="st1">
			<path id="XMLID_197_" class="st2" d="M446.1,300.17c-7.4-26.56,16.13-27.58,16.65-61.8c0.21-14-7.46-28.25-25.9-34.79
				c-9.07-3.21-18.1-5.42-26.17-10.53c-18.38-11.64-18.05-33.8-23.07-52.68c-11.01-41.48-97.29-74.46-140.2-73.39
				c-30.93,0.77-45.2,15.68-73.4,41.93c-19.29,17.96-53.29,16.34-43.38,62.75c8.82,41.34-11.99,38.27-31.05,53.53
				c-19.02,15.23-32.95,33.4-25.38,54.02c8.35,22.74-42.75,35.79-51.86,65.26c-6.18,19.99,26.29,21.68,48.39,21.68
				s211.16-1.7,291.12,0.67c21.52,0.64,90.19,6.5,99.91-20.33C468.36,328.22,451.27,318.72,446.1,300.17z"/>
		</g>
		<g id="XMLID_2_">
			<path class="st3" d="M470.65,291.9c-15.98,37.19-46.77,67.55-83.68,84"/>
			<g id="XMLID_4_">
				<g>
					<path id="XMLID_6_" class="st2" d="M465.96,301.79c5.58-4.65,9.4-11.36,10.54-18.53c0.28-1.76,0.34-3.76-0.84-5.09
						c-0.32-0.37-0.75-0.67-1.24-0.72c-0.78-0.08-1.47,0.5-2,1.09c-2.78,3.12-3.74,7.43-4.22,11.58
						C467.73,294.28,466.82,297.32,465.96,301.79"/>
				</g>
				<g>
					<path id="XMLID_7_" class="st2" d="M458.37,314.46c3.28-6.48,4.13-14.15,2.33-21.19c-0.44-1.72-1.18-3.58-2.79-4.34
						c-0.44-0.21-0.96-0.31-1.42-0.17c-0.75,0.24-1.16,1.04-1.4,1.79c-1.31,3.96-0.48,8.31,0.72,12.31
						C457.01,306.86,457.38,310.02,458.37,314.46"/>
				</g>
				<g>
					<path id="XMLID_8_" class="st2" d="M447.2,330.05c4.05-6.03,5.82-13.54,4.9-20.75c-0.23-1.77-0.73-3.7-2.24-4.65
						c-0.41-0.26-0.91-0.43-1.39-0.34c-0.77,0.14-1.27,0.89-1.61,1.6c-1.79,3.77-1.5,8.19-0.79,12.3
						C446.78,322.34,446.77,325.51,447.2,330.05"/>
				</g>
				<g>
					<path id="XMLID_9_" class="st2" d="M434.37,343.71c4.05-6.03,5.83-13.54,4.9-20.75c-0.23-1.77-0.73-3.7-2.24-4.65
						c-0.41-0.26-0.91-0.43-1.39-0.34c-0.77,0.14-1.27,0.89-1.61,1.6c-1.79,3.77-1.5,8.19-0.79,12.3
						C433.95,335.99,433.94,339.17,434.37,343.71"/>
				</g>
				<g>
					<path id="XMLID_10_" class="st2" d="M415.15,359.47c4.65-5.58,7.2-12.87,7.03-20.13c-0.04-1.78-0.35-3.76-1.75-4.85
						c-0.39-0.3-0.86-0.52-1.35-0.48c-0.79,0.06-1.36,0.76-1.77,1.43c-2.17,3.57-2.34,7.99-2.06,12.15
						C415.53,351.75,415.19,354.91,415.15,359.47"/>
				</g>
				<g>
					<path id="XMLID_11_" class="st2" d="M400.09,369.54c4.58-4.96,7.53-11.89,8.15-19.11c0.15-1.77,0.1-3.77-0.98-5.03
						c-0.3-0.35-0.68-0.62-1.1-0.64c-0.68-0.03-1.24,0.58-1.67,1.2c-2.24,3.28-2.85,7.64-3.05,11.81
						C401.23,361.93,400.6,365.02,400.09,369.54"/>
				</g>
				<g>
					<path id="XMLID_12_" class="st2" d="M454.57,320.04c7.36,1.21,15.31-0.31,21.93-4.21c1.62-0.96,3.3-2.25,3.65-4.05
						c0.09-0.49,0.07-1.03-0.2-1.44c-0.43-0.66-1.35-0.81-2.16-0.82c-4.33-0.06-8.49,2.07-12.2,4.47
						C461.87,316.4,458.79,317.73,454.57,320.04"/>
				</g>
				<g>
					<path id="XMLID_13_" class="st2" d="M445.54,331.84c6.86,2.94,14.94,3.35,22.3,1.15c1.8-0.54,3.75-1.39,4.51-3.06
						c0.21-0.46,0.31-0.98,0.15-1.44c-0.26-0.74-1.11-1.1-1.9-1.31c-4.19-1.1-8.74-0.02-12.91,1.42
						C453.51,330.04,450.2,330.59,445.54,331.84"/>
				</g>
				<g>
					<path id="XMLID_14_" class="st2" d="M432.07,345.59c6.14,4.25,13.97,6.27,21.62,5.59c1.88-0.17,3.95-0.61,5.03-2.09
						c0.3-0.41,0.5-0.9,0.44-1.38c-0.11-0.78-0.87-1.31-1.6-1.67c-3.88-1.91-8.56-1.77-12.94-1.19
						C440.23,345.42,436.88,345.31,432.07,345.59"/>
				</g>
				<g>
					<path id="XMLID_15_" class="st2" d="M413.21,361.47c6.93,2.78,15.01,3.02,22.32,0.65c1.79-0.58,3.71-1.47,4.44-3.16
						c0.2-0.46,0.29-0.99,0.12-1.45c-0.28-0.74-1.14-1.08-1.93-1.27c-4.21-1-8.73,0.18-12.88,1.71
						C421.13,359.5,417.84,360.13,413.21,361.47"/>
				</g>
				<g>
					<path id="XMLID_16_" class="st2" d="M397.96,370.58c4.93,5.6,12.05,9.46,19.64,10.63c1.86,0.29,3.98,0.36,5.39-0.82
						c0.39-0.32,0.71-0.75,0.76-1.24c0.08-0.78-0.53-1.48-1.15-2c-3.31-2.79-7.88-3.77-12.27-4.27
						C405.93,372.38,402.7,371.46,397.96,370.58"/>
				</g>
			</g>
		</g>
		<g id="XMLID_5_">
			<g id="XMLID_17_">
				<path class="st4" d="M380.29,213.66c-0.2-0.01-0.36-0.17-0.37-0.37l-0.14-1.99c-0.02-0.22,0.15-0.41,0.37-0.42
					c0.21-0.02,0.41,0.15,0.42,0.37l0.14,1.99c0.02,0.22-0.15,0.41-0.37,0.42C380.32,213.66,380.3,213.66,380.29,213.66z"/>
			</g>
			<g id="XMLID_18_">
				<g id="XMLID_19_">
					<polygon class="st2" points="389.22,304.05 383.96,304.42 378.11,219.66 380.74,219.48 383.37,219.29 					"/>
				</g>
			</g>
			<polygon class="st2" points="380.78,212.44 379.72,212.52 378.11,219.66 383.37,219.29 			"/>
		</g>
		<g id="XMLID_20_">
			<path class="st3" d="M123.57,233.53c9.35,51.09,44.96,96.63,92.29,118.02"/>
			<g id="XMLID_22_">
				<g>
					<path id="XMLID_24_" class="st2" d="M125.93,244.23c-4.4-5.77-6.63-13.17-6.15-20.41c0.12-1.78,0.51-3.74,1.96-4.77
						c0.4-0.28,0.88-0.48,1.37-0.42c0.78,0.1,1.33,0.81,1.7,1.5c2.01,3.66,1.99,8.08,1.53,12.23
						C125.89,236.5,126.09,239.67,125.93,244.23"/>
				</g>
				<g>
					<path id="XMLID_25_" class="st2" d="M130.51,258.27c-1.75-7.05-0.87-14.72,2.45-21.18c0.81-1.58,1.95-3.23,3.69-3.61
						c0.48-0.1,1-0.09,1.43,0.15c0.68,0.4,0.89,1.27,0.97,2.06c0.39,4.16-1.38,8.21-3.45,11.83
						C133.52,251.16,132.46,254.15,130.51,258.27"/>
				</g>
				<g>
					<path id="XMLID_26_" class="st2" d="M137.92,275.95c-2.6-6.78-2.66-14.5-0.15-21.32c0.61-1.67,1.54-3.45,3.22-4.03
						c0.46-0.16,0.98-0.22,1.43-0.02c0.72,0.31,1.04,1.15,1.21,1.92c0.9,4.08-0.37,8.31-1.98,12.17
						C140.04,268.53,139.35,271.63,137.92,275.95"/>
				</g>
				<g>
					<path id="XMLID_27_" class="st2" d="M147.38,292.13c-2.6-6.78-2.66-14.5-0.16-21.32c0.61-1.67,1.54-3.45,3.22-4.03
						c0.46-0.16,0.98-0.22,1.43-0.02c0.72,0.31,1.04,1.15,1.21,1.92c0.9,4.08-0.37,8.31-1.98,12.17
						C149.51,284.7,148.81,287.8,147.38,292.13"/>
				</g>
				<g>
					<path id="XMLID_28_" class="st2" d="M162.61,311.78c-3.29-6.47-4.15-14.15-2.36-21.19c0.44-1.73,1.18-3.59,2.79-4.34
						c0.44-0.21,0.96-0.32,1.42-0.17c0.75,0.24,1.16,1.04,1.41,1.79c1.32,3.96,0.5,8.31-0.71,12.31
						C163.95,304.17,163.58,307.33,162.61,311.78"/>
				</g>
				<g>
					<path id="XMLID_29_" class="st2" d="M175.04,324.95c-3.35-5.86-4.69-13.27-3.69-20.45c0.25-1.76,0.74-3.7,2.08-4.69
						c0.37-0.27,0.81-0.46,1.22-0.38c0.67,0.12,1.08,0.85,1.36,1.54c1.45,3.69,1.07,8.08,0.34,12.19
						C175.62,317.28,175.54,320.43,175.04,324.95"/>
				</g>
				<g>
					<path id="XMLID_30_" class="st2" d="M132.97,264.56c-7.45-0.46-14.86-3.72-20.44-8.99c-1.37-1.29-2.72-2.93-2.65-4.76
						c0.02-0.5,0.16-1.02,0.51-1.36c0.57-0.55,1.49-0.49,2.29-0.32c4.23,0.9,7.81,3.91,10.9,7.07
						C126.66,259.37,129.36,261.35,132.97,264.56"/>
				</g>
				<g>
					<path id="XMLID_31_" class="st2" d="M139.13,278.06c-7.34,1.33-15.31-0.06-22-3.85c-1.64-0.93-3.34-2.19-3.71-3.99
						c-0.1-0.49-0.09-1.03,0.18-1.44c0.42-0.67,1.33-0.83,2.15-0.85c4.33-0.13,8.52,1.93,12.27,4.27
						C131.77,274.54,134.87,275.81,139.13,278.06"/>
				</g>
				<g>
					<path id="XMLID_32_" class="st2" d="M149.21,294.48c-6.93,2.78-15.02,3-22.32,0.63c-1.79-0.58-3.71-1.48-4.44-3.16
						c-0.2-0.46-0.29-0.99-0.12-1.45c0.28-0.74,1.14-1.08,1.93-1.27c4.21-1,8.73,0.19,12.88,1.73
						C141.29,292.49,144.58,293.13,149.21,294.48"/>
				</g>
				<g>
					<path id="XMLID_33_" class="st2" d="M164.05,314.16c-7.37,1.17-15.31-0.4-21.91-4.34c-1.62-0.96-3.29-2.27-3.62-4.07
						c-0.09-0.5-0.06-1.03,0.21-1.44c0.44-0.66,1.35-0.8,2.17-0.81c4.33-0.04,8.48,2.12,12.17,4.54
						C156.76,310.47,159.83,311.82,164.05,314.16"/>
				</g>
				<g>
					<path id="XMLID_34_" class="st2" d="M176.88,326.44c-6.06,4.36-13.85,6.53-21.51,5.99c-1.88-0.13-3.96-0.54-5.07-2
						c-0.3-0.4-0.52-0.89-0.46-1.38c0.09-0.78,0.85-1.32,1.57-1.7c3.85-1.98,8.52-1.92,12.91-1.43
						C168.71,326.42,172.06,326.24,176.88,326.44"/>
				</g>
			</g>
		</g>
		<g id="XMLID_23_">
			<path class="st3" d="M31.45,304.87c51.88-2.37,104.26,22.11,135.74,63.42"/>
			<g id="XMLID_35_">
				<g>
					<path id="XMLID_37_" class="st2" d="M42.4,304.77c-6.61-3-14.32-3.5-21.27-1.4c-1.7,0.51-3.53,1.34-4.21,2.98
						c-0.19,0.45-0.27,0.97-0.1,1.43c0.27,0.74,1.09,1.11,1.85,1.32c4.02,1.14,8.32,0.12,12.26-1.26
						C34.86,306.46,37.99,305.95,42.4,304.77"/>
				</g>
				<g>
					<path id="XMLID_38_" class="st2" d="M57.11,306.07c-7.26-0.13-14.54,2.46-20.08,7.15c-1.36,1.15-2.71,2.63-2.68,4.41
						c0.01,0.49,0.13,1,0.47,1.35c0.54,0.57,1.44,0.59,2.22,0.48c4.14-0.55,7.69-3.19,10.76-6.02
						C50.86,310.61,53.53,308.9,57.11,306.07"/>
				</g>
				<g>
					<path id="XMLID_39_" class="st2" d="M76,309.32c-7.19-1.01-14.73,0.67-20.81,4.64c-1.49,0.97-3.01,2.28-3.2,4.05
						c-0.05,0.49,0.01,1.01,0.3,1.4c0.47,0.63,1.36,0.76,2.15,0.75c4.18-0.04,8.02-2.22,11.41-4.66
						C69.25,313.06,72.11,311.69,76,309.32"/>
				</g>
				<g>
					<path id="XMLID_40_" class="st2" d="M93.89,314.91c-7.19-1.01-14.73,0.67-20.81,4.64c-1.49,0.97-3.01,2.28-3.2,4.05
						c-0.05,0.49,0.01,1.01,0.3,1.4c0.47,0.63,1.36,0.76,2.15,0.75c4.18-0.04,8.02-2.22,11.41-4.66
						C87.13,318.65,90,317.28,93.89,314.91"/>
				</g>
				<g>
					<path id="XMLID_41_" class="st2" d="M116.46,325.33c-7.05-1.75-14.72-0.86-21.18,2.46c-1.58,0.81-3.23,1.95-3.61,3.69
						c-0.1,0.48-0.09,1,0.16,1.42c0.4,0.68,1.27,0.89,2.06,0.97c4.16,0.39,8.21-1.38,11.83-3.45
						C109.35,328.35,112.34,327.29,116.46,325.33"/>
				</g>
				<g>
					<path id="XMLID_42_" class="st2" d="M132.09,334.49c-6.46-1.95-13.98-1.59-20.76,1c-1.66,0.63-3.44,1.55-4.1,3.08
						c-0.18,0.42-0.26,0.89-0.1,1.28c0.27,0.63,1.07,0.87,1.81,0.98c3.92,0.58,8.12-0.77,11.96-2.41
						C124.74,336.78,127.8,336,132.09,334.49"/>
				</g>
				<g>
					<path id="XMLID_43_" class="st2" d="M63.79,307.06c-2.12-7.16-6.96-13.64-13.35-17.9c-1.57-1.04-3.46-1.99-5.23-1.52
						c-0.49,0.13-0.96,0.39-1.21,0.81c-0.4,0.68-0.14,1.56,0.21,2.3c1.83,3.92,5.56,6.74,9.34,9.03
						C57.32,302.08,59.86,304.27,63.79,307.06"/>
				</g>
				<g>
					<path id="XMLID_44_" class="st2" d="M78.33,310.03c-0.35-7.46-3.5-14.91-8.69-20.57c-1.27-1.39-2.89-2.76-4.72-2.72
						c-0.5,0.01-1.02,0.15-1.36,0.49c-0.55,0.56-0.51,1.48-0.35,2.29c0.84,4.25,3.79,7.87,6.92,11
						C73.24,303.65,75.19,306.39,78.33,310.03"/>
				</g>
				<g>
					<path id="XMLID_45_" class="st2" d="M96.59,316.16c1.15-7.38-0.45-15.31-4.4-21.89c-0.97-1.61-2.28-3.28-4.08-3.61
						c-0.5-0.09-1.03-0.06-1.44,0.21c-0.65,0.44-0.79,1.35-0.8,2.17c-0.03,4.33,2.14,8.47,4.58,12.16
						C92.88,308.89,94.24,311.96,96.59,316.16"/>
				</g>
				<g>
					<path id="XMLID_46_" class="st2" d="M119.11,326.2c-0.52-7.45-3.83-14.83-9.15-20.37c-1.3-1.36-2.95-2.7-4.78-2.62
						c-0.5,0.02-1.02,0.17-1.35,0.52c-0.54,0.57-0.47,1.49-0.3,2.29c0.94,4.23,3.97,7.78,7.16,10.84
						C113.88,319.93,115.88,322.62,119.11,326.2"/>
				</g>
				<g>
					<path id="XMLID_47_" class="st2" d="M133.95,335.95c2.89-6.88,3.25-14.96,1-22.31c-0.55-1.8-1.42-3.74-3.09-4.49
						c-0.46-0.21-0.98-0.31-1.44-0.14c-0.74,0.27-1.1,1.12-1.3,1.91c-1.07,4.2,0.04,8.74,1.51,12.91
						C132.1,328,132.68,331.3,133.95,335.95"/>
				</g>
			</g>
		</g>
		<g>
			<path id="XMLID_48_" class="st2" d="M195.4,326.82c-7.51-7.03-18.13-10.61-28.37-9.58c-6.93,0.7-14.49,4.4-16.02,11.2
				c-0.73,3.24-0.47,7.53-3.54,8.81c-3,1.25-5.9-1.84-8.98-2.88c-5.13-1.72-10.98,4.14-9.25,9.26c0.79,2.33,2.76,4.36,2.59,6.81
				c-0.22,3.34-4.35,5.08-7.66,4.56c-3.31-0.52-6.23-2.45-9.47-3.28c-3.24-0.83-7.45,0-8.59,3.15c-1.02,2.82,0.74,6.61-1.48,8.64
				c-0.95,0.87-2.32,1.05-3.6,1.17c-28.09,2.67-59.03,7.71-55.89,12.7c0.86,1.36,3.06,0.93,4.67,0.9
				c59.8-0.94,114.12-1.83,173.89,0.01"/>
		</g>
		<g id="XMLID_49_">
			<polyline class="st5" points="363.54,232.89 381.27,302.4 377.9,303.26 355.97,234.82 			"/>
			<g id="XMLID_50_">
				<path class="st6" d="M347.14,234.48c-9.05,2.31-18.69-4.71-21.48-15.65c-2.79-10.94,2.31-21.71,11.36-24.02
					c9.05-2.31,18.69,4.71,21.48,15.65C361.29,221.39,356.19,232.17,347.14,234.48z M338.57,200.89c-5.7,1.45-8.76,8.81-6.83,16.39
					s8.14,12.57,13.84,11.12c5.7-1.45,8.76-8.81,6.83-16.39C350.48,204.42,344.27,199.43,338.57,200.89z"/>
			</g>
			<g id="XMLID_51_">
				<path class="st7" d="M356.46,215.16c0.29,1.15,5.39,21.14,5.39,21.14c0.27,1.06-0.37,2.14-1.43,2.42l0,0
					c-1.06,0.27-2.14-0.37-2.42-1.43l-0.61-2.39c0,0-2.83-6.04-10.66-3.55c0,0,9.33-1.17,9.65-1.14
					C356.7,230.22,356.17,214.01,356.46,215.16z"/>
				<path class="st6" d="M361.19,241.75c-2.74,0.7-5.53-0.96-6.23-3.7c0,0-0.32-1.66-0.97-2.58c-1.01-1.44-3.08-1.98-6.86-1.02
					l-0.96-5.34c1.99-0.64,3.42-1.6,5.02-1.48c0.86-0.1,1.57-0.19,2.16-0.26c-0.01-1.64-0.04-3.8-0.06-5.45
					c-0.02-1.76,2.26-3.74,2.25-5c-0.01-2.27-2.33-4.55,0.48-4.93l2.77-0.37l6.11,23.9C365.59,238.26,363.93,241.05,361.19,241.75z"
					/>
			</g>
			<g id="XMLID_52_">
				<polyline class="st5" points="366.15,232.26 366.21,304 369.69,303.99 373.97,232.25 				"/>
				<g id="XMLID_53_">
					<path class="st6" d="M365.48,209.27c-0.01-11.29,7.59-20.48,16.93-20.48c9.34-0.01,16.95,9.17,16.96,20.46
						c0.01,11.29-7.59,20.48-16.93,20.48C373.1,229.74,365.49,220.56,365.48,209.27z M371.76,209.27
						c0.01,7.83,4.8,14.19,10.68,14.19c5.88,0,10.66-6.38,10.66-14.2c-0.01-7.83-4.8-14.19-10.68-14.19
						C376.53,195.07,371.75,201.44,371.76,209.27z"/>
				</g>
				<g id="XMLID_54_">
					<path class="st7" d="M368.62,213.33c0,1.19,0.02,21.81,0.02,21.81c0,1.1,0.89,1.99,1.99,1.99l0,0c1.1,0,1.99-0.89,1.99-1.99
						l0-2.46c0,0,1.25-6.55,9.44-6.08c0,0-9.33,1.18-9.63,1.28C372.12,227.98,368.62,212.14,368.62,213.33z"/>
					<path class="st6" d="M370.63,240.26c2.83,0,5.12-2.3,5.12-5.13c0,0-0.1-1.69,0.3-2.74c0.63-1.65,2.49-2.68,6.4-2.68l-0.4-5.41
						c-2.08-0.12-3.71-0.7-5.23-0.19c-0.86,0.11-1.57,0.2-2.16,0.28c-0.4-1.59-0.9-3.69-1.29-5.3c-0.41-1.71-3.11-3.06-3.42-4.28
						c-0.55-2.2,1.13-4.99-1.69-4.66l-2.77,0.33l0.01,24.67C365.5,237.97,367.8,240.26,370.63,240.26z"/>
				</g>
			</g>
		</g>
		<g id="XMLID_55_">
			<g id="XMLID_56_">
				<path id="XMLID_70_" class="st5" d="M396.35,291.31l-9.02-1.63l14.01-77.6c0.11-0.64,0.72-1.06,1.36-0.94l6.72,1.21
					c0.64,0.11,1.06,0.72,0.94,1.36L396.35,291.31z"/>
			</g>
			<g id="XMLID_57_">
				<path id="XMLID_69_" class="st8" d="M409.02,221.17l-9.02-1.63l1.35-7.46c0.11-0.64,0.72-1.06,1.36-0.94l6.72,1.21
					c0.64,0.11,1.06,0.72,0.94,1.36L409.02,221.17z"/>
			</g>
			<g id="XMLID_58_" class="st9">
				<g id="XMLID_59_">
					
						<rect x="402.9" y="217.13" transform="matrix(0.1777 -0.9841 0.9841 0.1777 114.2375 580.1401)" class="st4" width="2.75" height="9.17"/>
				</g>
			</g>
		</g>
		<g id="XMLID_60_">
			
				<rect id="XMLID_68_" x="403.84" y="223.56" transform="matrix(0.9303 0.3667 -0.3667 0.9303 126.3552 -132.4319)" class="st2" width="15.83" height="85.62"/>
			<g id="XMLID_61_">
				<line class="st10" x1="428.94" y1="230.12" x2="433.8" y2="232.03"/>
				<line class="st10" x1="427.31" y1="234.26" x2="432.17" y2="236.17"/>
				<line class="st10" x1="425.68" y1="238.39" x2="430.53" y2="240.31"/>
				<line class="st10" x1="421.68" y1="241.6" x2="428.9" y2="244.44"/>
				<line class="st10" x1="422.42" y1="246.67" x2="427.27" y2="248.58"/>
				<line class="st10" x1="420.79" y1="250.81" x2="425.64" y2="252.72"/>
				<line class="st10" x1="419.16" y1="254.94" x2="424.01" y2="256.86"/>
				<line class="st10" x1="415.15" y1="258.15" x2="422.38" y2="260.99"/>
				<line class="st10" x1="415.9" y1="263.22" x2="420.75" y2="265.13"/>
				<line class="st10" x1="414.27" y1="267.36" x2="419.12" y2="269.27"/>
				<line class="st10" x1="412.64" y1="271.5" x2="417.49" y2="273.41"/>
				<line class="st10" x1="408.63" y1="274.7" x2="415.86" y2="277.55"/>
				<line class="st10" x1="409.37" y1="279.77" x2="414.23" y2="281.68"/>
				<line class="st10" x1="407.74" y1="283.91" x2="412.6" y2="285.82"/>
				<line class="st10" x1="406.11" y1="288.05" x2="410.96" y2="289.96"/>
				<line class="st10" x1="402.11" y1="291.25" x2="409.33" y2="294.1"/>
				<line class="st10" x1="402.85" y1="296.32" x2="407.7" y2="298.23"/>
				<line class="st10" x1="401.22" y1="300.46" x2="406.07" y2="302.37"/>
				<line class="st10" x1="399.59" y1="304.6" x2="404.44" y2="306.51"/>
			</g>
		</g>
		<path class="st6" d="M414.18,381.82h-73.42l-12.33-111.06c-0.16-1.41,0.95-2.65,2.37-2.65h93.34c1.42,0,2.53,1.23,2.37,2.65
			L414.18,381.82z"/>
		<g>
			<path id="XMLID_64_" class="st11" d="M322.12,386.66c44.22,0.6,88.44,1.2,132.66,1.81c1.48,0.02,6.16-1.43-1.9-6.62
				c-6.83-4.4-28.4-0.44-28.4-0.44s5.02-2.01,5-4.61c-0.02-2.6-1.99-4.88-4.36-5.96c-2.36-1.08-5.06-1.16-7.65-1.01
				c-5.28,0.3-10.51,1.47-15.41,3.45c2.08-1.28,2.72-4.42,1.3-6.41c-1.42-1.99-4.59-2.41-6.48-0.85c3.31-4.49,8.44-24.38-7.31-33.15
				c-19.74-10.99-34.73-1.95-37.93,4.67c-1.62-6.49-9.07-11.41-13.98-12.62c-11.19-2.78-18.47-1.95-28.92,2.92
				c-3.69,1.73-8.64,7.62-11.1,10.87c-3.85,5.1-4.45,11.88-4.66,18.26c-0.16,4.79-0.18,9.59-0.06,14.38"/>
		</g>
		<g>
			<path id="XMLID_66_" class="st12" d="M347.96,393.73c0,2.29-44.54,4.15-99.48,4.15S149,396.02,149,393.73
				c0-2.29,44.54-4.15,99.48-4.15S347.96,391.44,347.96,393.73z"/>
			<g id="XMLID_74_">
				<g id="XMLID_219_">
					<path id="XMLID_224_" class="st13" d="M250.37,104.18c-5.51,0-9.98,4.47-9.98,9.98v12.8h19.97c0,0,0-10.16,0-12.8
						C260.36,108.65,255.89,104.18,250.37,104.18z M250.37,119.89c-3.09,0-5.6-2.51-5.6-5.6c0-3.09,2.51-5.6,5.6-5.6
						s5.6,2.51,5.6,5.6C255.97,117.38,253.46,119.89,250.37,119.89z"/>
				</g>
			</g>
			<g id="XMLID_82_" class="st14">
				<g id="XMLID_220_">
					<path id="XMLID_221_" class="st15" d="M255.97,114.29c0-3.09-2.51-5.6-5.6-5.6c-0.29,0-0.56,0.04-0.84,0.08
						c0.84-0.32,0.88-0.54,2.27-0.54c3.09,0,5.6,2.51,5.6,5.6c0,2.81-1.43,4.32-3.59,4.88
						C255.01,117.68,255.97,115.99,255.97,114.29z M243.44,125.68v-12.8c0-3.47,1.51-6.53,4.2-8.32c-4.18,1.19-7.25,5.03-7.25,9.59
						v12.8h19.97c0,0,0-0.5,0-1.28H243.44z"/>
				</g>
			</g>
			<path class="st16" d="M332.82,393.69H164.13c-5.38,0-9.74-4.36-9.74-9.74V137.37c0-5.38,4.36-9.74,9.74-9.74h168.69
				c5.38,0,9.74,4.36,9.74,9.74v246.58C342.56,389.32,338.2,393.69,332.82,393.69z"/>
			<rect id="XMLID_67_" x="165.3" y="138.06" class="st2" width="166.36" height="245.19"/>
			<rect x="171.69" y="145.55" class="st0" width="153.57" height="230.21"/>
			<path id="XMLID_198_" class="st13" d="M309,132.03v10H187.95v-10c0-0.73,0.11-1.43,0.32-2.09c0.89-2.86,3.56-4.93,6.7-4.93
				h107.01C305.86,125.01,309,128.15,309,132.03z"/>
			<path id="XMLID_195_" class="st17" d="M309,139.53v2.5H187.95v-7.24c0-1.94,0.11-3.54,0.32-4.85c0.89-2.86,3.56-4.93,6.7-4.93
				h0.86c-1.85,1.78-3.2,4.5-3.2,7.28v7.24H309z"/>
			<g>
				<g id="XMLID_87_">
					<g id="XMLID_88_" class="st18">
						<line id="XMLID_89_" class="st19" x1="214.28" y1="170.02" x2="239.23" y2="170.02"/>
						<line id="XMLID_90_" class="st19" x1="295.21" y1="177.98" x2="314.17" y2="177.98"/>
						<line id="XMLID_91_" class="st19" x1="214.28" y1="177.98" x2="286.99" y2="177.98"/>
						<line id="XMLID_92_" class="st19" x1="214.28" y1="185.93" x2="314.17" y2="185.93"/>
						<line id="XMLID_93_" class="st19" x1="282.42" y1="193.88" x2="314.17" y2="193.88"/>
						<line id="XMLID_94_" class="st19" x1="214.28" y1="193.88" x2="274.52" y2="193.88"/>
						<line id="XMLID_95_" class="st19" x1="247.41" y1="170.02" x2="314.17" y2="170.02"/>
					</g>
				</g>
				<g id="XMLID_96_">
					<g id="XMLID_97_" class="st18">
						<line id="XMLID_98_" class="st19" x1="214.28" y1="227.19" x2="239.23" y2="227.19"/>
						<line id="XMLID_99_" class="st19" x1="295.21" y1="235.15" x2="314.17" y2="235.15"/>
						<line id="XMLID_100_" class="st19" x1="214.28" y1="235.15" x2="286.99" y2="235.15"/>
						<line id="XMLID_101_" class="st19" x1="214.28" y1="243.1" x2="314.17" y2="243.1"/>
						<line id="XMLID_102_" class="st19" x1="282.42" y1="251.05" x2="314.17" y2="251.05"/>
						<line id="XMLID_103_" class="st19" x1="214.28" y1="251.05" x2="274.52" y2="251.05"/>
						<line id="XMLID_104_" class="st19" x1="247.41" y1="227.19" x2="314.17" y2="227.19"/>
					</g>
				</g>
				<g id="XMLID_105_">
					<g id="XMLID_106_" class="st18">
						<line id="XMLID_107_" class="st19" x1="214.28" y1="282.36" x2="239.23" y2="282.36"/>
						<line id="XMLID_108_" class="st19" x1="295.21" y1="290.32" x2="314.17" y2="290.32"/>
						<line id="XMLID_109_" class="st19" x1="214.28" y1="290.32" x2="286.99" y2="290.32"/>
						<line id="XMLID_110_" class="st19" x1="214.28" y1="298.27" x2="314.17" y2="298.27"/>
						<line id="XMLID_111_" class="st19" x1="282.42" y1="306.22" x2="314.17" y2="306.22"/>
						<line id="XMLID_112_" class="st19" x1="214.28" y1="306.22" x2="274.52" y2="306.22"/>
						<line id="XMLID_113_" class="st19" x1="247.41" y1="282.36" x2="314.17" y2="282.36"/>
					</g>
				</g>
				<g id="XMLID_114_">
					<g id="XMLID_115_" class="st18">
						<line id="XMLID_116_" class="st19" x1="214.28" y1="338.53" x2="239.23" y2="338.53"/>
						<line id="XMLID_117_" class="st19" x1="295.21" y1="346.49" x2="314.17" y2="346.49"/>
						<line id="XMLID_118_" class="st19" x1="214.28" y1="346.49" x2="286.99" y2="346.49"/>
						<line id="XMLID_119_" class="st19" x1="214.28" y1="354.44" x2="314.17" y2="354.44"/>
						<line id="XMLID_120_" class="st19" x1="282.42" y1="362.39" x2="314.17" y2="362.39"/>
						<line id="XMLID_121_" class="st19" x1="214.28" y1="362.39" x2="274.52" y2="362.39"/>
						<line id="XMLID_122_" class="st19" x1="247.41" y1="338.53" x2="314.17" y2="338.53"/>
					</g>
				</g>
				<g id="XMLID_123_">
					<path id="XMLID_124_" class="st20" d="M203.76,190.49h-18.66c-1.16,0-2.1-0.94-2.1-2.1v-18.66c0-1.16,0.94-2.1,2.1-2.1h18.66
						c1.16,0,2.1,0.94,2.1,2.1v18.66C205.86,189.55,204.92,190.49,203.76,190.49z"/>
					<path id="XMLID_125_" class="st20" d="M203.76,247.48h-18.66c-1.16,0-2.1-0.94-2.1-2.1v-18.66c0-1.16,0.94-2.1,2.1-2.1h18.66
						c1.16,0,2.1,0.94,2.1,2.1v18.66C205.86,246.54,204.92,247.48,203.76,247.48z"/>
					<path id="XMLID_126_" class="st20" d="M203.76,304.46h-18.66c-1.16,0-2.1-0.94-2.1-2.1v-18.66c0-1.16,0.94-2.1,2.1-2.1h18.66
						c1.16,0,2.1,0.94,2.1,2.1v18.66C205.86,303.52,204.92,304.46,203.76,304.46z"/>
					<path id="XMLID_127_" class="st20" d="M203.76,361.45h-18.66c-1.16,0-2.1-0.94-2.1-2.1v-18.66c0-1.16,0.94-2.1,2.1-2.1h18.66
						c1.16,0,2.1,0.94,2.1,2.1v18.66C205.86,360.5,204.92,361.45,203.76,361.45z"/>
					<polyline id="XMLID_130_" class="st21" points="185.8,175.03 194.42,185.44 211.01,159.27 					"/>
					<polyline id="XMLID_133_" class="st21" points="185.8,231.54 194.42,241.95 211.01,215.78 					"/>
				</g>
			</g>
		</g>
	</g>
	<g id="XMLID_77_">
		<path id="XMLID_293_" class="st22" d="M122.25,248.14c0,0,0.43,2.85,0.7,3.1c0,0-0.27,0.48-1.09,0.52"/>
		<path id="XMLID_65_" class="st12" d="M143.63,393.96c0,1.19-10.68,2.15-23.85,2.15s-23.85-0.96-23.85-2.15
			c0-1.19,10.68-2.15,23.85-2.15S143.63,392.77,143.63,393.96z"/>
		<g id="XMLID_86_">
			<path id="XMLID_135_" class="st23" d="M130.67,261.46l-5.27,23.16c-0.14,0.63,0.28,1.25,0.92,1.34l16.41,2.36
				c0.57,0.08,1.11-0.29,1.24-0.85l5.27-23.16c0.14-0.63-0.28-1.25-0.92-1.34l-16.41-2.36C131.34,260.53,130.8,260.9,130.67,261.46z
				"/>
			<polygon id="XMLID_136_" class="st24" points="131.7,262.21 126.65,284.38 142.95,286.72 147.99,264.55 			"/>
			<g id="XMLID_137_">
				<line id="XMLID_138_" class="st25" x1="146.27" y1="266.18" x2="132.42" y2="264.19"/>
				<line id="XMLID_139_" class="st25" x1="145.8" y1="268.27" x2="131.96" y2="266.29"/>
				<line id="XMLID_140_" class="st25" x1="140.04" y1="270.01" x2="131.38" y2="268.77"/>
				<line id="XMLID_141_" class="st25" x1="139.42" y1="271.81" x2="130.77" y2="270.57"/>
				<line id="XMLID_142_" class="st25" x1="138.81" y1="273.61" x2="130.15" y2="272.37"/>
				<line id="XMLID_143_" class="st25" x1="141.98" y1="283.57" x2="133.33" y2="282.33"/>
			</g>
		</g>
		<g id="XMLID_272_">
			<path id="XMLID_145_" class="st26" d="M124.36,284.89c0.93-0.44,1.62-1.25,2.28-2.03c0.65-0.78,1.3-1.55,1.96-2.33
				c0.26-0.31,0.53-0.64,0.56-1.04c-1.09-0.09-1.8,1.33-2.89,1.41c0.51-1.8,1.24-3.54,2.17-5.16c0.23-0.4,0.47-0.86,0.31-1.28
				c-1.18,0.45-2.18,1.29-3.04,2.22c-0.6,0.65-1.16,1.35-1.65,2.09c-1.44,2.18-2.34,4.69-2.94,7.23"/>
		</g>
		<g id="XMLID_144_">
			<path id="XMLID_271_" class="st27" d="M119.66,303.54l-11.72-9.88c0,0-5.45,7.4-3.4,14.53c1.01,3.51,2.28,5.25,2.83,6.91
				c0.51,1.56,4.04,23.57,3.78,25.18c-0.26,1.61-2.16,6.11-2.88,10.85c-0.87,5.7-0.72,24.25-1.4,29.17
				c-0.67,4.92,3.87,5.75,4.12,4.09c2.14-14.23,7.78-36.4,8.57-43.51C120.35,333.76,120.03,320.74,119.66,303.54z"/>
			<g id="XMLID_268_">
				<path id="XMLID_147_" class="st26" d="M119.69,317.56l-5.1,11.69c2.15,3.63,3.39,7.91,3.55,12.25c0.09,2.26-0.11,4.52-0.05,6.77
					c0,0.16,0.03,0.33,0.07,0.49c0.68-3.34,1.19-6.1,1.39-7.9c0.56-5.03,0.56-13.01,0.38-23.33
					C119.86,317.55,119.77,317.55,119.69,317.56z"/>
			</g>
			<path id="XMLID_266_" class="st27" d="M111.78,379.82c0,0-1.09,5.16-0.8,5.82c0.29,0.66,1.35,2.57,2.43,3.26
				c1.13,0.73,3.65,1.59,3.85,1.9c0.2,0.31,0.21,0.77-0.14,1.05c-0.93,0.73-2.53,1.08-3.58,0.91c-3.41-0.56-3.76-2.07-5.74-2.31
				c-0.34-0.04-0.98,0.46-1.92-0.02c-0.95-0.48-1.41-1.36-1.33-2.19c0.14-1.42,0.94-2.59,1.51-3.65c0.57-1.05,0.97-5.86,0.97-5.86"
				/>
			<path id="XMLID_263_" class="st28" d="M117.38,392.11c0.25-0.42,0.31-1.07,0.08-1.22c-0.32-0.22-1.46-0.97-2.12-1.28
				c-0.66-0.3-1.71-0.57-1.34-0.37c0.37,0.2-0.31,0.94-0.93,0.91c-2.13-0.13-3.71-1.55-4.93-1.85c-1.76-0.44-2.49-2.51-2.57-2.85
				c-0.33,0.21-1.1,1.88-1.26,2.4c-0.14,0.47-0.39,1.34-0.26,1.84c0.09,0.34,0.3,1.03,0.19,1.75c0,0,0.35,0.27,1.26,0.46
				c0.58,0.12,1.36,0.02,1.36,0.02l0.15-1.1c0,0,0.48-0.02,1.09,0.11c0.61,0.13,1.6,0.7,1.66,0.77c0.24,0.29,0.44,0.82,0.76,0.98
				c0.85,0.43,1.71,0.63,2.8,0.7C115.62,393.5,116.96,392.83,117.38,392.11z"/>
		</g>
		<g id="XMLID_146_">
			<path id="XMLID_148_" class="st27" d="M135.65,391.89c-0.25-0.28-2.97-0.72-4.24-1.25c-1.21-0.51-2.68-2.14-2.97-2.83
				c-0.29-0.69-0.22-4.19-0.18-5.67c0.25-10.13,2.13-34.89,2.4-40.82c0.47-10.31-0.87-20.94-4.83-37.49l-14.76-11.33
				c0,0-4.13,7.69-2.75,15.04c0.8,4.26,4.34,4.92,4.94,6.58c0.6,1.66,9.53,28.38,9.53,28.38s-1.74,5.78-1.84,12.1
				c-0.09,5.4,2.36,21.7,2.82,27.91c0.05,1.21,0.26,4.12-0.09,5.04c-0.44,1.13-1.55,2.46-1.5,3.89c0.03,0.83,0.63,1.62,1.68,1.94
				c1.05,0.32,1.63-0.28,1.99-0.29c2.08-0.09,2.66,1.35,6.25,1.34c1.11,0,2.72-0.61,3.57-1.48
				C135.98,392.62,135.91,392.17,135.65,391.89z"/>
			<path id="XMLID_149_" class="st28" d="M135.96,393.16c0.2-0.46,0.17-1.11-0.09-1.22c-0.36-0.16-1.64-0.72-2.37-0.92
				c-0.72-0.19-1.84-0.29-1.43-0.15c0.41,0.14-0.19,0.98-0.83,1.05c-2.22,0.22-4.05-0.93-5.34-1.03c-1.87-0.15-2.56-2.07-2.69-2.39
				c-0.31,0.26-1.24,2.04-1.32,2.58c-0.08,0.49-0.22,1.39-0.01,1.86c0.14,0.32,0.45,0.97,0.45,1.7c0,0,0.39,0.21,1.37,0.24
				c0.62,0.02,1.4-0.2,1.4-0.2v-1.11c0,0,0.49-0.1,1.14-0.07c0.64,0.02,1.44,0.35,1.83,0.65c0.31,0.23,0.63,0.62,0.99,0.71
				c1.04,0.26,1.79,0.34,2.92,0.22C134.34,394.82,135.63,393.95,135.96,393.16z"/>
		</g>
		<path id="XMLID_150_" class="st28" d="M108.25,292.41c-1,1.1-4.57,7.05-4.61,11.89c-0.04,4.84,1.51,7.99,1.84,8.96
			c0.91,2.65,2.61,5.01,2.61,5.5c0,0.48,2.66,0.82,8.31,0.46c10.44-0.66,14.27-2.62,14.27-2.62s0.34-4.34-0.73-13.76
			c-0.51-4.47-4.32-11.56-4.32-11.56"/>
		<path id="XMLID_248_" class="st27" d="M98.73,273.06c0,0,1.68,8.35,2.12,9.84c0.44,1.49,2.62,10.92,4.69,10.76
			c2.07-0.16,13.39-9.61,13.39-9.61l-1.6-3.21l-9.96,4.75c0,0-0.9-10.79-1.69-13.36"/>
		<g id="XMLID_244_">
			<path id="XMLID_152_" class="st26" d="M102.58,278.2c1.05,3.73,3.22,7.66,3.86,10.55c0.13,0.58,7.03-1.93,7.04-4.52"/>
		</g>
		<path id="XMLID_153_" class="st13" d="M105.48,261.49c0,0-3.3,0.35-4.98,1.63c-4.27,3.27-0.97,15.13-0.97,15.13
			s-0.21,0.63,2.66,0.47c2.87-0.16,5.17-0.98,5.17-0.98l-0.83-9.72"/>
		<path id="XMLID_154_" class="st15" d="M101.7,268.21c0,0-0.36,6.97,0.9,10.49c1.25-0.02,2.34-0.31,2.34-0.31L101.7,268.21z"/>
		<g id="XMLID_216_">
			<path id="XMLID_156_" class="st27" d="M121.27,239.6c1.99,2.58,1.6,6.21,1.11,9.43c-0.25,1.63-0.5,3.26-0.74,4.89
				c-0.12,0.77-0.27,1.62-0.88,2.12c-0.61,0.5-1.48,0.5-2.27,0.46c0.01,1.35,0.02,2.7,0.02,4.05c-2.31,0.06-4.61,0.07-6.92,0.03
				c0-0.94-0.21-1.89-0.6-2.75c-1.13-0.02-1.88-1.15-2.32-2.19c-0.51-1.2-0.88-2.45-1.24-3.7c-0.48-1.66-0.93-3.35-0.98-5.08
				c-0.04-1.73,0.37-3.52,1.46-4.86c0.75-0.91,1.77-1.56,2.81-2.1c1.43-0.75,3.15-1.34,4.63-0.68"/>
		</g>
		<g id="XMLID_158_">
			<path id="XMLID_157_" class="st28" d="M118.88,251.9c-0.27-1.36-0.25-2.12,0.19-3.02c0.15-0.3,0.34-0.58,0.61-0.77
				c0.36-0.25,0.84-0.3,1.23-0.13c0.26,0.11,0.47,0.32,0.62,0.58c0.47-1.82,0.57-3.76,0.43-5.65c-0.22-3-2.02-5.32-4.66-6.4
				c-4.89-2.01-11.91-0.02-13.89,4.77c-1.5,3.62-0.74,8.85,2.13,11.89c2.54,2.69,6.2,3.08,9.57,2.53c1.73-0.28,4.39-0.11,5.28-2.46
				c0.07-0.18-0.09-0.36-0.27-0.35C119.42,252.94,118.93,252.15,118.88,251.9z"/>
		</g>
		<g id="XMLID_208_">
			<path id="XMLID_160_" class="st28" d="M119.26,245.52c0.18,0.28,0.14,0.67,0.31,0.96c0.29,0.49,0.67,0.67,1.18,0.9
				c0.83,0.38,0.64,1.59,0.61,2.13c0.63-0.42,0.73-1.55,0.88-2.12c0.17-0.65,0.28-1.31,0.47-1.95c0.18-0.62,0.5-1.21,0.56-1.87
				c0.2-2.27-1.22-4.93-2.94-6.2c-1.25-0.93-3.16-0.89-4.57,0.05c-0.6,0.4-1.04,1-1.31,1.66c-0.11,0.29-0.19,0.62-0.05,0.89"/>
		</g>
		<g id="XMLID_205_">
			<path id="XMLID_161_" class="st15" d="M108.15,261.52c0.12-0.79,0.33-1.71,1.07-2.02c0.2-0.09,0.43-0.11,0.65-0.14
				c2.25-0.25,4.52-0.36,6.78-0.32c0.94,0.01,1.91,0.06,2.74,0.48c1.31,0.66,2.04,2.07,2.67,3.4"/>
		</g>
		<g id="XMLID_164_">
			<path id="XMLID_163_" class="st13" d="M127.22,290.47c-0.31-0.47-1.04-1.02-1.3-1.53c-0.63-1.23-1.17-6.41-0.96-7.73
				c0.23-1.42,1.49-2.18,2.05-5.33c0.73-4.06-0.94-7.22-1.87-8.58c-1.32-1.91-0.54-1.9-0.99-4.25c-0.08-0.42-0.18-0.87-0.47-1.17
				c-0.28-0.29-2.25-1.19-2.63-1.25c-3.66-0.57-5.81-0.12-9.51,0.04c-1.83,0.08-3.66,0.29-5.46,0.69c-1.99,0.44-3.72,0.97-4.13,3.67
				c-0.63,4.17-0.1,8.4,1.17,12.35c0.84,2.62,5.86,11.7,4.62,13.46c-0.28,0.4-1,1.16-1.08,1.67c-0.31,1.83,3.83,2.48,5.61,2.63
				c2.7,0.22,5.81,0.07,8.52-0.05c2.05-0.1,6.54-0.81,6.86-3.35C127.71,291.24,127.46,290.84,127.22,290.47z"/>
		</g>
		<path id="XMLID_165_" class="st15" d="M126.44,276.66c0,0.74-0.41,1.73-0.55,2.12c-0.52,0.26-2.56,0.7-3.73,0.17
			c-0.26-2.44-1.69-7.13-1.69-7.13S126.44,275.98,126.44,276.66z"/>
		<g id="XMLID_166_">
			<path id="XMLID_167_" class="st27" d="M123.81,274.96c0,0,6.76,16.34,9.69,16.34c2.13,0,7.37-15.08,7.37-15.08l-3.31-1.57
				l-3.69,6.32l-3.73-11.78"/>
			<path id="XMLID_168_" class="st27" d="M136.91,275.78c0,0,1.1-1.73,1.02-2.95c-0.03-0.47-0.31-2.69-0.08-3.12
				c0.23-0.44,0.79-1.87,1.11-2.14c0.32-0.28,1.49-0.72,1.78-0.53c0.29,0.2,0.64-0.71,1.12-0.64c0.48,0.08,0.87,0.48,0.87,0.91
				c0,0.44,0.64,0.52,0.71,0.83c0.08,0.32,0.04,0.6,0.16,0.83c0.12,0.24,0.47,0.12,0.6,0.71c0.11,0.54-0.04,0.6,0,0.87
				c0.04,0.28,0.28,0.25,0.2,0.78c-0.08,0.53-0.44,1.22-0.76,1.81c-0.32,0.6-0.97,1.34-1.84,1.87c-0.43,0.26-0.67,0.71-1.08,1.48"/>
			<path id="XMLID_169_" class="st28" d="M138.73,263.15c-0.08-0.13-0.31-0.35-0.58-0.16c-0.27,0.19-0.19,0.52-0.13,0.65
				c0.06,0.13,2,4.52,2,4.52s0.16,0.19,0.47-0.09c0.34-0.3,0.23-0.44,0.23-0.44S138.81,263.28,138.73,263.15z"/>
			<g id="XMLID_170_">
				<path id="XMLID_171_" class="st26" d="M140.84,267.34c-0.38,0.68-0.82,0.9-1.22,1.27c-0.31,0.29-0.27,0.48-0.62,0.78
					c0.6-0.04,0.5-0.4,1.28-0.96c0.36-0.26,0.73-0.54,0.8-0.99C141.11,267.3,140.93,267.21,140.84,267.34L140.84,267.34z"/>
			</g>
		</g>
		<g id="XMLID_192_">
			<path id="XMLID_173_" class="st13" d="M117.6,260.39c1.76,0.09,6.89-0.81,9.74,2.17c2.39,2.5,3.75,9.04,4.71,11.69
				c-2.39,2.44-4.69,4.4-8.32,3.61c-0.14-0.1-1.93-5.76-3.24-6.26"/>
		</g>
		<path id="XMLID_174_" class="st28" d="M130.68,312.27c0,0,1.16,27.95,0.95,29.99c-0.21,2.04-2.48,40.63-2.48,40.63
			s-4.66,0.82-7.45,0c0,0-3.6-30.06,0-39.42l-1.6-8.97c0,0,0.24,6.68,0,8.03c-0.24,1.36-7.44,39.41-7.44,39.41s-4.76-0.13-6.94-2.03
			c0,0-0.68-26.44,4.28-37.56l-4.54-29.09l2.61-7.4L130.68,312.27z"/>
		<g id="XMLID_79_">
			<path id="XMLID_176_" class="st29" d="M120.11,334.5c-0.66-4.3-4.77-19.55-4.94-19.92c-2.24-1.74-4.29-3.27-5.04-4.72
				c1.23,3.68,3.58,3.87,4.47,5.77c2.18,4.7,0.51,3.66,5.61,19.4"/>
		</g>
		<path id="XMLID_177_" class="st28" d="M100.08,260.2c-0.11,1.49,0.2,2.97,0.22,4.46c0.02,1.49-0.3,3.1-1.39,4.11
			c-1.09,1.01-3.13,1.05-3.9-0.22c0.79,1.64,2.48,2.75,4.28,3.08c1.79,0.33,3.66-0.06,5.32-0.82c4.4-2.02,7.34-6.63,7.2-11.49
			c-0.11-3.99-3.14-7.85-7.38-5.75C101.94,254.81,100.27,257.46,100.08,260.2z"/>
	</g>
</g>
<g id="DESIGNED_BY_FREEPIK">
</g>
</svg>
